<svg xmlns="http://www.w3.org/2000/svg" xmlns:xlink="http://www.w3.org/1999/xlink" width="75" height="75" viewBox="0 0 75 75">
  <defs>
    <clipPath id="clip-path">
      <rect id="Rectangle_204" data-name="Rectangle 204" width="75" height="75" transform="translate(1136 1457)" fill="#fff" stroke="#707070" stroke-width="1"/>
    </clipPath>
  </defs>
  <g id="_2" data-name="2" transform="translate(-1136 -1457)">
    <g id="Mask_Group_18" data-name="Mask Group 18" clip-path="url(#clip-path)">
      <g id="_002-like" data-name="002-like" transform="translate(1136 1457)">
        <g id="Group_1651" data-name="Group 1651">
          <path id="Path_1253" data-name="Path 1253" d="M42.653,42.042c0,2.494,4.306,5.339,6.8,5.339h19.3a3.635,3.635,0,1,0,0-7.27h1.3a3.635,3.635,0,1,0,0-7.269h1.306A3.634,3.634,0,0,0,75,29.278a3.7,3.7,0,0,0-3.715-3.708H70.06a3.635,3.635,0,1,0,0-7.27H59.836l-.034-.053,3.987-8.493a4.817,4.817,0,1,0-8.721-4.094l-1.7,3.632A11.745,11.745,0,0,1,48.7,14.447a7.716,7.716,0,0,0-3.815,6.789L39.235,32.57Z" fill="#ffddce"/>
          <g id="Group_1650" data-name="Group 1650">
            <path id="Path_1254" data-name="Path 1254" d="M62.967,4.435a4.619,4.619,0,0,0-.492-.026A4.819,4.819,0,0,0,58.11,7.181l-1.7,3.632a11.745,11.745,0,0,1-4.662,5.154c-1.348.79-6.2,2.018-6.377,11.2a7.974,7.974,0,0,1-.463,2.041l-3.656-4.078,3.641-3.9A7.716,7.716,0,0,1,48.7,14.447a11.746,11.746,0,0,0,4.662-5.154l1.7-3.632a4.819,4.819,0,0,1,7.9-1.225Z" fill="#ffcbbe"/>
            <path id="Path_1255" data-name="Path 1255" d="M72.39,43.745a3.634,3.634,0,0,1-3.634,3.635H48.949A6.469,6.469,0,0,1,43.706,44.7H68.755a3.635,3.635,0,0,0,3.38-2.3s0,0,0,0,0,0,0,0A3.647,3.647,0,0,1,72.39,43.745Z" fill="#ffcbbe"/>
            <path id="Path_1256" data-name="Path 1256" d="M73.439,35.136A3.636,3.636,0,0,1,70.06,40.11H68.667a1.339,1.339,0,1,1,0-2.677H70.06A3.634,3.634,0,0,0,73.439,35.136Z" fill="#ffcbbe"/>
            <path id="Path_1257" data-name="Path 1257" d="M74.745,27.866a3.636,3.636,0,0,1-3.379,4.974H69.973a1.339,1.339,0,1,1,0-2.677h1.393a3.634,3.634,0,0,0,3.379-2.3Z" fill="#ffcbbe"/>
            <path id="Path_1258" data-name="Path 1258" d="M73.44,20.6a3.636,3.636,0,0,1-3.379,4.974H68.668a1.339,1.339,0,1,1,0-2.677h1.393a3.634,3.634,0,0,0,3.379-2.3Z" fill="#ffcbbe"/>
          </g>
          <path id="Path_1259" data-name="Path 1259" d="M33.582,21.235V43.9a2.847,2.847,0,0,0,2.847,2.847h5.613A2.847,2.847,0,0,0,44.888,43.9V21.235a2.847,2.847,0,0,0-2.847-2.847H36.428a2.847,2.847,0,0,0-2.847,2.847Z" fill="#95d6a4"/>
          <path id="Path_1260" data-name="Path 1260" d="M33.581,36.764V43.9a2.847,2.847,0,0,0,2.848,2.846h5.613A2.846,2.846,0,0,0,44.888,43.9V36.764a2.847,2.847,0,0,1-2.846,2.848H36.428A2.848,2.848,0,0,1,33.581,36.764Z" fill="#78c2a4"/>
        </g>
        <g id="Group_1652" data-name="Group 1652">
          <path id="Path_1261" data-name="Path 1261" d="M32.347,8.587l-.289.077A2.007,2.007,0,0,1,29.64,7.377l-1.052-3.07a2.007,2.007,0,0,1,1.379-2.59l.718-.192a2.007,2.007,0,0,1,2.489,1.553L33.8,6.263A2.007,2.007,0,0,1,32.347,8.587Z" fill="#f6e266"/>
          <path id="Path_1262" data-name="Path 1262" d="M23.7,13.491l-.212.212a2.007,2.007,0,0,1-2.738.094L18.3,11.664a2.007,2.007,0,0,1-.1-2.932l.526-.526a2.007,2.007,0,0,1,2.932.1l2.133,2.447A2.007,2.007,0,0,1,23.7,13.491Z" fill="#f6e266"/>
          <path id="Path_1263" data-name="Path 1263" d="M18.659,22.063l-.077.289a2.007,2.007,0,0,1-2.324,1.45l-3.185-.623a2.007,2.007,0,0,1-1.553-2.489l.192-.718a2.007,2.007,0,0,1,2.59-1.379l3.07,1.052a2.007,2.007,0,0,1,1.288,2.418Z" fill="#f6e266"/>
        </g>
        <g id="Group_1660" data-name="Group 1660">
          <circle id="Ellipse_71" data-name="Ellipse 71" cx="19.732" cy="19.732" r="19.732" transform="translate(1.202 32.878)" fill="#d3effb"/>
          <path id="Path_1264" data-name="Path 1264" d="M24.382,72.056a19.733,19.733,0,1,1,0-38.892,19.736,19.736,0,0,0,0,38.892Z" fill="#9dc6fb"/>
          <path id="Path_1265" data-name="Path 1265" d="M20.935,55.124H11.767a2.514,2.514,0,0,1,0-5.027h9.168c1.388,0,0,1.125,0,2.514S20.935,54.295,20.935,55.124Z" fill="#365e7d"/>
          <path id="Path_1266" data-name="Path 1266" d="M20.935,55.124a2.514,2.514,0,0,1-2.514-2.514V46.191a2.514,2.514,0,1,1,5.027,0V52.61A2.514,2.514,0,0,1,20.935,55.124Z" fill="#2b4d66"/>
          <g id="Group_1659" data-name="Group 1659">
            <g id="Group_1653" data-name="Group 1653">
              <path id="Path_1267" data-name="Path 1267" d="M20.935,38.68a1.2,1.2,0,0,1-1.2-1.2V33.5a1.2,1.2,0,1,1,2.4,0v3.978A1.2,1.2,0,0,1,20.935,38.68Z" fill="#365e7d"/>
              <path id="Path_1268" data-name="Path 1268" d="M20.935,72.922a1.2,1.2,0,0,1-1.2-1.2V67.742a1.2,1.2,0,1,1,2.4,0V71.72A1.2,1.2,0,0,1,20.935,72.922Z" fill="#365e7d"/>
            </g>
            <g id="Group_1654" data-name="Group 1654">
              <path id="Path_1269" data-name="Path 1269" d="M40.045,53.812H36.067a1.2,1.2,0,1,1,0-2.4h3.978a1.2,1.2,0,1,1,0,2.4Z" fill="#365e7d"/>
              <path id="Path_1270" data-name="Path 1270" d="M5.8,53.812H1.824a1.2,1.2,0,1,1,0-2.4H5.8a1.2,1.2,0,1,1,0,2.4Z" fill="#365e7d"/>
            </g>
            <g id="Group_1655" data-name="Group 1655">
              <path id="Path_1271" data-name="Path 1271" d="M35.452,45.431a1.2,1.2,0,0,1-.6-2.244l2.033-1.174a1.2,1.2,0,0,1,1.2,2.083L36.052,45.27a1.2,1.2,0,0,1-.6.161Z" fill="#365e7d"/>
              <path id="Path_1272" data-name="Path 1272" d="M4.386,63.368a1.2,1.2,0,0,1-.6-2.244L5.817,59.95a1.2,1.2,0,0,1,1.2,2.083L4.986,63.206A1.2,1.2,0,0,1,4.386,63.368Z" fill="#365e7d"/>
            </g>
            <g id="Group_1656" data-name="Group 1656">
              <path id="Path_1273" data-name="Path 1273" d="M29.315,39.3a1.2,1.2,0,0,1-1.04-1.8l1.174-2.033a1.2,1.2,0,1,1,2.083,1.2l-1.174,2.033A1.2,1.2,0,0,1,29.315,39.3Z" fill="#365e7d"/>
              <path id="Path_1274" data-name="Path 1274" d="M11.378,70.362a1.2,1.2,0,0,1-1.04-1.8l1.174-2.033a1.2,1.2,0,1,1,2.083,1.2l-1.174,2.033A1.2,1.2,0,0,1,11.378,70.362Z" fill="#365e7d"/>
            </g>
            <g id="Group_1657" data-name="Group 1657">
              <path id="Path_1275" data-name="Path 1275" d="M12.555,39.3a1.2,1.2,0,0,1-1.042-.6l-1.174-2.033a1.2,1.2,0,1,1,2.083-1.2l1.174,2.033a1.2,1.2,0,0,1-1.04,1.8Z" fill="#365e7d"/>
              <path id="Path_1276" data-name="Path 1276" d="M30.491,70.362a1.2,1.2,0,0,1-1.042-.6l-1.174-2.033a1.2,1.2,0,1,1,2.083-1.2l1.174,2.033a1.2,1.2,0,0,1-1.04,1.8Z" fill="#365e7d"/>
            </g>
            <g id="Group_1658" data-name="Group 1658">
              <path id="Path_1277" data-name="Path 1277" d="M6.417,45.431a1.2,1.2,0,0,1-.6-.161L3.784,44.1a1.2,1.2,0,1,1,1.2-2.083l2.033,1.174a1.2,1.2,0,0,1-.6,2.244Z" fill="#365e7d"/>
              <path id="Path_1278" data-name="Path 1278" d="M37.483,63.368a1.2,1.2,0,0,1-.6-.161L34.85,62.032a1.2,1.2,0,0,1,1.2-2.083l2.033,1.174a1.2,1.2,0,0,1-.6,2.244Z" fill="#365e7d"/>
            </g>
          </g>
          <path id="Path_1279" data-name="Path 1279" d="M20.935,73.545A20.935,20.935,0,1,1,41.869,52.61,20.958,20.958,0,0,1,20.935,73.545Zm0-39.464a18.53,18.53,0,1,0,18.53,18.53A18.551,18.551,0,0,0,20.935,34.08Z" fill="#e7a561"/>
        </g>
      </g>
    </g>
  </g>
</svg>
