<svg xmlns="http://www.w3.org/2000/svg" xmlns:xlink="http://www.w3.org/1999/xlink" width="75" height="75" viewBox="0 0 75 75">
  <defs>
    <clipPath id="clip-path">
      <rect id="Rectangle_204" data-name="Rectangle 204" width="75" height="75" transform="translate(1136 1457)" fill="#fff" stroke="#707070" stroke-width="1"/>
    </clipPath>
  </defs>
  <g id="_3" data-name="3" transform="translate(-1136 -1457)">
    <g id="Mask_Group_19" data-name="Mask Group 19" clip-path="url(#clip-path)">
      <g id="_003-bank" data-name="003-bank" transform="translate(1136 1457)">
        <g id="Group_1661" data-name="Group 1661">
          <path id="Path_1280" data-name="Path 1280" d="M62.054,48.709a3.039,3.039,0,0,0-.452-1.6l-2.883-4.641a5.082,5.082,0,0,1-.543-2.3v-14.3A16.806,16.806,0,0,0,41.369,9.059H33.612A16.806,16.806,0,0,0,16.806,25.865v14.3a5.078,5.078,0,0,1-.543,2.3L13.38,47.105a3.039,3.039,0,0,0-.452,1.6h0a3.023,3.023,0,0,0,3.012,3.012h43.1A3.024,3.024,0,0,0,62.054,48.709Z" fill="#88b337"/>
          <path id="Path_1281" data-name="Path 1281" d="M41.369,9.059,47.833.009H27.149l6.464,9.049v2.586h7.757Z" fill="#88b337"/>
        </g>
        <path id="Path_1282" data-name="Path 1282" d="M61.6,47.105l-2.883-4.641a5.082,5.082,0,0,1-.543-2.3v-14.3a16.8,16.8,0,0,0-3.529-10.342c-3.452,19.017-15.6,29.98-27.019,36.2H59.042a3.026,3.026,0,0,0,2.586-4.615Z" fill="#6b962a"/>
        <path id="Path_1283" data-name="Path 1283" d="M43.955,28.451v-.827a4.357,4.357,0,0,0-4.344-4.344h-.827V20.694H36.2v2.586h-.827A4.344,4.344,0,0,0,33.845,31.7l2.353.879V37.5h-.827a1.758,1.758,0,0,1-1.758-1.758h0v-.827H31.027v.827a4.357,4.357,0,0,0,4.344,4.344h4.24a4.344,4.344,0,0,0,1.525-8.416l-2.353-.879V25.865h.827a1.758,1.758,0,0,1,1.758,1.758h0v.827h2.585Zm-3.723,5.637a1.785,1.785,0,0,1,1.138,1.655A1.758,1.758,0,0,1,39.611,37.5h-.827V33.544ZM36.2,29.821l-1.448-.543a1.785,1.785,0,0,1-1.138-1.655,1.758,1.758,0,0,1,1.758-1.758H36.2Z" fill="#fff"/>
        <g id="Group_1662" data-name="Group 1662">
          <path id="Path_1284" data-name="Path 1284" d="M63.347,12.937h0a6.283,6.283,0,0,0-5.171-5.171h0a6.283,6.283,0,0,0,5.171-5.171h0a6.283,6.283,0,0,0,5.171,5.171h0A6.283,6.283,0,0,0,63.347,12.937Z" fill="#fdb62f"/>
          <path id="Path_1285" data-name="Path 1285" d="M5.171,38.793h0A6.282,6.282,0,0,0,0,33.622H0a6.283,6.283,0,0,0,5.171-5.171h0a6.283,6.283,0,0,0,5.171,5.171h0A6.282,6.282,0,0,0,5.171,38.793Z" fill="#fdb62f"/>
        </g>
        <path id="Path_1286" data-name="Path 1286" d="M74.426,45.115a3.878,3.878,0,0,0-5.171-1.435L50.91,51.514a2.594,2.594,0,0,1-1.021.207H27.148a2.586,2.586,0,0,1,0-5.171H37.491a7.756,7.756,0,0,0,7.757-7.757H23.736A11.755,11.755,0,0,0,14.57,43.2L6.464,53.013l9.127,16.729L50.716,61.3a18.655,18.655,0,0,0,4.37-1.6l18.1-9.269A3.877,3.877,0,0,0,74.426,45.115Z" fill="#fec9a3"/>
        <path id="Path_1287" data-name="Path 1287" d="M12.682,64.416l2.909,5.326L50.716,61.3a18.655,18.655,0,0,0,4.37-1.6l9.786-5.029C48.609,59.645,27.019,62.748,12.682,64.416Z" fill="#f7bb8f"/>
        <path id="Path_1288" data-name="Path 1288" d="M0,51.721v23.27H16.806l3.878-3.878L5.171,47.842Z" fill="#4398d1"/>
        <path id="Path_1289" data-name="Path 1289" d="M0,74.991H16.806l3.878-3.878L17.84,66.846A91.428,91.428,0,0,1,0,72.16Z" fill="#3e8cc7"/>
        <circle id="Ellipse_72" data-name="Ellipse 72" cx="2.586" cy="2.586" r="2.586" transform="translate(9.049 65.945)" fill="#d9d9d9"/>
      </g>
    </g>
  </g>
</svg>
