<svg xmlns="http://www.w3.org/2000/svg" xmlns:xlink="http://www.w3.org/1999/xlink" width="75" height="75" viewBox="0 0 75 75">
  <defs>
    <clipPath id="clip-path">
      <rect id="Rectangle_204" data-name="Rectangle 204" width="75" height="75" transform="translate(1136 1457)" fill="#fff" stroke="#707070" stroke-width="1"/>
    </clipPath>
  </defs>
  <g id="_4" data-name="4" transform="translate(-1136 -1457)">
    <g id="Mask_Group_20" data-name="Mask Group 20" clip-path="url(#clip-path)">
      <g id="_004-analysis" data-name="004-analysis" transform="translate(1136 1457)">
        <g id="Group_1663" data-name="Group 1663">
          <path id="Path_1290" data-name="Path 1290" d="M45.462,73.49a1.1,1.1,0,0,1-.979-.6l-6-11.707a1.1,1.1,0,1,1,1.956-1l6,11.707a1.1,1.1,0,0,1-.977,1.6Z" fill="#1b3d66"/>
          <path id="Path_1291" data-name="Path 1291" d="M19.978,73.49A1.1,1.1,0,0,1,19,71.89l6-11.707a1.1,1.1,0,1,1,1.956,1l-6,11.707A1.1,1.1,0,0,1,19.978,73.49Z" fill="#1b3d66"/>
        </g>
        <path id="Path_1292" data-name="Path 1292" d="M11.781,59.285V55.769H53.659v3.516a1.4,1.4,0,0,1-1.4,1.4H13.181A1.4,1.4,0,0,1,11.781,59.285Z" fill="#f2df33"/>
        <path id="Path_1293" data-name="Path 1293" d="M50.107,55.769v3.516a1.4,1.4,0,0,1-1.4,1.4h3.552a1.4,1.4,0,0,0,1.4-1.4V55.769Z" fill="#fcab29"/>
        <path id="Path_1294" data-name="Path 1294" d="M27.721,6.426V3.168A1.658,1.658,0,0,1,29.379,1.51h6.682a1.658,1.658,0,0,1,1.658,1.658V6.426h-10Z" fill="#f2df33"/>
        <path id="Path_1295" data-name="Path 1295" d="M36.061,1.51H32.484a1.658,1.658,0,0,1,1.658,1.658V6.426h3.577V3.168A1.658,1.658,0,0,0,36.061,1.51Z" fill="#fcab29"/>
        <path id="Path_1296" data-name="Path 1296" d="M62.332,5.327H3.108A3.111,3.111,0,0,0,0,8.435V53.76a3.111,3.111,0,0,0,3.108,3.108H62.332A3.111,3.111,0,0,0,65.44,53.76V8.435A3.111,3.111,0,0,0,62.332,5.327Z" fill="#ebeef2"/>
        <path id="Path_1297" data-name="Path 1297" d="M62.332,5.327H58.655a3.111,3.111,0,0,1,3.108,3.108V53.76a3.111,3.111,0,0,1-3.108,3.108h3.677A3.111,3.111,0,0,0,65.44,53.76V8.435A3.111,3.111,0,0,0,62.332,5.327Z" fill="#d1d6de"/>
        <g id="Group_1664" data-name="Group 1664">
          <path id="Path_1298" data-name="Path 1298" d="M19.825,29.2a1.1,1.1,0,0,1-.543-2.054l5.626-3.192a1.1,1.1,0,0,1,1.084,1.911l-5.626,3.192A1.093,1.093,0,0,1,19.825,29.2Z" fill="#1b3d66"/>
          <path id="Path_1299" data-name="Path 1299" d="M35.532,29.2a1.092,1.092,0,0,1-.541-.143l-5.626-3.192a1.1,1.1,0,0,1,1.084-1.911l5.626,3.192a1.1,1.1,0,0,1-.543,2.054Z" fill="#1b3d66"/>
          <path id="Path_1300" data-name="Path 1300" d="M39.253,28.383a1.1,1.1,0,0,1-.892-1.738l7.1-9.921A1.1,1.1,0,1,1,47.247,18l-7.1,9.921A1.1,1.1,0,0,1,39.253,28.383Z" fill="#1b3d66"/>
        </g>
        <g id="Group_1665" data-name="Group 1665">
          <path id="Path_1301" data-name="Path 1301" d="M15.367,40.185v8.829a.439.439,0,0,0,.439.439h3.578a.439.439,0,0,0,.439-.439V40.185a.439.439,0,0,0-.439-.439H15.806A.439.439,0,0,0,15.367,40.185Z" fill="#48cfb7"/>
          <path id="Path_1302" data-name="Path 1302" d="M25.45,34.57V49.014a.439.439,0,0,0,.439.439h3.578a.439.439,0,0,0,.439-.439V34.57a.439.439,0,0,0-.439-.439H25.889A.44.44,0,0,0,25.45,34.57Z" fill="#48cfb7"/>
          <path id="Path_1303" data-name="Path 1303" d="M35.533,40.185v8.829a.439.439,0,0,0,.439.439h3.578a.439.439,0,0,0,.439-.439V40.185a.439.439,0,0,0-.439-.439H35.973A.439.439,0,0,0,35.533,40.185Z" fill="#48cfb7"/>
          <path id="Path_1304" data-name="Path 1304" d="M45.617,30.192V49.014a.439.439,0,0,0,.439.439h3.578a.439.439,0,0,0,.439-.439V30.192a.439.439,0,0,0-.439-.439H46.056A.439.439,0,0,0,45.617,30.192Z" fill="#48cfb7"/>
        </g>
        <path id="Path_1305" data-name="Path 1305" d="M60.242,45.4l8.669,15.016a3.262,3.262,0,0,0,4.457,1.194h0a3.262,3.262,0,0,0,1.194-4.457L65.893,42.134Z" fill="#ed5575"/>
        <path id="Path_1306" data-name="Path 1306" d="M65.893,42.134,60.242,45.4l3.379,5.853a17.769,17.769,0,0,0,5.651-3.263Z" fill="#cc3a60"/>
        <circle id="Ellipse_73" data-name="Ellipse 73" cx="14.057" cy="14.057" r="14.057" transform="translate(43.714 20.534)" fill="#f2df33"/>
        <circle id="Ellipse_74" data-name="Ellipse 74" cx="9.892" cy="9.892" r="9.892" transform="translate(47.879 24.699)" fill="#5c9cee"/>
        <path id="Path_1307" data-name="Path 1307" d="M27.678,19.98a3.662,3.662,0,1,0,3.662,3.662A3.666,3.666,0,0,0,27.678,19.98Z" fill="#f2df33"/>
        <path id="Path_1308" data-name="Path 1308" d="M17.6,25.7a3.662,3.662,0,1,0,3.662,3.662A3.666,3.666,0,0,0,17.6,25.7Z" fill="#5c9cee"/>
        <path id="Path_1309" data-name="Path 1309" d="M37.762,25.7a3.662,3.662,0,1,0,3.662,3.662A3.666,3.666,0,0,0,37.762,25.7Z" fill="#ed5575"/>
        <path id="Path_1310" data-name="Path 1310" d="M47.845,11.618a3.662,3.662,0,1,0,3.662,3.662A3.666,3.666,0,0,0,47.845,11.618Z" fill="#9fd479"/>
      </g>
    </g>
  </g>
</svg>
