<svg xmlns="http://www.w3.org/2000/svg" xmlns:xlink="http://www.w3.org/1999/xlink" width="75" height="75" viewBox="0 0 75 75">
  <defs>
    <clipPath id="clip-path">
      <rect id="Rectangle_204" data-name="Rectangle 204" width="75" height="75" transform="translate(1136 1457)" fill="#fff" stroke="#707070" stroke-width="1"/>
    </clipPath>
  </defs>
  <g id="_5" data-name="5" transform="translate(-1136 -1457)">
    <g id="Mask_Group_21" data-name="Mask Group 21" clip-path="url(#clip-path)">
      <g id="_005-support" data-name="005-support" transform="translate(1136 1457)">
        <g id="Group_1666" data-name="Group 1666">
          <path id="Path_1311" data-name="Path 1311" d="M55.02,71.016a1.126,1.126,0,0,1-.226-2.228l2.284-.472a9.271,9.271,0,0,0,7.368-9.045V54.615a1.126,1.126,0,1,1,2.251,0v4.657a11.531,11.531,0,0,1-9.163,11.25l-2.284.472a1.13,1.13,0,0,1-.229.024Z" fill="#2b4d66"/>
        </g>
        <g id="Group_1667" data-name="Group 1667">
          <path id="Path_1312" data-name="Path 1312" d="M33.9,21.893h-6.07a8.954,8.954,0,0,0-8.954,8.954v1.174a8.945,8.945,0,0,0,4.147,7.553.747.747,0,0,1,.345.63v5.5a.45.45,0,0,0,.777.31l4.329-4.566a1.5,1.5,0,0,1,1.089-.468H33.9a8.954,8.954,0,0,0,8.954-8.954V30.848A8.954,8.954,0,0,0,33.9,21.893Z" fill="#b3e59f"/>
        </g>
        <g id="Group_1669" data-name="Group 1669">
          <g id="Group_1668" data-name="Group 1668">
            <path id="Path_1313" data-name="Path 1313" d="M65.284,46.069A4.568,4.568,0,0,1,60.716,41.5V24.359A14.558,14.558,0,0,0,46.174,9.817H28.824A14.558,14.558,0,0,0,14.282,24.359V41.5a4.568,4.568,0,0,1-9.137,0V24.359A23.705,23.705,0,0,1,28.824.68h17.35A23.705,23.705,0,0,1,69.852,24.359V41.5A4.568,4.568,0,0,1,65.284,46.069Z" fill="#e4f6ff"/>
          </g>
        </g>
        <g id="Group_1671" data-name="Group 1671">
          <g id="Group_1670" data-name="Group 1670">
            <path id="Path_1314" data-name="Path 1314" d="M46.174.68H41.892A23.705,23.705,0,0,1,65.57,24.359V41.5a4.567,4.567,0,0,1-2.427,4.035A4.568,4.568,0,0,0,69.852,41.5V24.359A23.705,23.705,0,0,0,46.174.68Z" fill="#d3effb"/>
          </g>
        </g>
        <g id="Group_1672" data-name="Group 1672">
          <path id="Path_1315" data-name="Path 1315" d="M6.781,31.916h7.5V56.429a2.2,2.2,0,0,1-2.2,2.2H6.781A6.781,6.781,0,0,1,0,51.845V38.7a6.781,6.781,0,0,1,6.781-6.781Z" fill="#365e7d"/>
        </g>
        <path id="Path_1316" data-name="Path 1316" d="M9.506,31.916V56.429a2.2,2.2,0,0,1-2.2,2.2h4.778a2.2,2.2,0,0,0,2.2-2.2V31.916Z" fill="#2b4d66"/>
        <g id="Group_1673" data-name="Group 1673">
          <path id="Path_1317" data-name="Path 1317" d="M52.01,74.32H47.127a4.429,4.429,0,1,1,0-8.858H52.01a4.431,4.431,0,0,1,4.2,3.028c.106.318-.518.415-.47,1.164s.667.829.61,1.112A4.431,4.431,0,0,1,52.01,74.32Z" fill="#365e7d"/>
        </g>
        <path id="Path_1318" data-name="Path 1318" d="M53.451,65.7a4.429,4.429,0,0,1-4.382,5.075H44.186a4.419,4.419,0,0,1-1.441-.241,4.43,4.43,0,0,0,4.382,3.783H52.01A4.429,4.429,0,0,0,53.451,65.7Z" fill="#2b4d66"/>
        <g id="Group_1674" data-name="Group 1674">
          <path id="Path_1319" data-name="Path 1319" d="M68.219,58.626H66.7l-1.133-.162-1.118.162H62.913a2.2,2.2,0,0,1-2.2-2.2V31.916h7.5A6.781,6.781,0,0,1,75,38.7V51.845A6.781,6.781,0,0,1,68.219,58.626Z" fill="#365e7d"/>
        </g>
        <path id="Path_1320" data-name="Path 1320" d="M68.2,31.916H63.547a6.78,6.78,0,0,1,6.78,6.78v13.15a6.78,6.78,0,0,1-6.78,6.78H68.2a6.78,6.78,0,0,0,6.78-6.78V38.7A6.779,6.779,0,0,0,68.2,31.916Z" fill="#2b4d66"/>
        <g id="Group_1675" data-name="Group 1675">
          <path id="Path_1321" data-name="Path 1321" d="M38.012,22.9a8.912,8.912,0,0,1,1,4.116v1.174a8.954,8.954,0,0,1-8.954,8.954h-6.07a8.912,8.912,0,0,1-4.116-1,9,9,0,0,0,3.144,3.438.748.748,0,0,1,.346.631V45.7a.45.45,0,0,0,.777.31l4.329-4.566a1.5,1.5,0,0,1,1.089-.468H33.9a8.954,8.954,0,0,0,8.954-8.954V30.848A8.952,8.952,0,0,0,38.012,22.9Z" fill="#95d6a4"/>
        </g>
        <path id="Path_1322" data-name="Path 1322" d="M36.462,30.159H35.4a5.012,5.012,0,0,0-.608-1.4l.623-.623a1.126,1.126,0,1,0-1.592-1.592l-.623.623a5.009,5.009,0,0,0-1.55-.644v-.879a1.126,1.126,0,1,0-2.251,0v.879a5.008,5.008,0,0,0-1.55.644l-.623-.623a1.126,1.126,0,1,0-1.592,1.592l.623.623a5.009,5.009,0,0,0-.644,1.55h-.879a1.126,1.126,0,0,0,0,2.251h.879a5.009,5.009,0,0,0,.644,1.55l-.623.623a1.126,1.126,0,0,0,1.592,1.592l.623-.623a5.009,5.009,0,0,0,1.55.644v.879a1.126,1.126,0,0,0,2.251,0v-.879A5.009,5.009,0,0,0,33.2,35.7l.623.623a1.126,1.126,0,1,0,1.592-1.592l-.623-.623a5.009,5.009,0,0,0,.676-1.7h1a1.126,1.126,0,1,0,0-2.251Zm-5.94,4.063a2.788,2.788,0,1,1,2.788-2.788A2.791,2.791,0,0,1,30.523,34.222Z" fill="#2b4d66"/>
        <g id="Group_1676" data-name="Group 1676">
          <path id="Path_1323" data-name="Path 1323" d="M30.523,38.35a1.126,1.126,0,0,0,1.126-1.126V37a9,9,0,0,1-1.588.143H29.4v.083A1.126,1.126,0,0,0,30.523,38.35Z" fill="#2b4d66"/>
          <path id="Path_1324" data-name="Path 1324" d="M35.413,36.324a1.125,1.125,0,0,0,.266-1.166,8.956,8.956,0,0,1-1.865,1.159l.008.008a1.126,1.126,0,0,0,1.592,0Z" fill="#2b4d66"/>
        </g>
        <g id="Group_1677" data-name="Group 1677">
          <path id="Path_1325" data-name="Path 1325" d="M47.311,33.893h-6.07a8.954,8.954,0,0,0-8.954,8.954v1.174a8.954,8.954,0,0,0,8.954,8.954h4.881a1.5,1.5,0,0,1,1.089.468L51,57.436a.45.45,0,0,0,.777-.31V52.2a.748.748,0,0,1,.345-.63,8.945,8.945,0,0,0,4.147-7.553V42.848a8.954,8.954,0,0,0-8.954-8.954Z" fill="#ffe07d"/>
        </g>
        <g id="Group_1678" data-name="Group 1678">
          <path id="Path_1326" data-name="Path 1326" d="M51.428,34.9a8.912,8.912,0,0,1,1,4.116v1.174a8.954,8.954,0,0,1-8.954,8.954h-6.07a8.912,8.912,0,0,1-4.116-1,8.951,8.951,0,0,0,7.951,4.838h4.881a1.5,1.5,0,0,1,1.089.468L51,57.436a.45.45,0,0,0,.777-.31V52.2a.748.748,0,0,1,.345-.63,8.944,8.944,0,0,0,4.147-7.553V42.848A8.951,8.951,0,0,0,51.428,34.9Z" fill="#ffd064"/>
        </g>
        <g id="Group_1679" data-name="Group 1679">
          <circle id="Ellipse_75" data-name="Ellipse 75" cx="1.067" cy="1.067" r="1.067" transform="translate(42.902 48.498)" fill="#2b4d66"/>
        </g>
        <path id="Path_1327" data-name="Path 1327" d="M42.99,49.141a1.067,1.067,0,1,0,1.9-.112,9.017,9.017,0,0,1-1.414.112Z" fill="#2b4d66"/>
        <g id="Group_1681" data-name="Group 1681">
          <g id="Group_1680" data-name="Group 1680">
            <path id="Path_1328" data-name="Path 1328" d="M43.969,47.061a1.126,1.126,0,0,1-1.126-1.126V43.263a1.126,1.126,0,0,1,1.126-1.126A1.431,1.431,0,0,0,45.4,40.629a1.43,1.43,0,0,0-2.844-.123,1.471,1.471,0,0,0-.014.2,1.126,1.126,0,0,1-2.251,0,3.679,3.679,0,0,1,3.682-3.681h.075a3.692,3.692,0,0,1,3.6,3.486,3.651,3.651,0,0,1-1.007,2.728,3.7,3.7,0,0,1-1.544.969v1.725a1.126,1.126,0,0,1-1.126,1.125Z" fill="#2b4d66"/>
          </g>
        </g>
      </g>
    </g>
  </g>
</svg>
