<svg xmlns="http://www.w3.org/2000/svg" xmlns:xlink="http://www.w3.org/1999/xlink" width="75" height="75" viewBox="0 0 75 75">
  <defs>
    <clipPath id="clip-path">
      <rect id="Rectangle_204" data-name="Rectangle 204" width="75" height="75" transform="translate(1136 1457)" fill="#fff" stroke="#707070" stroke-width="1"/>
    </clipPath>
  </defs>
  <g id="_6" data-name="6" transform="translate(-1136 -1457)">
    <g id="Mask_Group_22" data-name="Mask Group 22" clip-path="url(#clip-path)">
      <g id="Flat" transform="translate(1133.848 1453.312)">
        <path id="Path_1329" data-name="Path 1329" d="M3.689,51.639h9.836V65.164a2.459,2.459,0,0,1-2.459,2.459H7.377a3.689,3.689,0,0,1-3.689-3.689Z" fill="#379ec3"/>
        <path id="Path_1330" data-name="Path 1330" d="M71.311,60.246H7.377a3.689,3.689,0,0,0-3.689,3.689V14.754a3.689,3.689,0,0,1,3.689-3.689H75V56.557A3.689,3.689,0,0,1,71.311,60.246Z" fill="#8acce7"/>
        <path id="Path_1331" data-name="Path 1331" d="M71.311,52.869H67.623a2.459,2.459,0,0,1-2.459-2.459V6.148a2.459,2.459,0,0,1,2.459-2.459h3.689A3.689,3.689,0,0,1,75,7.377v49.18A3.689,3.689,0,0,0,71.311,52.869Z" fill="#379ec3"/>
        <path id="Path_1332" data-name="Path 1332" d="M27.049,31.967H24.38l1.888-1.888a1.23,1.23,0,0,0,0-1.739L24.528,26.6a1.23,1.23,0,0,0-1.739,0L20.9,28.489V25.82a1.23,1.23,0,0,0-1.23-1.23H17.213a1.23,1.23,0,0,0-1.23,1.23v2.67L14.1,26.6a1.23,1.23,0,0,0-1.739,0l-1.739,1.739a1.23,1.23,0,0,0,0,1.739l1.888,1.888H9.836a1.23,1.23,0,0,0-1.23,1.23v2.459a1.23,1.23,0,0,0,1.23,1.23h2.67l-1.888,1.888a1.23,1.23,0,0,0,0,1.739l1.739,1.739a1.23,1.23,0,0,0,1.739,0l1.888-1.888v2.67a1.23,1.23,0,0,0,1.23,1.23h2.459a1.23,1.23,0,0,0,1.23-1.23v-2.67l1.888,1.888a1.23,1.23,0,0,0,1.739,0l1.739-1.739a1.23,1.23,0,0,0,0-1.739L24.38,36.885h2.67a1.23,1.23,0,0,0,1.23-1.23V33.2A1.23,1.23,0,0,0,27.049,31.967Zm-8.607,4.918A2.459,2.459,0,1,1,20.9,34.426a2.459,2.459,0,0,1-2.459,2.459Z" fill="#395166"/>
        <path id="Path_1333" data-name="Path 1333" d="M18.443,39.344a4.918,4.918,0,1,1,4.918-4.918A4.918,4.918,0,0,1,18.443,39.344Zm0-7.377A2.459,2.459,0,1,0,20.9,34.426,2.459,2.459,0,0,0,18.443,31.967Z" fill="#2f4054"/>
        <path id="Path_1334" data-name="Path 1334" d="M31.607,29.148l-1.739-1.739,4.918-4.918a1.23,1.23,0,0,1,.869-.36H50.41V24.59H36.165Z" fill="#e44b4d"/>
        <path id="Path_1335" data-name="Path 1335" d="M35.656,56.557H24.59a1.23,1.23,0,0,1-.869-.36L16.344,48.82l1.739-1.739L25.1,54.1H35.656Z" fill="#e44b4d"/>
        <g id="Group_1682" data-name="Group 1682">
          <path id="Path_1336" data-name="Path 1336" d="M35.656,14.754h4.918v2.459H35.656Z" fill="#379ec3"/>
          <path id="Path_1337" data-name="Path 1337" d="M43.033,14.754H50.41v2.459H43.033Z" fill="#379ec3"/>
          <path id="Path_1338" data-name="Path 1338" d="M35.656,18.443h7.377V20.9H35.656Z" fill="#379ec3"/>
          <path id="Path_1339" data-name="Path 1339" d="M45.492,18.443h2.459V20.9H45.492Z" fill="#379ec3"/>
          <path id="Path_1340" data-name="Path 1340" d="M25.82,46.721h2.459V49.18H25.82Z" fill="#379ec3"/>
          <path id="Path_1341" data-name="Path 1341" d="M30.738,46.721h4.918V49.18H30.738Z" fill="#379ec3"/>
          <path id="Path_1342" data-name="Path 1342" d="M25.82,50.41h4.918v2.459H25.82Z" fill="#379ec3"/>
          <path id="Path_1343" data-name="Path 1343" d="M33.2,50.41h2.459v2.459H33.2Z" fill="#379ec3"/>
        </g>
        <path id="Path_1344" data-name="Path 1344" d="M59.016,54.1l-1.949,1.95-5.428,5.427H50.2a8.4,8.4,0,0,1-8.4-8.413l0-1.423L39.344,49.18a5.215,5.215,0,0,1-.306-7.042,4.783,4.783,0,0,1-2.153-5.253L54.1,39.344Z" fill="#f4ceaf"/>
        <path id="Path_1345" data-name="Path 1345" d="M44.261,59.015A8.392,8.392,0,0,1,41.8,53.062l0-1.423L39.344,49.18a5.215,5.215,0,0,1-.306-7.042,4.793,4.793,0,0,1-1.706-1.787c.089-.1.18-.192.274-.286l1.738-1.74,8.607,8.607s-2.9,12.871-3.69,12.083Z" fill="#f2c194"/>
        <path id="Path_1346" data-name="Path 1346" d="M50.41,49.9v2.968a1.23,1.23,0,0,1-2.459,0V50.41l-1.376-1.376-6.363-6.363,4.3.818,5.542,5.542a1.222,1.222,0,0,1,.352.732A1.364,1.364,0,0,1,50.41,49.9Z" fill="#f2c194"/>
        <path id="Path_1347" data-name="Path 1347" d="M75.615,70.7l-16.6-16.6-8.1,8.1a2.459,2.459,0,0,0,0,3.478L63.934,78.689Z" fill="#396795"/>
        <path id="Path_1348" data-name="Path 1348" d="M60.825,49.32A2.531,2.531,0,0,1,57.9,51.192l-2.347-.447-3.813-.727L50.4,49.763l-3.827-.728L34.426,46.721l-3.689-3.689,4.918-1.23,4.557.868,4.3.818L52.967,45.1l3.813.725,2.064.393a2.53,2.53,0,0,1,1.981,3.1Z" fill="#ad7d4d"/>
        <path id="Path_1349" data-name="Path 1349" d="M56.78,45.827l-1.23,4.918-3.813-.727,1.23-4.916Z" fill="#eedc9a"/>
        <path id="Path_1350" data-name="Path 1350" d="M60.825,49.32A2.531,2.531,0,0,1,57.9,51.192l-2.347-.447,1.23-4.918,2.064.393a2.53,2.53,0,0,1,1.981,3.1Z" fill="#c4d4e0"/>
        <path id="Path_1351" data-name="Path 1351" d="M50.4,49.763l-3.827-.728-6.363-6.363,4.3.818,5.542,5.542a1.222,1.222,0,0,1,.352.732Z" fill="#966342"/>
        <path id="Path_1352" data-name="Path 1352" d="M55.328,57.787l-3.689,3.689H50.2a8.4,8.4,0,0,1-8.4-8.413l0-1.423L39.344,49.18a5.217,5.217,0,0,1,0-7.377l.868.868,7.738,7.738v2.459a1.23,1.23,0,1,0,2.459,0Z" fill="#f4ceaf"/>
        <circle id="Ellipse_76" data-name="Ellipse 76" cx="1.23" cy="1.23" r="1.23" transform="translate(54.098 62.705)" fill="#eebe33"/>
        <path id="Path_1353" data-name="Path 1353" d="M34.574,46.638l-.148.083-3.689-3.689,4.918-1.23a3.325,3.325,0,0,1-1.082,4.835Z" fill="#d29979"/>
      </g>
    </g>
  </g>
</svg>
