<svg id="_1" data-name="1" xmlns="http://www.w3.org/2000/svg" width="200" height="200" viewBox="0 0 200 200">
  <g id="Background" transform="translate(0 0)">
    <circle id="Background_2" data-name="Background 2" cx="70.711" cy="70.711" r="70.711" transform="translate(0 100) rotate(-45)" fill="#48c2c9"/>
  </g>
  <g id="Accounting" transform="translate(14.075 22.6)">
    <g id="Paper_Sheet" data-name="Paper Sheet" transform="translate(18.508)">
      <path id="Path_1573" data-name="Path 1573" d="M292.338,162H221.413V287.385h94.4V180.355C308.19,164.86,292.338,162,292.338,162Z" transform="translate(-221.413 -162)" fill="#f4f4f4"/>
      <rect id="Rectangle_243" data-name="Rectangle 243" width="31.108" height="6.853" transform="translate(54.119 12.634)" fill="#c4c4c4"/>
      <rect id="Rectangle_244" data-name="Rectangle 244" width="31.108" height="1.907" transform="translate(54.119 21.454)" fill="#c4c4c4"/>
      <rect id="Rectangle_245" data-name="Rectangle 245" width="31.108" height="1.907" transform="translate(54.119 23.837)" fill="#c4c4c4"/>
      <path id="Path_1574" data-name="Path 1574" d="M622.223,162c7.151,10.25,3.933,21.811,3.933,21.811,11.561-6.794,19.538-3.456,19.538-3.456C638.075,164.86,622.223,162,622.223,162Z" transform="translate(-551.298 -162)" fill="#d8d8d8"/>
      <rect id="Rectangle_246" data-name="Rectangle 246" width="4.529" height="35.994" transform="translate(15.145 36.471)" fill="#42aa92"/>
      <rect id="Rectangle_247" data-name="Rectangle 247" width="4.529" height="22.487" transform="translate(20.866 49.979)" fill="#342f2d"/>
      <rect id="Rectangle_248" data-name="Rectangle 248" width="4.529" height="29.002" transform="translate(27.064 43.464)" fill="#41cfc1"/>
      <path id="Path_1575" data-name="Path 1575" d="M284.024,355.8v-50h-.6V356.4h50.3v-.6Z" transform="translate(-272.454 -280.357)" fill="#3c3c3b"/>
      <rect id="Rectangle_249" data-name="Rectangle 249" width="4.529" height="18.712" transform="translate(47.326 53.753)" fill="#42aa92"/>
      <rect id="Rectangle_250" data-name="Rectangle 250" width="4.529" height="29.002" transform="translate(41.724 43.464)" fill="#342f2d"/>
      <rect id="Rectangle_251" data-name="Rectangle 251" width="4.529" height="25.268" transform="translate(53.285 47.198)" fill="#41cfc1"/>
      <circle id="Ellipse_87" data-name="Ellipse 87" cx="7.866" cy="7.866" r="7.866" transform="translate(34.803 11.621)" fill="#42aa92"/>
      <rect id="Rectangle_252" data-name="Rectangle 252" width="5.88" height="5.88" transform="translate(62.979 48.231)" fill="#42aa92"/>
      <rect id="Rectangle_253" data-name="Rectangle 253" width="5.88" height="5.88" transform="translate(62.979 57.766)" fill="#342f2d"/>
      <rect id="Rectangle_254" data-name="Rectangle 254" width="5.88" height="5.88" transform="translate(62.979 67.301)" fill="#41cfc1"/>
      <rect id="Rectangle_255" data-name="Rectangle 255" width="13.508" height="1.748" transform="translate(71.719 48.231)" fill="#c4c4c4"/>
      <rect id="Rectangle_256" data-name="Rectangle 256" width="13.508" height="2.54" transform="translate(71.719 50.795)" fill="#c4c4c4"/>
      <rect id="Rectangle_257" data-name="Rectangle 257" width="13.508" height="1.748" transform="translate(71.719 57.766)" fill="#c4c4c4"/>
      <rect id="Rectangle_258" data-name="Rectangle 258" width="13.508" height="2.54" transform="translate(71.719 60.33)" fill="#c4c4c4"/>
      <rect id="Rectangle_259" data-name="Rectangle 259" width="13.508" height="1.748" transform="translate(71.719 67.301)" fill="#c4c4c4"/>
      <rect id="Rectangle_260" data-name="Rectangle 260" width="13.508" height="2.54" transform="translate(71.719 69.865)" fill="#c4c4c4"/>
      <rect id="Rectangle_261" data-name="Rectangle 261" width="38.617" height="9.773" transform="translate(10.974 80.809)" fill="#c4c4c4"/>
      <rect id="Rectangle_262" data-name="Rectangle 262" width="16.09" height="15.335" transform="translate(10.974 92.648)" fill="#335951"/>
      <rect id="Rectangle_263" data-name="Rectangle 263" width="20.262" height="1.033" transform="translate(29.328 92.648)" fill="#c4c4c4"/>
      <rect id="Rectangle_264" data-name="Rectangle 264" width="20.262" height="1.033" transform="translate(29.328 95.032)" fill="#c4c4c4"/>
      <rect id="Rectangle_265" data-name="Rectangle 265" width="20.262" height="1.033" transform="translate(29.328 97.416)" fill="#c4c4c4"/>
      <rect id="Rectangle_266" data-name="Rectangle 266" width="20.262" height="1.033" transform="translate(29.328 99.799)" fill="#c4c4c4"/>
      <rect id="Rectangle_267" data-name="Rectangle 267" width="20.262" height="1.033" transform="translate(29.328 102.183)" fill="#c4c4c4"/>
      <rect id="Rectangle_268" data-name="Rectangle 268" width="20.262" height="1.033" transform="translate(29.328 104.567)" fill="#c4c4c4"/>
      <rect id="Rectangle_269" data-name="Rectangle 269" width="20.262" height="1.033" transform="translate(29.328 106.951)" fill="#c4c4c4"/>
      <rect id="Rectangle_270" data-name="Rectangle 270" width="38.617" height="4.052" transform="translate(10.974 110.367)" fill="#c4c4c4"/>
      <rect id="Rectangle_271" data-name="Rectangle 271" width="29.678" height="2.304" transform="translate(55.55 80.809)" fill="#c4c4c4"/>
      <rect id="Rectangle_272" data-name="Rectangle 272" width="29.678" height="17.004" transform="translate(55.55 85.695)" fill="#c4c4c4"/>
      <rect id="Rectangle_273" data-name="Rectangle 273" width="20.262" height="1.033" transform="translate(64.965 104.05)" fill="#c4c4c4"/>
      <rect id="Rectangle_274" data-name="Rectangle 274" width="20.262" height="1.033" transform="translate(64.965 106.434)" fill="#c4c4c4"/>
      <rect id="Rectangle_275" data-name="Rectangle 275" width="20.262" height="1.033" transform="translate(64.965 108.818)" fill="#c4c4c4"/>
    </g>
    <g id="Calculator" transform="translate(106.02 55.172)">
      <path id="Rectangle_276" data-name="Rectangle 276" d="M16.553,0H47.879A16.551,16.551,0,0,1,64.43,16.551V67.327A16.551,16.551,0,0,1,47.879,83.878H16.549A16.549,16.549,0,0,1,0,67.329V16.553A16.553,16.553,0,0,1,16.553,0Z" fill="#352f2d"/>
      <path id="Path_1576" data-name="Path 1576" d="M797.076,508.042H749.239a2.929,2.929,0,0,0-2.929,2.929v13.342a2.929,2.929,0,0,0,2.929,2.929h47.837A2.929,2.929,0,0,0,800,524.313V510.971A2.929,2.929,0,0,0,797.076,508.042Z" transform="translate(-740.94 -501.981)" fill="#88bfb7"/>
      <path id="Path_1577" data-name="Path 1577" d="M882.217,508.042h-6.289L861.665,526.6a2.617,2.617,0,0,0-.358.637h6.435L881.755,509A2.584,2.584,0,0,0,882.217,508.042Z" transform="translate(-835.588 -501.981)" fill="#ccfef8"/>
      <path id="Path_1578" data-name="Path 1578" d="M955.031,519.565a1.414,1.414,0,0,0,1.983-.26l8.654-11.263H962.1l-7.33,9.54A1.414,1.414,0,0,0,955.031,519.565Z" transform="translate(-912.273 -501.981)" fill="#ccfef8"/>
      <path id="Rectangle_277" data-name="Rectangle 277" d="M6.59,0h0a6.589,6.589,0,0,1,6.589,6.589V19.118a6.59,6.59,0,0,1-6.59,6.59h0A6.589,6.589,0,0,1,0,19.119V6.59A6.59,6.59,0,0,1,6.59,0Z" transform="translate(45.804 51.702)" fill="#48c2c9"/>
      <path id="Rectangle_278" data-name="Rectangle 278" d="M5.915,0h0a5.916,5.916,0,0,1,5.916,5.916v0a5.915,5.915,0,0,1-5.915,5.915h0A5.916,5.916,0,0,1,0,5.915v0A5.915,5.915,0,0,1,5.915,0Z" transform="translate(5.492 65.579)" fill="#776b69"/>
      <path id="Rectangle_279" data-name="Rectangle 279" d="M5.915,0h0a5.915,5.915,0,0,1,5.915,5.915v0a5.916,5.916,0,0,1-5.916,5.916h0A5.915,5.915,0,0,1,0,5.916v0A5.915,5.915,0,0,1,5.915,0Z" transform="translate(18.8 65.579)" fill="#776b69"/>
      <path id="Rectangle_280" data-name="Rectangle 280" d="M5.915,0h0A5.916,5.916,0,0,1,11.83,5.916v0a5.915,5.915,0,0,1-5.915,5.915h0A5.915,5.915,0,0,1,0,5.916v0A5.915,5.915,0,0,1,5.915,0Z" transform="translate(32.468 65.579)" fill="#776b69"/>
      <path id="Rectangle_281" data-name="Rectangle 281" d="M5.914,0h0a5.915,5.915,0,0,1,5.915,5.915v0A5.915,5.915,0,0,1,5.916,11.83h0A5.915,5.915,0,0,1,0,5.915v0A5.914,5.914,0,0,1,5.914,0Z" transform="translate(5.492 51.702)" fill="#776b69"/>
      <path id="Rectangle_282" data-name="Rectangle 282" d="M5.915,0h0a5.915,5.915,0,0,1,5.915,5.915v0A5.915,5.915,0,0,1,5.915,11.83h0A5.915,5.915,0,0,1,0,5.915v0A5.915,5.915,0,0,1,5.915,0Z" transform="translate(18.8 51.702)" fill="#776b69"/>
      <path id="Rectangle_283" data-name="Rectangle 283" d="M5.914,0h0A5.915,5.915,0,0,1,11.83,5.915v0A5.915,5.915,0,0,1,5.916,11.83h0A5.914,5.914,0,0,1,0,5.916v0A5.914,5.914,0,0,1,5.914,0Z" transform="translate(32.468 51.702)" fill="#776b69"/>
      <rect id="Rectangle_284" data-name="Rectangle 284" width="11.831" height="11.831" rx="5.915" transform="translate(5.312 37.79)" fill="#776b69"/>
      <path id="Rectangle_285" data-name="Rectangle 285" d="M5.915,0h0a5.914,5.914,0,0,1,5.914,5.914v0a5.915,5.915,0,0,1-5.915,5.915h0A5.915,5.915,0,0,1,0,5.915v0A5.915,5.915,0,0,1,5.915,0Z" transform="translate(18.621 37.79)" fill="#776b69"/>
      <path id="Rectangle_286" data-name="Rectangle 286" d="M5.915,0h0A5.915,5.915,0,0,1,11.83,5.915v0a5.915,5.915,0,0,1-5.915,5.915h0A5.915,5.915,0,0,1,0,5.916v0A5.915,5.915,0,0,1,5.915,0Z" transform="translate(32.289 37.79)" fill="#776b69"/>
      <path id="Rectangle_287" data-name="Rectangle 287" d="M5.915,0H7.265a5.915,5.915,0,0,1,5.915,5.915v0a5.915,5.915,0,0,1-5.915,5.915H5.915A5.915,5.915,0,0,1,0,5.915v0A5.915,5.915,0,0,1,5.915,0Z" transform="translate(45.804 37.79)" fill="#42aa92"/>
      <path id="Rectangle_288" data-name="Rectangle 288" d="M2.97,0H35.837a2.97,2.97,0,0,1,2.97,2.97v0a2.969,2.969,0,0,1-2.969,2.969H2.969A2.969,2.969,0,0,1,0,2.97v0A2.97,2.97,0,0,1,2.97,0Z" transform="translate(5.312 28.678)" fill="#e04327"/>
      <path id="Rectangle_289" data-name="Rectangle 289" d="M3.071,0H9.283a3.071,3.071,0,0,1,3.071,3.071v0A3.071,3.071,0,0,1,9.283,6.143H3.071A3.071,3.071,0,0,1,0,3.071v0A3.071,3.071,0,0,1,3.071,0Z" transform="translate(46.629 28.678)" fill="#982023"/>
    </g>
    <g id="Pen" transform="translate(0 68.615)">
      <path id="Path_1579" data-name="Path 1579" d="M125.555,561.294a2.687,2.687,0,0,1-3.773-.456l-4.388-5.6a2.688,2.688,0,0,1,.456-3.774l1.454-1.14a2.688,2.688,0,0,1,3.773.456l4.388,5.6a2.689,2.689,0,0,1-.457,3.774Z" transform="translate(-116.822 -549.756)" fill="#352f2d"/>
      <path id="Path_1580" data-name="Path 1580" d="M182.554,627.111a2.681,2.681,0,0,0-.429-.8l-31.773-40.518-1.866-2.379-1.651-2.105c-.033-.042-.069-.081-.1-.12a2.686,2.686,0,0,0-3.669-.336l-3.437,2.7a2.688,2.688,0,0,0-.457,3.773l1.651,2.1,1.866,2.379,31.773,40.519a2.663,2.663,0,0,0,.711.63c.1.085.208.166.315.244,2.715,2,6.492,2.092,7.11,1.607C183.37,634.2,184.129,630.281,182.554,627.111Z" transform="translate(-134.744 -574.881)" fill="#e04327"/>
      <path id="Path_1581" data-name="Path 1581" d="M379.137,877.682a.9.9,0,0,1-1.258-.152l-2.868-3.657a.9.9,0,0,1,.152-1.258h0a.9.9,0,0,1,1.258.152l2.867,3.657a.9.9,0,0,1-.152,1.258Z" transform="translate(-329.167 -815.327)" fill="#352f2d"/>
      <path id="Path_1582" data-name="Path 1582" d="M220.432,639.029c.775-.607,1.534-4.525-.041-7.7a2.68,2.68,0,0,0-.429-.8L188.19,590.017l-1.866-2.379-1.651-2.105c-.033-.042-.069-.081-.1-.12l28.753,52.009C216.038,639.424,219.814,639.513,220.432,639.029Z" transform="translate(-172.581 -579.103)" fill="#ed5b48"/>
      <rect id="Rectangle_290" data-name="Rectangle 290" width="9.743" height="3.023" transform="matrix(0.787, -0.617, 0.617, 0.787, 6.077, 14.547)" fill="#352f2d"/>
      <path id="Path_1583" data-name="Path 1583" d="M178.148,613.089a1.1,1.1,0,0,1-1.546-.187L164.51,597.481a1.1,1.1,0,0,1,.187-1.546h0a1.1,1.1,0,0,1,1.546.187l12.092,15.421a1.1,1.1,0,0,1-.187,1.546Z" transform="translate(-155.878 -587.571)" fill="#352f2d"/>
    </g>
    <g id="Pie_Chart" data-name="Pie Chart" transform="translate(101.945 6.832)">
      <path id="Path_1584" data-name="Path 1584" d="M812.121,200.611v19.624h19.624A19.624,19.624,0,0,0,812.121,200.611Z" transform="translate(-791.031 -200.611)" fill="#42aa92"/>
      <path id="Path_1585" data-name="Path 1585" d="M712.56,211.156a19.624,19.624,0,1,0,14.526,32.819l-14.526-13.2Z" transform="translate(-692.936 -209.29)" fill="#ed5b48"/>
      <path id="Path_1586" data-name="Path 1586" d="M812.876,318.29l14.525,13.2a19.553,19.553,0,0,0,5.1-13.2Z" transform="translate(-791.652 -297.466)" fill="#342f2d"/>
    </g>
    <g id="Coin" transform="translate(7.128 116.62)">
      <g id="Group_1739" data-name="Group 1739" transform="translate(66.591 1.117)">
        <g id="Group_1736" data-name="Group 1736" transform="translate(2.973 11.262)">
          <path id="Path_1587" data-name="Path 1587" d="M576.976,914.414c0-1.495-.877-2.708-1.958-2.708H552.181c-1.081,0-1.958,1.213-1.958,2.708v2.84c0,.085,0,.168.009.251,0,.053-.009.107-.009.161,0,3.291,5.989,5.96,13.377,5.96s13.377-2.668,13.377-5.96c0-.054-.006-.108-.01-.161.006-.083.01-.166.01-.251Z" transform="translate(-550.223 -908.042)" fill="#f4bd31"/>
          <path id="Path_1588" data-name="Path 1588" d="M576.976,896.96c0,3.291-5.989,5.959-13.377,5.959s-13.377-2.668-13.377-5.959S556.212,891,563.6,891,576.976,893.668,576.976,896.96Z" transform="translate(-550.223 -891)" fill="#f2d453"/>
        </g>
        <g id="Group_1737" data-name="Group 1737" transform="translate(0 5.587)">
          <path id="Path_1589" data-name="Path 1589" d="M560.176,882.342c0-1.5-.877-2.707-1.958-2.707H535.381c-1.081,0-1.958,1.212-1.958,2.707v2.84c0,.085,0,.168.009.251,0,.054-.009.107-.009.161,0,3.291,5.989,5.959,13.377,5.959s13.376-2.668,13.376-5.959c0-.054-.006-.108-.009-.161.006-.082.009-.166.009-.251Z" transform="translate(-533.423 -875.971)" fill="#f4bd31"/>
          <path id="Path_1590" data-name="Path 1590" d="M560.176,864.89c0,3.292-5.989,5.96-13.376,5.96s-13.377-2.668-13.377-5.96,5.989-5.959,13.377-5.959S560.176,861.6,560.176,864.89Z" transform="translate(-533.423 -858.931)" fill="#f2d453"/>
        </g>
        <g id="Group_1738" data-name="Group 1738" transform="translate(4.035)">
          <path id="Path_1591" data-name="Path 1591" d="M582.976,850.768c0-1.495-.877-2.708-1.958-2.708H558.181c-1.081,0-1.958,1.213-1.958,2.708v2.84c0,.085,0,.168.009.251,0,.054-.009.107-.009.161,0,3.292,5.989,5.96,13.376,5.96s13.377-2.668,13.377-5.96c0-.054-.006-.107-.01-.161.006-.083.01-.166.01-.251Z" transform="translate(-556.223 -844.397)" fill="#f4bd31"/>
          <path id="Path_1592" data-name="Path 1592" d="M582.976,833.316c0,3.291-5.989,5.96-13.377,5.96s-13.376-2.668-13.376-5.96,5.989-5.959,13.376-5.959S582.976,830.025,582.976,833.316Z" transform="translate(-556.223 -827.357)" fill="#f2d453"/>
        </g>
      </g>
      <g id="Group_1740" data-name="Group 1740" transform="translate(39.695 15.53)">
        <path id="Path_1593" data-name="Path 1593" d="M407.313,930.588c.032-1.443-.788-2.631-1.832-2.655l-22.039-.488c-1.043-.023-1.915,1.129-1.947,2.572l-.061,2.741c0,.081,0,.162,0,.242,0,.052-.011.1-.012.156-.07,3.176,5.652,5.879,12.782,6.037s12.966-2.289,13.036-5.466c0-.052,0-.1-.005-.156.007-.08.012-.16.014-.242Z" transform="translate(-381.425 -924.146)" fill="#f4bd31"/>
        <path id="Path_1594" data-name="Path 1594" d="M407.686,914.849c-.07,3.176-5.906,5.623-13.036,5.466s-12.852-2.861-12.781-6.037,5.906-5.623,13.036-5.466S407.756,911.672,407.686,914.849Z" transform="translate(-381.79 -908.804)" fill="#f2d453"/>
      </g>
      <g id="Group_1741" data-name="Group 1741" transform="translate(2.123 7.701)">
        <path id="Path_1595" data-name="Path 1595" d="M195.984,888.086c0-1.5-.881-2.721-1.967-2.721H171.07c-1.086,0-1.967,1.218-1.967,2.721v2.854c0,.085,0,.169.009.252,0,.054-.009.108-.009.162,0,3.307,6.017,5.988,13.441,5.988s13.44-2.681,13.44-5.988c0-.055-.006-.108-.009-.162.005-.083.009-.167.009-.252Z" transform="translate(-169.103 -881.684)" fill="#f4bd31"/>
        <path id="Path_1596" data-name="Path 1596" d="M195.984,870.551c0,3.307-6.017,5.988-13.44,5.988s-13.441-2.681-13.441-5.988,6.017-5.988,13.441-5.988S195.984,867.244,195.984,870.551Z" transform="translate(-169.103 -864.563)" fill="#f2d453"/>
      </g>
      <g id="Group_1742" data-name="Group 1742" transform="translate(51.985 0)">
        <path id="Path_1597" data-name="Path 1597" d="M471.048,823.035c-1.044-1-2.477-1.205-3.2-.45l-15.32,15.937c-.725.754-.467,2.18.576,3.182l1.982,1.905c.059.057.119.11.181.162.035.038.069.078.106.115,2.3,2.207,8.176-.182,13.132-5.337s7.111-11.124,4.814-13.332c-.037-.036-.079-.068-.118-.1-.054-.059-.11-.118-.169-.174Z" transform="translate(-451.896 -821.935)" fill="#f4bd31"/>
        <path id="Path_1598" data-name="Path 1598" d="M469.743,821.864c2.3,2.208.142,8.177-4.814,13.332s-10.835,7.545-13.132,5.336-.141-8.177,4.814-13.332S467.447,819.656,469.743,821.864Z" transform="translate(-450.878 -821.042)" fill="#f2d453"/>
      </g>
      <g id="Group_1743" data-name="Group 1743" transform="translate(0 2.912)">
        <path id="Path_1599" data-name="Path 1599" d="M183.984,861.022c0-1.5-.881-2.721-1.967-2.721H159.07c-1.086,0-1.967,1.218-1.967,2.721v2.854c0,.085,0,.168.009.252,0,.053-.009.107-.009.162,0,3.307,6.017,5.988,13.441,5.988s13.441-2.681,13.441-5.988c0-.055-.006-.109-.009-.162.005-.083.009-.167.009-.252Z" transform="translate(-157.103 -854.62)" fill="#f4bd31"/>
        <ellipse id="Ellipse_88" data-name="Ellipse 88" cx="13.441" cy="5.988" rx="13.441" ry="5.988" fill="#f2d453"/>
      </g>
    </g>
  </g>
</svg>
