<svg xmlns="http://www.w3.org/2000/svg" xmlns:xlink="http://www.w3.org/1999/xlink" width="160.737" height="195.157" viewBox="0 0 160.737 195.157">
  <defs>
    <clipPath id="clip-path">
      <rect id="Rectangle_316" data-name="Rectangle 316" width="59.489" height="62.391" fill="none"/>
    </clipPath>
  </defs>
  <g id="_2" data-name="2" transform="translate(-346.335 -110.106)">
    <g id="Group_1916" data-name="Group 1916" transform="translate(346.335 110.106)">
      <g id="Group_1911" data-name="Group 1911">
        <circle id="Ellipse_89" data-name="Ellipse 89" cx="56.829" cy="56.829" r="56.829" transform="translate(0 80.369) rotate(-45)" fill="#ffe9e9"/>
        <g id="Group_1892" data-name="Group 1892" transform="translate(9.035 122.571)">
          <g id="Group_1891" data-name="Group 1891">
            <path id="Path_1748" data-name="Path 1748" d="M376.987,339.64l.124.051a.922.922,0,0,0,1-.207l21.619-21.8a.923.923,0,0,0,.2-1c-.017-.041-.035-.083-.052-.124Z" transform="translate(-366.248 -305.946)" fill="#00ccbe"/>
            <path id="Path_1749" data-name="Path 1749" d="M373.581,337.326l.006,0a.9.9,0,0,0,1.1-.139l22.727-22.919a.9.9,0,0,0,.13-1.1l0-.006Z" transform="translate(-365.04 -304.742)" fill="#00ccbe"/>
            <path id="Path_1750" data-name="Path 1750" d="M370.553,334.9c.181.145.363.287.55.424l24.42-24.626c-.139-.186-.283-.367-.429-.547Z" transform="translate(-363.965 -303.674)" fill="#00ccbe"/>
            <path id="Path_1751" data-name="Path 1751" d="M385.226,343.849q.255.02.513.034a.917.917,0,0,0,.7-.273l17.476-17.623a.916.916,0,0,0,.268-.7q-.016-.257-.039-.513Z" transform="translate(-369.172 -308.864)" fill="#00ccbe"/>
            <path id="Path_1752" data-name="Path 1752" d="M397.086,347a17.258,17.258,0,0,0,1.592-.7.946.946,0,0,0,.251-.182l7.556-7.62a.962.962,0,0,0,.18-.252,17.353,17.353,0,0,0,.683-1.6Z" transform="translate(-373.382 -313.077)" fill="#00ccbe"/>
            <path id="Path_1753" data-name="Path 1753" d="M380.829,341.825c.1.024.195.048.293.071a.924.924,0,0,0,.861-.255l19.932-20.1a.926.926,0,0,0,.248-.863q-.036-.146-.074-.292Z" transform="translate(-367.612 -307.305)" fill="#00ccbe"/>
            <path id="Path_1754" data-name="Path 1754" d="M390.393,345.648c.281-.03.559-.069.836-.113a.925.925,0,0,0,.509-.264L405.6,331.292a.928.928,0,0,0,.259-.512c.042-.277.078-.555.106-.837Z" transform="translate(-371.006 -310.697)" fill="#00ccbe"/>
            <path id="Path_1755" data-name="Path 1755" d="M365.527,329.751q.206.282.423.554l24.509-24.715c-.183-.143-.368-.283-.557-.418Z" transform="translate(-362.181 -301.906)" fill="#00ccbe"/>
            <path id="Path_1756" data-name="Path 1756" d="M360.875,314.284a.926.926,0,0,0-.258.5q-.071.429-.122.865L375.712,300.3c-.29.037-.578.079-.864.13a.923.923,0,0,0-.5.262Z" transform="translate(-360.395 -300.177)" fill="#00ccbe"/>
            <path id="Path_1757" data-name="Path 1757" d="M363.221,309.864a.96.96,0,0,0-.166.224,17.445,17.445,0,0,0-.805,1.735l9.629-9.711a17.59,17.59,0,0,0-1.729.82.96.96,0,0,0-.223.168Z" transform="translate(-361.018 -300.82)" fill="#00ccbe"/>
            <path id="Path_1758" data-name="Path 1758" d="M360.609,317.755a.912.912,0,0,0-.268.684c.008.179.019.356.032.533l18.676-18.834c-.177-.012-.355-.021-.533-.028a.917.917,0,0,0-.682.274Z" transform="translate(-360.34 -300.109)" fill="#00ccbe"/>
            <path id="Path_1759" data-name="Path 1759" d="M362.453,323.834a.918.918,0,0,0-.206.988l.058.141L385.077,302l-.141-.057a.92.92,0,0,0-.987.214Z" transform="translate(-360.994 -300.737)" fill="#00ccbe"/>
            <path id="Path_1760" data-name="Path 1760" d="M364.141,326.661a.9.9,0,0,0-.136,1.095l.008.014L387.9,303.682h0a.924.924,0,0,0-1.119.148Z" transform="translate(-361.597 -301.333)" fill="#00ccbe"/>
            <path id="Path_1761" data-name="Path 1761" d="M392.547,307.491,367.87,332.376q.239.249.486.489l24.683-24.892C392.879,307.81,392.714,307.649,392.547,307.491Z" transform="translate(-363.013 -302.729)" fill="#00ccbe"/>
            <path id="Path_1762" data-name="Path 1762" d="M361.225,320.882a.925.925,0,0,0-.25.853c.023.1.048.2.072.306l21.088-21.266-.306-.07a.928.928,0,0,0-.851.257Z" transform="translate(-360.558 -300.313)" fill="#00ccbe"/>
          </g>
        </g>
        <circle id="Ellipse_90" data-name="Ellipse 90" cx="5.078" cy="5.078" r="5.078" transform="translate(114.95 131.394)" fill="#ffe9e9"/>
        <rect id="Rectangle_309" data-name="Rectangle 309" width="73.274" height="109.789" transform="translate(30.311 55.461)" fill="#f0c27a"/>
        <g id="Group_1901" data-name="Group 1901" transform="translate(34.18 51.108)">
          <g id="Group_1899" data-name="Group 1899">
            <g id="Group_1894" data-name="Group 1894">
              <rect id="Rectangle_310" data-name="Rectangle 310" width="73.274" height="109.789" fill="#fff"/>
              <rect id="Rectangle_311" data-name="Rectangle 311" width="22.49" height="1.935" transform="translate(11.366 71.339)" fill="#00ccbe"/>
              <g id="Group_1893" data-name="Group 1893" transform="translate(11.366 82.04)">
                <rect id="Rectangle_312" data-name="Rectangle 312" width="54.169" height="1.935" fill="#94a3c0"/>
                <rect id="Rectangle_313" data-name="Rectangle 313" width="23.88" height="1.935" transform="translate(0 5.199)" fill="#94a3c0"/>
              </g>
              <rect id="Rectangle_314" data-name="Rectangle 314" width="8.222" height="1.935" transform="translate(11.366 75.208)" fill="#00ccbe"/>
            </g>
            <rect id="Rectangle_315" data-name="Rectangle 315" width="59.489" height="62.391" rx="4.592" transform="translate(6.892 5.32)" fill="#48c2c9"/>
            <g id="Group_1898" data-name="Group 1898" transform="translate(6.892 5.32)">
              <g id="Group_1897" data-name="Group 1897" clip-path="url(#clip-path)">
                <g id="Group_1896" data-name="Group 1896" transform="translate(1.569 4.378)">
                  <path id="Path_1763" data-name="Path 1763" d="M468.154,287.748c-.43-3.859-1.891-16.129-3.324-18.676-1.706-3.031-17.732-9.76-17.732-9.76l-6.87,4.361-6.894-4.323s-15.989,6.818-17.678,9.859c-1.419,2.555-2.811,14.832-3.22,18.694Z" transform="translate(-412.435 -223.866)" fill="#2a3157"/>
                  <path id="Path_1764" data-name="Path 1764" d="M444.577,261.444l-3.3-2.072-6.466,13.564,5.388,5.824-3.256,4.914,4.67,4.191,4.647-.013Z" transform="translate(-420.375 -223.887)" fill="#505e83"/>
                  <path id="Path_1765" data-name="Path 1765" d="M461.023,261.4l3.292-2.09,6.541,13.528-5.355,5.854,3.283,4.9-4.647,4.217-4.647.013Z" transform="translate(-429.135 -223.865)" fill="#505e83"/>
                  <path id="Path_1766" data-name="Path 1766" d="M458.349,238.094s-1.608,9.458-.01,16a58.366,58.366,0,0,1-6.031,4.484l-1.138.266a67.688,67.688,0,0,1-6.319-4.625c1.033-6.572.056-16.083.056-16.083" transform="translate(-423.939 -216.335)" fill="#dc6457"/>
                  <g id="Group_1895" data-name="Group 1895" transform="translate(13.686)">
                    <path id="Path_1767" data-name="Path 1767" d="M442.045,209.4s13.334-8.156,18.584-3.719-1.671,11.267-1.671,11.267,2.1.518,2.233,2.22-3.261,4.592-3.261,4.592l-21.082.059s-3.553-6.276-3.169-9.289,3.012.123,3.012.123,2.862-6.817,4.172-6.821S442.045,209.4,442.045,209.4Z" transform="translate(-433.65 -204.364)" fill="#5d1111"/>
                    <path id="Path_1768" data-name="Path 1768" d="M469.563,234.849a1.888,1.888,0,0,1,2.469-.5c1.386.885-.279,6.423-2.455,5.639S469.563,234.849,469.563,234.849Z" transform="translate(-446.056 -214.901)" fill="#ea5764"/>
                    <path id="Path_1769" data-name="Path 1769" d="M438.711,234.936a1.888,1.888,0,0,0-2.471-.487c-1.381.893.314,6.422,2.486,5.625S438.711,234.936,438.711,234.936Z" transform="translate(-434.392 -214.935)" fill="#ea5764"/>
                    <path id="Path_1770" data-name="Path 1770" d="M449.668,211.507s7.036.7,9.1,5.72,1.507,14.839-.537,17.717-4.773,5.12-8.582,5.37h.006c-3.811-.229-6.552-2.456-8.612-5.323s-2.673-12.681-.635-17.713,9.069-5.771,9.069-5.771Z" transform="translate(-435.604 -206.899)" fill="#f98879"/>
                    <path id="Path_1771" data-name="Path 1771" d="M454.458,242.652a3.185,3.185,0,0,0,2.273-.056,1.774,1.774,0,0,1-.788.892A1.111,1.111,0,0,1,454.458,242.652Z" transform="translate(-441.035 -217.933)" fill="#ea5764"/>
                    <path id="Path_1772" data-name="Path 1772" d="M460.613,218.612s-7.188,5-12.429,3.832-1.326-6.151-1.326-6.151l-6.272,4.863a5.09,5.09,0,0,1-1.817,5.767,26.619,26.619,0,0,1-.283-7.464,12.8,12.8,0,0,1,3.647-7.081c1.306-1.051,6.145-3.684,9.288-3.3S460.985,211.016,460.613,218.612Z" transform="translate(-435.305 -206.024)" fill="#5d1111"/>
                  </g>
                  <path id="Path_1773" data-name="Path 1773" d="M451.364,263.674l-6.894-4.323s-.239.1-.654.283l3.472,28.2,8.061-.022,3.325-28.315-.44-.187Z" transform="translate(-423.572 -223.866)" fill="#f9fbfc"/>
                  <path id="Path_1774" data-name="Path 1774" d="M453.617,270.5l-1.625,3.625,2.573,1.277,2.1-1.758-1.644-3.265Z" transform="translate(-426.474 -227.794)" fill="#ff5776"/>
                  <path id="Path_1775" data-name="Path 1775" d="M451.71,293.3l5.969-.017-2.228-18.562-1.924,1.056Z" transform="translate(-426.374 -229.335)" fill="#ff5776"/>
                </g>
              </g>
            </g>
          </g>
          <g id="Group_1900" data-name="Group 1900" transform="translate(10.157 94.583)">
            <path id="Path_1776" data-name="Path 1776" d="M419.53,336.155l.783,2.411a.3.3,0,0,0,.283.206h2.535a.3.3,0,0,1,.175.539l-2.051,1.49a.3.3,0,0,0-.108.333l.783,2.41a.3.3,0,0,1-.459.334l-2.05-1.49a.3.3,0,0,0-.35,0l-2.051,1.49a.3.3,0,0,1-.459-.334l.783-2.41a.3.3,0,0,0-.108-.333l-2.05-1.49a.3.3,0,0,1,.175-.539H417.9a.3.3,0,0,0,.284-.206l.783-2.411A.3.3,0,0,1,419.53,336.155Z" transform="translate(-415.063 -335.949)" fill="#fdb913"/>
            <path id="Path_1777" data-name="Path 1777" d="M437.562,336.155l.783,2.411a.3.3,0,0,0,.284.206h2.534a.3.3,0,0,1,.175.539l-2.051,1.49a.3.3,0,0,0-.108.333l.783,2.41a.3.3,0,0,1-.459.334l-2.051-1.49a.3.3,0,0,0-.35,0l-2.051,1.49a.3.3,0,0,1-.459-.334l.783-2.41a.3.3,0,0,0-.108-.333l-2.05-1.49a.3.3,0,0,1,.175-.539h2.535a.3.3,0,0,0,.284-.206l.783-2.411A.3.3,0,0,1,437.562,336.155Z" transform="translate(-421.463 -335.949)" fill="#fdb913"/>
            <path id="Path_1778" data-name="Path 1778" d="M455.593,336.155l.783,2.411a.3.3,0,0,0,.284.206h2.535a.3.3,0,0,1,.175.539l-2.05,1.49a.3.3,0,0,0-.108.333l.783,2.41a.3.3,0,0,1-.459.334l-2.051-1.49a.3.3,0,0,0-.35,0l-2.05,1.49a.3.3,0,0,1-.459-.334l.784-2.41a.3.3,0,0,0-.108-.333l-2.051-1.49a.3.3,0,0,1,.175-.539h2.535a.3.3,0,0,0,.283-.206l.783-2.411A.3.3,0,0,1,455.593,336.155Z" transform="translate(-427.862 -335.949)" fill="#fdb913"/>
            <path id="Path_1779" data-name="Path 1779" d="M473.624,336.155l.783,2.411a.3.3,0,0,0,.283.206h2.535a.3.3,0,0,1,.175.539l-2.051,1.49a.3.3,0,0,0-.108.333l.783,2.41a.3.3,0,0,1-.459.334l-2.05-1.49a.3.3,0,0,0-.351,0l-2.05,1.49a.3.3,0,0,1-.459-.334l.783-2.41a.3.3,0,0,0-.108-.333l-2.051-1.49a.3.3,0,0,1,.175-.539h2.535a.3.3,0,0,0,.283-.206l.784-2.411A.3.3,0,0,1,473.624,336.155Z" transform="translate(-434.261 -335.949)" fill="#fdb913"/>
            <path id="Path_1780" data-name="Path 1780" d="M491.656,336.155l.783,2.411a.3.3,0,0,0,.283.206h2.535a.3.3,0,0,1,.175.539l-2.051,1.49a.3.3,0,0,0-.108.333l.783,2.41a.3.3,0,0,1-.459.334l-2.05-1.49a.3.3,0,0,0-.35,0l-2.051,1.49a.3.3,0,0,1-.459-.334l.783-2.41a.3.3,0,0,0-.108-.333l-2.05-1.49a.3.3,0,0,1,.175-.539h2.535a.3.3,0,0,0,.284-.206l.783-2.411A.3.3,0,0,1,491.656,336.155Z" transform="translate(-440.661 -335.949)" fill="#fdb913"/>
          </g>
        </g>
        <g id="Group_1902" data-name="Group 1902" transform="translate(14.32 56.76)">
          <rect id="Rectangle_317" data-name="Rectangle 317" width="3.869" height="3.869" transform="translate(2.781)" fill="#2a3157"/>
          <rect id="Rectangle_318" data-name="Rectangle 318" width="1.995" height="1.995" transform="translate(10.61 8.373)" fill="#2a3157"/>
          <rect id="Rectangle_319" data-name="Rectangle 319" width="1.451" height="1.451" transform="translate(0 5.441)" fill="#2a3157"/>
        </g>
        <g id="Group_1903" data-name="Group 1903" transform="translate(101.891 79.885)">
          <rect id="Rectangle_320" data-name="Rectangle 320" width="48.97" height="30.47" transform="translate(3.99)" fill="#fff"/>
          <path id="Path_1781" data-name="Path 1781" d="M538.488,239.563h26.9V251.9" transform="translate(-516.422 -235.935)" fill="none" stroke="#2a3157" stroke-miterlimit="10" stroke-width="1.125"/>
          <path id="Path_1782" data-name="Path 1782" d="M504.282,247.784v-8.222h7.92" transform="translate(-504.282 -235.935)" fill="none" stroke="#2a3157" stroke-miterlimit="10" stroke-width="2.249"/>
          <path id="Path_1783" data-name="Path 1783" d="M515.1,277.084H504.282V259.431" transform="translate(-504.282 -242.987)" fill="none" stroke="#2a3157" stroke-miterlimit="10" stroke-width="1.125"/>
          <path id="Path_1784" data-name="Path 1784" d="M566.09,273.02v8.887H540.457" transform="translate(-517.12 -247.809)" fill="none" stroke="#2a3157" stroke-miterlimit="10" stroke-width="2.249"/>
          <path id="Path_1785" data-name="Path 1785" d="M560.887,233.939H578.54v15.477" transform="translate(-524.371 -233.939)" fill="none" stroke="#2a3157" stroke-linecap="round" stroke-linejoin="round" stroke-width="1.125" stroke-dasharray="0 5.623"/>
          <circle id="Ellipse_91" data-name="Ellipse 91" cx="3.265" cy="3.265" r="3.265" transform="translate(20.797 7.255)" fill="#fdb913"/>
          <rect id="Rectangle_321" data-name="Rectangle 321" width="33.856" height="1.209" transform="translate(8.464 16.202)" fill="#00ccbe"/>
          <rect id="Rectangle_322" data-name="Rectangle 322" width="15.235" height="1.209" transform="translate(17.774 20.072)" fill="#94a3c0"/>
          <rect id="Rectangle_323" data-name="Rectangle 323" width="20.223" height="1.209" transform="translate(15.28 23.941)" fill="#94a3c0"/>
        </g>
        <g id="Group_1905" data-name="Group 1905" transform="translate(83.59 121.076)">
          <rect id="Rectangle_324" data-name="Rectangle 324" width="4.958" height="6.61" transform="translate(38.035 39.184) rotate(137.655)" fill="#a6d0f4"/>
          <g id="Group_1904" data-name="Group 1904">
            <circle id="Ellipse_92" data-name="Ellipse 92" cx="15.791" cy="15.791" r="15.791" transform="translate(2.95 38.474) rotate(-87.314)" fill="#fff" opacity="0.53"/>
            <path id="Path_1786" data-name="Path 1786" d="M514.722,305.443a23.44,23.44,0,0,0-33.114-1.535" transform="translate(-477.934 -297.792)" fill="none" stroke="#4361c4" stroke-linecap="round" stroke-linejoin="round" stroke-width="0.854" stroke-dasharray="0 2.562"/>
            <path id="Path_1787" data-name="Path 1787" d="M480.99,336.53a19.463,19.463,0,1,0,1.275-27.5A19.463,19.463,0,0,0,480.99,336.53Zm2.715-2.473a15.791,15.791,0,1,1,22.308,1.034A15.791,15.791,0,0,1,483.7,334.057Z" transform="translate(-475.912 -299.979)" fill="#2a3157"/>
          </g>
          <rect id="Rectangle_325" data-name="Rectangle 325" width="10.328" height="39.524" transform="matrix(-0.739, 0.674, -0.674, -0.739, 64.997, 65.292)" fill="#2a3157"/>
          <rect id="Rectangle_326" data-name="Rectangle 326" width="10.328" height="2.479" transform="matrix(-0.739, 0.674, -0.674, -0.739, 66.666, 67.124)" fill="#ff5776"/>
        </g>
        <g id="Group_1908" data-name="Group 1908" transform="translate(111.565 35.631)">
          <g id="Group_1906" data-name="Group 1906">
            <path id="Path_1788" data-name="Path 1788" d="M530.884,184.443a7.5,7.5,0,1,1,14.993,0c0,.082-.01.161-.012.242h11.614c0-.081.006-.161.006-.242a19.1,19.1,0,0,0-38.208,0c0,.081,0,.161.006.242H530.9C530.894,184.6,530.884,184.525,530.884,184.443Z" transform="translate(-519.277 -165.339)" fill="#ff5776"/>
          </g>
          <g id="Group_1907" data-name="Group 1907" transform="translate(0.006 19.346)">
            <path id="Path_1789" data-name="Path 1789" d="M560.758,212.921,552,204.975a7.318,7.318,0,0,1-4.987.926v11.671c.4.025.8.043,1.209.043A19.021,19.021,0,0,0,560.758,212.921Z" transform="translate(-529.128 -198.752)" fill="#fdb913"/>
            <path id="Path_1790" data-name="Path 1790" d="M530.9,195.328H519.286a19.1,19.1,0,0,0,17.889,18.82V202.477A7.489,7.489,0,0,1,530.9,195.328Z" transform="translate(-519.286 -195.328)" fill="#48c2c9"/>
          </g>
        </g>
        <path id="Path_1791" data-name="Path 1791" d="M515.153,183.167A21.764,21.764,0,0,1,536.917,161.4" transform="translate(-406.249 -128.311)" fill="none" stroke="#2a3157" stroke-linecap="round" stroke-linejoin="round" stroke-width="0.843"/>
        <g id="Group_1910" data-name="Group 1910" transform="translate(131.394 123.051)">
          <rect id="Rectangle_327" data-name="Rectangle 327" width="29.019" height="2.176" fill="#232839"/>
          <g id="Group_1909" data-name="Group 1909" transform="translate(0 5.441)">
            <rect id="Rectangle_328" data-name="Rectangle 328" width="20.041" height="2.176" transform="translate(0 5.441)" fill="#c7d8f2"/>
            <rect id="Rectangle_329" data-name="Rectangle 329" width="10.338" height="2.176" fill="#c7d8f2"/>
            <rect id="Rectangle_330" data-name="Rectangle 330" width="3.083" height="2.176" transform="translate(11.698)" fill="#c7d8f2"/>
          </g>
        </g>
      </g>
      <line id="Line_1" data-name="Line 1" x2="17.895" y2="17.653" transform="translate(130.427 56.912)" fill="none" stroke="#2a3157" stroke-linecap="round" stroke-linejoin="round" stroke-width="0.843"/>
      <g id="Group_1912" data-name="Group 1912" transform="translate(11.932 102.859)">
        <line id="Line_2" data-name="Line 2" x2="3.869" y2="3.869" fill="none" stroke="#2a3157" stroke-linecap="round" stroke-linejoin="round" stroke-width="0.843"/>
        <line id="Line_3" data-name="Line 3" x2="3.869" y2="3.869" transform="translate(3.627 0.484)" fill="none" stroke="#2a3157" stroke-linecap="round" stroke-linejoin="round" stroke-width="0.843"/>
        <line id="Line_4" data-name="Line 4" x2="3.869" y2="3.869" transform="translate(7.013 0.484)" fill="none" stroke="#2a3157" stroke-linecap="round" stroke-linejoin="round" stroke-width="0.843"/>
      </g>
      <g id="Group_1913" data-name="Group 1913" transform="translate(137.198 146.387)">
        <line id="Line_5" data-name="Line 5" x2="3.869" y2="3.869" fill="none" stroke="#02b2ca" stroke-linecap="round" stroke-linejoin="round" stroke-width="0.843"/>
        <line id="Line_6" data-name="Line 6" x2="3.869" y2="3.869" transform="translate(3.627 0.484)" fill="none" stroke="#02b2ca" stroke-linecap="round" stroke-linejoin="round" stroke-width="0.843"/>
        <line id="Line_7" data-name="Line 7" x2="3.869" y2="3.869" transform="translate(7.013 0.484)" fill="none" stroke="#02b2ca" stroke-linecap="round" stroke-linejoin="round" stroke-width="0.843"/>
      </g>
      <g id="Group_1914" data-name="Group 1914" transform="translate(33.213 35.147)">
        <rect id="Rectangle_331" data-name="Rectangle 331" width="40.627" height="4.837" fill="none" stroke="#2a3157" stroke-miterlimit="10" stroke-width="1.125"/>
        <rect id="Rectangle_332" data-name="Rectangle 332" width="3.386" height="3.386" transform="translate(42.561 6.771)" fill="none" stroke="#2a3157" stroke-miterlimit="10" stroke-width="1.125"/>
      </g>
      <g id="Group_1915" data-name="Group 1915" transform="translate(139.465 155.365)">
        <rect id="Rectangle_333" data-name="Rectangle 333" width="3.869" height="3.869" transform="translate(9.824 10.368) rotate(180)" fill="#2a3157"/>
        <rect id="Rectangle_334" data-name="Rectangle 334" width="1.995" height="1.995" transform="translate(1.995 1.995) rotate(180)" fill="#2a3157"/>
        <rect id="Rectangle_335" data-name="Rectangle 335" width="1.451" height="1.451" transform="translate(12.605 4.927) rotate(180)" fill="#2a3157"/>
      </g>
    </g>
    <path id="Path_1792" data-name="Path 1792" d="M393.5,335v20.171h15.16" transform="translate(-16.739 -79.815)" fill="none" stroke="#2a3157" stroke-miterlimit="10" stroke-width="1.125"/>
    <line id="Line_8" data-name="Line 8" x2="7.096" transform="translate(397.082 275.505)" fill="none" stroke="#2a3157" stroke-miterlimit="10" stroke-width="1.125"/>
    <g id="Group_1921" data-name="Group 1921" transform="translate(440.303 280.021)">
      <g id="Group_1917" data-name="Group 1917" transform="translate(0 0)">
        <circle id="Ellipse_93" data-name="Ellipse 93" cx="0.645" cy="0.645" r="0.645" fill="#2a3157"/>
        <circle id="Ellipse_94" data-name="Ellipse 94" cx="0.645" cy="0.645" r="0.645" transform="translate(5.376)" fill="#2a3157"/>
        <circle id="Ellipse_95" data-name="Ellipse 95" cx="0.645" cy="0.645" r="0.645" transform="translate(10.752)" fill="#2a3157"/>
        <circle id="Ellipse_96" data-name="Ellipse 96" cx="0.645" cy="0.645" r="0.645" transform="translate(16.127)" fill="#2a3157"/>
      </g>
      <g id="Group_1918" data-name="Group 1918" transform="translate(0 4.623)">
        <circle id="Ellipse_97" data-name="Ellipse 97" cx="0.645" cy="0.645" r="0.645" fill="#2a3157"/>
        <circle id="Ellipse_98" data-name="Ellipse 98" cx="0.645" cy="0.645" r="0.645" transform="translate(5.376)" fill="#2a3157"/>
        <circle id="Ellipse_99" data-name="Ellipse 99" cx="0.645" cy="0.645" r="0.645" transform="translate(10.752)" fill="#2a3157"/>
        <circle id="Ellipse_100" data-name="Ellipse 100" cx="0.645" cy="0.645" r="0.645" transform="translate(16.127)" fill="#2a3157"/>
      </g>
      <g id="Group_1919" data-name="Group 1919" transform="translate(0 9.246)">
        <circle id="Ellipse_101" data-name="Ellipse 101" cx="0.645" cy="0.645" r="0.645" fill="#2a3157"/>
        <circle id="Ellipse_102" data-name="Ellipse 102" cx="0.645" cy="0.645" r="0.645" transform="translate(5.376)" fill="#2a3157"/>
        <circle id="Ellipse_103" data-name="Ellipse 103" cx="0.645" cy="0.645" r="0.645" transform="translate(10.752)" fill="#2a3157"/>
        <circle id="Ellipse_104" data-name="Ellipse 104" cx="0.645" cy="0.645" r="0.645" transform="translate(16.127)" fill="#2a3157"/>
      </g>
      <g id="Group_1920" data-name="Group 1920" transform="translate(0 13.87)">
        <circle id="Ellipse_105" data-name="Ellipse 105" cx="0.645" cy="0.645" r="0.645" fill="#2a3157"/>
        <circle id="Ellipse_106" data-name="Ellipse 106" cx="0.645" cy="0.645" r="0.645" transform="translate(5.376)" fill="#2a3157"/>
        <circle id="Ellipse_107" data-name="Ellipse 107" cx="0.645" cy="0.645" r="0.645" transform="translate(10.752)" fill="#2a3157"/>
        <circle id="Ellipse_108" data-name="Ellipse 108" cx="0.645" cy="0.645" r="0.645" transform="translate(16.127)" fill="#2a3157"/>
      </g>
    </g>
    <g id="Group_1922" data-name="Group 1922" transform="translate(358.779 166.887)">
      <rect id="Rectangle_336" data-name="Rectangle 336" width="3.441" height="3.441" transform="translate(2.473 0)" fill="#2a3157"/>
      <rect id="Rectangle_337" data-name="Rectangle 337" width="1.774" height="1.774" transform="translate(9.435 7.446)" fill="#2a3157"/>
      <rect id="Rectangle_338" data-name="Rectangle 338" width="1.29" height="1.29" transform="translate(0 4.838)" fill="#2a3157"/>
    </g>
    <g id="Group_1923" data-name="Group 1923" transform="translate(358.779 166.887)">
      <rect id="Rectangle_339" data-name="Rectangle 339" width="3.441" height="3.441" transform="translate(2.473 0)" fill="#2a3157"/>
      <rect id="Rectangle_340" data-name="Rectangle 340" width="1.774" height="1.774" transform="translate(9.435 7.446)" fill="#2a3157"/>
      <rect id="Rectangle_341" data-name="Rectangle 341" width="1.29" height="1.29" transform="translate(0 4.838)" fill="#2a3157"/>
    </g>
    <g id="Group_1924" data-name="Group 1924" transform="translate(424.546 125.297)">
      <path id="Path_1793" data-name="Path 1793" d="M498.441,158.631a6.227,6.227,0,0,1-4.19-1.892,13.51,13.51,0,1,0-3.191,2.393A10.552,10.552,0,0,0,498.441,158.631Z" transform="translate(-468.816 -133.655)" fill="#48c2c9"/>
      <path id="Path_1794" data-name="Path 1794" d="M494.941,160.631a6.227,6.227,0,0,1-4.19-1.892,13.511,13.511,0,1,0-3.191,2.393A10.552,10.552,0,0,0,494.941,160.631Z" transform="translate(-467.574 -134.365)" fill="none" stroke="#2a3157" stroke-miterlimit="10" stroke-width="1.125"/>
      <path id="Path_1795" data-name="Path 1795" d="M486.091,157.65l-5.644-5.645,2.254-2.254,3.389,3.39,7.641-7.641,2.254,2.254Z" transform="translate(-472.143 -137.859)" fill="#fff"/>
    </g>
  </g>
</svg>
