<svg xmlns="http://www.w3.org/2000/svg" xmlns:xlink="http://www.w3.org/1999/xlink" width="214.197" height="175.191" viewBox="0 0 214.197 175.191">
  <defs>
    <linearGradient id="linear-gradient" x1="-0.038" y1="0.5" x2="0.962" y2="0.5" gradientUnits="objectBoundingBox">
      <stop offset="0" stop-color="#ff9340"/>
      <stop offset="1" stop-color="#ffce45"/>
    </linearGradient>
    <linearGradient id="linear-gradient-2" x1="-0.038" y1="0.5" x2="0.962" y2="0.5" gradientUnits="objectBoundingBox">
      <stop offset="0" stop-color="#c97332"/>
      <stop offset="1" stop-color="#ffce45"/>
    </linearGradient>
  </defs>
  <g id="_3" data-name="3" transform="translate(-246.748 -135.671)">
    <g id="Group_1927" data-name="Group 1927" transform="translate(261.988 197.723)">
      <path id="Path_1796" data-name="Path 1796" d="M420.345,703.556c2.851,6.222,4.453,12.11,2.354,14.736a3.419,3.419,0,0,1-.406.427c-1.617,1.425-4.8,1.457-10.167-.664-14.291-5.645-14.969-15.387-17.859-24.9-2.849-9.395-12.8-7.807-13.056-7.765C404.4,677.311,415.508,693.008,420.345,703.556Z" transform="translate(-381.21 -683.161)" fill="#48c2c9"/>
      <g id="Group_1926" data-name="Group 1926" transform="translate(20.321 8.671)">
        <path id="Path_1797" data-name="Path 1797" d="M581.675,786.127a3.412,3.412,0,0,1-.406.427c-2.684-1.617-7.824-5.045-10.248-8.894a57.149,57.149,0,0,1-3.123-6.02c-1.923-4.087-3.915-8.313-7.391-11.554l.388-.418c3.555,3.318,5.569,7.594,7.517,11.731a55.627,55.627,0,0,0,3.091,5.958C573.865,781.11,579.058,784.552,581.675,786.127Z" transform="translate(-560.507 -759.667)" fill="#48c2c9"/>
      </g>
    </g>
    <g id="Group_1929" data-name="Group 1929" transform="translate(281.513 184.446)">
      <path id="Path_1798" data-name="Path 1798" d="M570.612,602.23c-.168.414-.277.648-.289.675-.044-.228-.087-.455-.13-.674-1.906-9.768-4.456-10.789-12.1-19.333-7.817-8.739-3.322-16.881-3.322-16.881C580.961,573.583,572.392,597.863,570.612,602.23Z" transform="translate(-553.485 -566.016)" fill="#48c2c9"/>
      <g id="Group_1928" data-name="Group 1928" transform="translate(7.653 10.202)">
        <path id="Path_1799" data-name="Path 1799" d="M630.484,682.045c-.168.414-.277.648-.289.675-.044-.229-.087-.455-.13-.674.848-8.445-4.246-18.354-5.847-20.132a18.652,18.652,0,0,1-3.062-5.327c-.065-.158-.126-.309-.146-.344l.369-.209c.033.057.075.162.169.394a18.217,18.217,0,0,0,2.986,5.2C626.563,663.883,631.262,673.839,630.484,682.045Z" transform="translate(-621.01 -656.033)" fill="#48c2c9"/>
      </g>
    </g>
    <g id="Group_1936" data-name="Group 1936" transform="translate(437.73 165.437)">
      <g id="Group_1934" data-name="Group 1934" transform="translate(6.078 8.386)">
        <g id="Group_1933" data-name="Group 1933">
          <g id="Group_1932" data-name="Group 1932">
            <g id="Group_1931" data-name="Group 1931">
              <g id="Group_1930" data-name="Group 1930">
                <path id="Path_1800" data-name="Path 1800" d="M1988.8,478.974l-3.228-5.285a.919.919,0,1,1,1.569-.959l2.282,3.737,6.068-3.591a.919.919,0,1,1,.937,1.582Z" transform="translate(-1985.436 -472.29)" fill="#f0c141"/>
              </g>
            </g>
          </g>
        </g>
      </g>
      <g id="Group_1935" data-name="Group 1935" transform="translate(0 0)">
        <path id="Path_1801" data-name="Path 1801" d="M1943.417,421.518a11.608,11.608,0,1,1,11.607-11.608A11.621,11.621,0,0,1,1943.417,421.518Zm0-21.557a9.949,9.949,0,1,0,9.949,9.949A9.961,9.961,0,0,0,1943.417,399.961Z" transform="translate(-1931.809 -398.303)" fill="#f0c141"/>
      </g>
    </g>
    <g id="Group_1943" data-name="Group 1943" transform="translate(405.389 154.122)">
      <g id="Group_1941" data-name="Group 1941" transform="translate(3.756 5.182)">
        <g id="Group_1940" data-name="Group 1940">
          <g id="Group_1939" data-name="Group 1939">
            <g id="Group_1938" data-name="Group 1938">
              <g id="Group_1937" data-name="Group 1937">
                <path id="Path_1802" data-name="Path 1802" d="M1681.677,348.316l-1.995-3.266a.568.568,0,1,1,.97-.592l1.41,2.309,3.75-2.219a.568.568,0,1,1,.579.978Z" transform="translate(-1679.599 -344.186)" fill="#f0c141"/>
              </g>
            </g>
          </g>
        </g>
      </g>
      <g id="Group_1942" data-name="Group 1942" transform="translate(0 0)">
        <path id="Path_1803" data-name="Path 1803" d="M1653.631,312.809a7.173,7.173,0,1,1,7.173-7.173A7.181,7.181,0,0,1,1653.631,312.809Zm0-13.322a6.148,6.148,0,1,0,6.149,6.148A6.155,6.155,0,0,0,1653.631,299.488Z" transform="translate(-1646.458 -298.463)" fill="#f0c141"/>
      </g>
    </g>
    <g id="Group_1950" data-name="Group 1950" transform="translate(365.387 137.095)">
      <g id="Group_1948" data-name="Group 1948" transform="translate(5.762 7.949)">
        <g id="Group_1947" data-name="Group 1947">
          <g id="Group_1946" data-name="Group 1946">
            <g id="Group_1945" data-name="Group 1945">
              <g id="Group_1944" data-name="Group 1944">
                <path id="Path_1804" data-name="Path 1804" d="M1347.539,224.709l-3.06-5.009a.872.872,0,1,1,1.488-.909l2.164,3.542,5.752-3.4a.872.872,0,0,1,.888,1.5Z" transform="translate(-1344.352 -218.373)" fill="#f0c141"/>
              </g>
            </g>
          </g>
        </g>
      </g>
      <g id="Group_1949" data-name="Group 1949" transform="translate(0 0)">
        <path id="Path_1805" data-name="Path 1805" d="M1304.518,170.241a11,11,0,1,1,11-11A11.016,11.016,0,0,1,1304.518,170.241Zm0-20.435a9.432,9.432,0,1,0,9.432,9.432A9.442,9.442,0,0,0,1304.518,149.806Z" transform="translate(-1293.514 -148.234)" fill="#f0c141"/>
      </g>
    </g>
    <g id="Group_1957" data-name="Group 1957" transform="translate(336.059 153.949)">
      <g id="Group_1955" data-name="Group 1955" transform="translate(3.807 5.253)">
        <g id="Group_1954" data-name="Group 1954">
          <g id="Group_1953" data-name="Group 1953">
            <g id="Group_1952" data-name="Group 1952">
              <g id="Group_1951" data-name="Group 1951">
                <path id="Path_1806" data-name="Path 1806" d="M1070.451,347.471l-2.022-3.31a.576.576,0,1,1,.983-.6l1.43,2.341,3.8-2.25a.576.576,0,1,1,.587.991Z" transform="translate(-1068.345 -343.285)" fill="#f0c141"/>
              </g>
            </g>
          </g>
        </g>
      </g>
      <g id="Group_1956" data-name="Group 1956" transform="translate(0 0)">
        <path id="Path_1807" data-name="Path 1807" d="M1042.024,311.481a7.271,7.271,0,1,1,7.271-7.271A7.279,7.279,0,0,1,1042.024,311.481Zm0-13.5a6.232,6.232,0,1,0,6.232,6.232A6.239,6.239,0,0,0,1042.024,297.978Z" transform="translate(-1034.753 -296.939)" fill="#f0c141"/>
      </g>
    </g>
    <g id="Group_1964" data-name="Group 1964" transform="translate(306.166 135.671)">
      <g id="Group_1962" data-name="Group 1962" transform="translate(4.766 6.576)">
        <g id="Group_1961" data-name="Group 1961">
          <g id="Group_1960" data-name="Group 1960">
            <g id="Group_1959" data-name="Group 1959">
              <g id="Group_1958" data-name="Group 1958">
                <path id="Path_1808" data-name="Path 1808" d="M815.687,198.929l-2.531-4.144a.721.721,0,0,1,1.23-.752l1.79,2.93,4.758-2.816a.721.721,0,1,1,.734,1.241Z" transform="translate(-813.05 -193.688)" fill="#f0c141"/>
              </g>
            </g>
          </g>
        </g>
      </g>
      <g id="Group_1963" data-name="Group 1963" transform="translate(0 0)">
        <path id="Path_1809" data-name="Path 1809" d="M780.1,153.875a9.1,9.1,0,1,1,9.1-9.1A9.112,9.112,0,0,1,780.1,153.875Zm0-16.9a7.8,7.8,0,1,0,7.8,7.8A7.811,7.811,0,0,0,780.1,136.971Z" transform="translate(-770.999 -135.671)" fill="#f0c141"/>
      </g>
    </g>
    <g id="Group_1971" data-name="Group 1971" transform="translate(273.121 154.988)">
      <g id="Group_1969" data-name="Group 1969" transform="translate(5.284 7.29)">
        <g id="Group_1968" data-name="Group 1968">
          <g id="Group_1967" data-name="Group 1967">
            <g id="Group_1966" data-name="Group 1966">
              <g id="Group_1965" data-name="Group 1965">
                <path id="Path_1810" data-name="Path 1810" d="M528.982,376.235l-2.806-4.594a.8.8,0,1,1,1.364-.833l1.984,3.249,5.275-3.122a.8.8,0,1,1,.814,1.376Z" transform="translate(-526.058 -370.425)" fill="#f0c141"/>
              </g>
            </g>
          </g>
        </g>
      </g>
      <g id="Group_1970" data-name="Group 1970" transform="translate(0 0)">
        <path id="Path_1811" data-name="Path 1811" d="M489.528,326.286A10.091,10.091,0,1,1,499.619,316.2,10.1,10.1,0,0,1,489.528,326.286Zm0-18.741a8.649,8.649,0,1,0,8.649,8.65A8.659,8.659,0,0,0,489.528,307.546Z" transform="translate(-479.437 -306.104)" fill="#f0c141"/>
      </g>
    </g>
    <g id="Group_1978" data-name="Group 1978" transform="translate(430.607 141.749)">
      <g id="Group_1976" data-name="Group 1976" transform="translate(3.005 4.145)">
        <g id="Group_1975" data-name="Group 1975">
          <g id="Group_1974" data-name="Group 1974">
            <g id="Group_1973" data-name="Group 1973">
              <g id="Group_1972" data-name="Group 1972">
                <path id="Path_1812" data-name="Path 1812" d="M1897.13,229.178l-1.6-2.612a.454.454,0,0,1,.776-.474l1.129,1.847,3-1.775a.455.455,0,0,1,.463.782Z" transform="translate(-1895.468 -225.874)" fill="#f0c141"/>
              </g>
            </g>
          </g>
        </g>
      </g>
      <g id="Group_1977" data-name="Group 1977" transform="translate(0 0)">
        <path id="Path_1813" data-name="Path 1813" d="M1874.7,200.775a5.738,5.738,0,1,1,5.738-5.738A5.745,5.745,0,0,1,1874.7,200.775Zm0-10.656a4.918,4.918,0,1,0,4.918,4.918A4.924,4.924,0,0,0,1874.7,190.119Z" transform="translate(-1868.958 -189.299)" fill="#f0c141"/>
      </g>
    </g>
    <g id="Group_1979" data-name="Group 1979" transform="translate(354.976 260.337)">
      <rect id="Rectangle_342" data-name="Rectangle 342" width="15.826" height="48.069" transform="translate(15.826 48.069) rotate(180)" fill="#8f8f8f"/>
    </g>
    <g id="Group_1980" data-name="Group 1980" transform="translate(294.56 187.088)">
      <path id="Rectangle_343" data-name="Rectangle 343" d="M48.2,0H88.456a48.2,48.2,0,0,1,48.2,48.2v0a48.2,48.2,0,0,1-48.2,48.2H48.2A48.2,48.2,0,0,1,0,48.2v0A48.2,48.2,0,0,1,48.2,0Z" transform="translate(136.658 96.405) rotate(180)" fill="#f0f0f0"/>
    </g>
    <g id="Group_1981" data-name="Group 1981" transform="translate(299.912 176.827)">
      <rect id="Rectangle_344" data-name="Rectangle 344" width="125.954" height="91.558" transform="translate(125.954 91.558) rotate(180)" fill="#fff"/>
    </g>
    <g id="Group_1982" data-name="Group 1982" transform="translate(299.912 176.827)">
      <rect id="Rectangle_345" data-name="Rectangle 345" width="125.954" height="11.059" transform="translate(125.954 11.059) rotate(180)" fill="#48c2c9"/>
    </g>
    <g id="Group_1983" data-name="Group 1983" transform="translate(410.539 270.89)">
      <path id="Path_1814" data-name="Path 1814" d="M1691.9,1333.138c0,2.435,2.32,4.408,5.183,4.408s5.183-1.974,5.183-4.408-2.321-4.408-5.183-4.408S1691.9,1330.7,1691.9,1333.138Z" transform="translate(-1691.895 -1328.73)" fill="#ccc"/>
    </g>
    <rect id="Rectangle_346" data-name="Rectangle 346" width="71.199" height="3.628" transform="translate(327.29 306.592)" fill="#ccc"/>
    <rect id="Rectangle_347" data-name="Rectangle 347" width="17.965" height="4.179" rx="2.089" transform="translate(305.173 180.267)" fill="#f5f7ff"/>
    <rect id="Rectangle_348" data-name="Rectangle 348" width="65.945" height="2.267" transform="translate(309.14 226.417)" fill="#e6e6e6"/>
    <rect id="Rectangle_349" data-name="Rectangle 349" width="48.911" height="2.267" transform="translate(309.14 230.499)" fill="#e6e6e6"/>
    <rect id="Rectangle_350" data-name="Rectangle 350" width="31.013" height="2.267" transform="translate(309.14 239.37)" fill="#e6e6e6"/>
    <rect id="Rectangle_351" data-name="Rectangle 351" width="55.718" height="2.267" transform="translate(309.14 243.453)" fill="#e6e6e6"/>
    <rect id="Rectangle_352" data-name="Rectangle 352" width="52.196" height="2.267" transform="translate(309.14 253.208)" fill="#e6e6e6"/>
    <rect id="Rectangle_353" data-name="Rectangle 353" width="63.736" height="2.267" transform="translate(309.14 257.29)" fill="#e6e6e6"/>
    <rect id="Rectangle_354" data-name="Rectangle 354" width="1.657" height="6.349" transform="translate(305.922 226.417)" fill="#48c2c9"/>
    <rect id="Rectangle_355" data-name="Rectangle 355" width="1.657" height="6.349" transform="translate(305.922 239.37)" fill="#48c2c9"/>
    <rect id="Rectangle_356" data-name="Rectangle 356" width="1.657" height="6.349" transform="translate(305.922 253.208)" fill="#48c2c9"/>
    <g id="Group_1988" data-name="Group 1988" transform="translate(389.804 253.333)">
      <g id="Group_1984" data-name="Group 1984" transform="translate(0 0)">
        <path id="Rectangle_357" data-name="Rectangle 357" d="M4.541,0h0A4.541,4.541,0,0,1,9.083,4.541v0A4.541,4.541,0,0,1,4.541,9.083h0A4.541,4.541,0,0,1,0,4.541v0A4.541,4.541,0,0,1,4.541,0Z" fill="#48c2c9"/>
      </g>
      <g id="Group_1987" data-name="Group 1987" transform="translate(1.802 2.541)">
        <g id="Group_1986" data-name="Group 1986">
          <g id="Group_1985" data-name="Group 1985">
            <path id="Path_1815" data-name="Path 1815" d="M1527.3,1200.241l-2.3-2a.452.452,0,0,1,.594-.682l1.624,1.416,2.316-2.583a.452.452,0,0,1,.673.6Z" transform="translate(-1524.853 -1196.24)" fill="#f3f3f3"/>
          </g>
        </g>
      </g>
    </g>
    <g id="Group_1991" data-name="Group 1991" transform="translate(389.8 239.491)">
      <g id="Group_1990" data-name="Group 1990" transform="translate(0 0)">
        <g id="Group_1989" data-name="Group 1989">
          <path id="Path_1816" data-name="Path 1816" d="M1515.934,1060.784h-4.952a2.072,2.072,0,0,1-2.07-2.07v-4.951a2.072,2.072,0,0,1,2.07-2.07h4.952a2.072,2.072,0,0,1,2.069,2.07v4.951A2.072,2.072,0,0,1,1515.934,1060.784Zm-4.952-8.516a1.5,1.5,0,0,0-1.493,1.494v4.951a1.5,1.5,0,0,0,1.493,1.494h4.952a1.5,1.5,0,0,0,1.493-1.494v-4.951a1.5,1.5,0,0,0-1.493-1.494Z" transform="translate(-1508.912 -1051.692)" fill="#48c2c9"/>
        </g>
      </g>
    </g>
    <g id="Group_1994" data-name="Group 1994" transform="translate(403.475 253.329)">
      <g id="Group_1993" data-name="Group 1993" transform="translate(0 0)">
        <g id="Group_1992" data-name="Group 1992">
          <path id="Path_1817" data-name="Path 1817" d="M1636.59,1182.875h-4.952a2.073,2.073,0,0,1-2.07-2.07v-4.951a2.073,2.073,0,0,1,2.07-2.07h4.952a2.072,2.072,0,0,1,2.07,2.07v4.951A2.072,2.072,0,0,1,1636.59,1182.875Zm-4.952-8.515a1.5,1.5,0,0,0-1.494,1.494v4.951a1.5,1.5,0,0,0,1.494,1.494h4.952a1.5,1.5,0,0,0,1.493-1.494v-4.951a1.5,1.5,0,0,0-1.493-1.494Z" transform="translate(-1629.568 -1173.783)" fill="#48c2c9"/>
        </g>
      </g>
    </g>
    <g id="Group_1999" data-name="Group 1999" transform="translate(403.479 239.496)">
      <g id="Group_1995" data-name="Group 1995">
        <path id="Rectangle_358" data-name="Rectangle 358" d="M4.541,0h0A4.541,4.541,0,0,1,9.083,4.541v0A4.541,4.541,0,0,1,4.541,9.083h0A4.541,4.541,0,0,1,0,4.541v0A4.541,4.541,0,0,1,4.541,0Z" fill="#48c2c9"/>
      </g>
      <g id="Group_1998" data-name="Group 1998" transform="translate(1.802 2.541)">
        <g id="Group_1997" data-name="Group 1997">
          <g id="Group_1996" data-name="Group 1996">
            <path id="Path_1818" data-name="Path 1818" d="M1647.964,1078.151l-2.3-2a.452.452,0,0,1,.594-.682l1.624,1.416,2.316-2.583a.452.452,0,1,1,.673.6Z" transform="translate(-1645.513 -1074.15)" fill="#f3f3f3"/>
          </g>
        </g>
      </g>
    </g>
    <g id="Group_2002" data-name="Group 2002" transform="translate(403.475 225.654)">
      <g id="Group_2001" data-name="Group 2001" transform="translate(0 0)">
        <g id="Group_2000" data-name="Group 2000">
          <path id="Path_1819" data-name="Path 1819" d="M1636.59,938.7h-4.952a2.072,2.072,0,0,1-2.07-2.07v-4.952a2.073,2.073,0,0,1,2.07-2.07h4.952a2.072,2.072,0,0,1,2.07,2.07v4.952A2.072,2.072,0,0,1,1636.59,938.7Zm-4.952-8.515a1.5,1.5,0,0,0-1.494,1.494v4.952a1.5,1.5,0,0,0,1.494,1.493h4.952a1.5,1.5,0,0,0,1.493-1.493v-4.952a1.5,1.5,0,0,0-1.493-1.494Z" transform="translate(-1629.568 -929.604)" fill="#48c2c9"/>
        </g>
      </g>
    </g>
    <g id="Group_2007" data-name="Group 2007" transform="translate(389.804 225.658)">
      <g id="Group_2003" data-name="Group 2003" transform="translate(0 0)">
        <path id="Rectangle_359" data-name="Rectangle 359" d="M4.541,0h0A4.541,4.541,0,0,1,9.083,4.541v0A4.541,4.541,0,0,1,4.542,9.083h0A4.541,4.541,0,0,1,0,4.541v0A4.541,4.541,0,0,1,4.541,0Z" fill="#48c2c9"/>
      </g>
      <g id="Group_2006" data-name="Group 2006" transform="translate(1.802 2.541)">
        <g id="Group_2005" data-name="Group 2005">
          <g id="Group_2004" data-name="Group 2004">
            <path id="Path_1820" data-name="Path 1820" d="M1527.3,956.063l-2.3-2a.452.452,0,1,1,.594-.682l1.624,1.416,2.316-2.583a.452.452,0,1,1,.673.6Z" transform="translate(-1524.853 -952.062)" fill="#f3f3f3"/>
          </g>
        </g>
      </g>
    </g>
    <g id="Group_2012" data-name="Group 2012" transform="translate(246.748 238.014)">
      <path id="Path_1821" data-name="Path 1821" d="M409.4,1038.765c-2.144-1.026-4.278,5.8-4.278,5.8-3.644,4.816-8.738-1.591-8.24,5.608.871,12.6-14.5,3.961-7.408,17.113s-6.262,7.437-1.855,18.041-1.3,23.253,5.326,18.055c0,0,5.839-12.8,11.86-16.765s-3.607-8.662-1.723-14.042c2.736-7.815,9.329-7.508,4.575-15.906S416.689,1042.251,409.4,1038.765Z" transform="translate(-370.843 -1038.66)" fill="#48c2c9"/>
      <g id="Group_2008" data-name="Group 2008" transform="translate(19.729 13.355)">
        <path id="Path_1822" data-name="Path 1822" d="M421.091,1203.043c2.874-2.021,6.238-16.108,6.439-24.5a11.818,11.818,0,0,1,2.494-7.668,6.482,6.482,0,0,0,1.458-5.809c-1.03-5.723,1.678-8.193,1.706-8.217l-.314-.357c-.12.106-2.941,2.653-1.86,8.659a6.025,6.025,0,0,1-1.378,5.449,12.366,12.366,0,0,0-2.582,7.932c-.215,9-3.654,22.3-6.237,24.121Z" transform="translate(-420.818 -1156.494)" fill="#fff"/>
      </g>
      <g id="Group_2009" data-name="Group 2009" transform="translate(0 32.732)">
        <path id="Path_1823" data-name="Path 1823" d="M260.726,1350.523c-.271-.615-.552-1.251-.87-1.922-1.642-3.466-3.1-4.037-5.506-4.983-.589-.231-1.256-.493-1.989-.822-3.452-1.551-2.783-3.838-2.194-5.854.082-.282.165-.563.236-.842.3-1.186-.28-1.781-1.163-2.682a10.069,10.069,0,0,1-2.1-2.819c-.689-1.44-.338-2.213.078-2.607.876-.83,2.895-.677,4.8.364h0a6.939,6.939,0,0,1,1.6,1.374,7.908,7.908,0,0,0,6.553,2.874c2.181.01,3.376.311,3.995,1.007.7.789.57,1.97.387,3.605-.063.565-.135,1.206-.179,1.9a11.077,11.077,0,0,0,2.2,7.141c1.457,1.735,3.252,5.335,2.477,7.551a2.652,2.652,0,0,1-2.159,1.737,6.135,6.135,0,0,1-1.215.132C263,1355.676,262.02,1353.457,260.726,1350.523Zm-8.936-21.75c-1.7-.929-3.528-1.117-4.246-.436-.546.518-.288,1.4.024,2.057a9.531,9.531,0,0,0,2.013,2.691c.924.943,1.653,1.687,1.283,3.133-.073.283-.156.57-.24.857-.587,2.009-1.142,3.906,1.933,5.287.722.324,1.384.584,1.968.813,2.432.955,4.039,1.585,5.762,5.221.321.677.6,1.316.875,1.933,1.487,3.37,2.385,5.4,5.635,4.747a2.207,2.207,0,0,0,1.8-1.428c.683-1.953-.951-5.371-2.393-7.089a11.353,11.353,0,0,1-2.313-7.476c.044-.7.117-1.351.181-1.922.169-1.513.292-2.605-.269-3.236-.513-.577-1.636-.838-3.642-.847a8.317,8.317,0,0,1-6.895-3.021,6.512,6.512,0,0,0-1.48-1.285Z" transform="translate(-246.748 -1327.459)" fill="#48c2c9"/>
      </g>
      <g id="Group_2010" data-name="Group 2010" transform="translate(3.687 36.528)">
        <path id="Path_1824" data-name="Path 1824" d="M295.682,1388.117l.475-.025c-.023-.446-.622-10.958-4.843-14.035a16.892,16.892,0,0,1-6.786-9.437c-.819-2.869-4.99-3.636-5.167-3.667l-.083.468c.04.007,4.055.747,4.792,3.33a17.345,17.345,0,0,0,6.963,9.691C295.073,1377.385,295.676,1388.01,295.682,1388.117Z" transform="translate(-279.278 -1360.952)" fill="#48c2c9"/>
      </g>
      <path id="Path_1825" data-name="Path 1825" d="M311.981,1132.247c3-1.029,2.377,4.754,3.644,9.032s14.1,1.866,8.715,12.58,6.813,3.583,3.169,12.932-.317,19.348-4.278,16.8-2.225-14.316-6.345-15.715-4.792-3.03-.713-6.833-10.689-7.578-7.044-15.257S308.515,1133.436,311.981,1132.247Z" transform="translate(-301.541 -1121.534)" fill="#48c2c9"/>
      <g id="Group_2011" data-name="Group 2011" transform="translate(11.949 24.124)">
        <path id="Path_1826" data-name="Path 1826" d="M360.077,1289c.377-1.6,3.6-15.685.593-17.387-2.65-1.5-2.584-7.337-2.171-12.848.366-4.879-5.9-7.159-6.167-7.253l-.159.448c.062.022,6.19,2.254,5.851,6.77-.424,5.66-.47,11.666,2.411,13.3,2.283,1.293.181,12.612-.821,16.865Z" transform="translate(-352.173 -1251.513)" fill="#fff"/>
      </g>
      <path id="Path_1827" data-name="Path 1827" d="M379.875,1538.029l-4.283,16.25H366.02l-4.283-16.25Z" transform="translate(-348.704 -1481.432)" fill="url(#linear-gradient)"/>
      <path id="Path_1828" data-name="Path 1828" d="M379.875,1538.029s-9.43,1.771-9.43,16.25h-4.426l-4.283-16.25Z" transform="translate(-348.703 -1481.431)" fill="url(#linear-gradient-2)"/>
    </g>
    <g id="Group_2013" data-name="Group 2013" transform="translate(387.659 192.58)">
      <path id="Path_1829" data-name="Path 1829" d="M1516.787,651.172a13.382,13.382,0,1,1-13.382-13.382A13.33,13.33,0,0,1,1516.787,651.172Z" transform="translate(-1490.022 -637.789)" fill="#eef0f7"/>
      <path id="Path_1830" data-name="Path 1830" d="M1534.824,704.276a1.651,1.651,0,0,0-.225-.132l-.012-.008h0a28.364,28.364,0,0,0-5.7-2.155h0c-.616-.188-1.081-.31-1.242-.351l-.288-.458a14.218,14.218,0,0,1-.023-1.611,5.7,5.7,0,0,0,1.152-2.775c.077.058.138-.069.138-.069-.043-.076.646-1.758.522-2.137-.071-.215-.214-.188-.325-.125.017-.1.034-.2.051-.308,0,0,.273-2.578-1.032-4.014a1.443,1.443,0,0,0-.615-.162,5.744,5.744,0,0,0-4.14-.018,4.166,4.166,0,0,0-1.2,3.479c.023.212.047.426.072.633a.042.042,0,0,0,0,.006c.01.083.02.164.03.244-.109-.068-.252-.1-.331.111a6.4,6.4,0,0,0,.434,2.156s.11.172.2.094c0,0,0,0,0,0a6.168,6.168,0,0,0,1.13,2.946c-.033.6-.12,1.3-.18,1.752l-.518.541h0l-.082.028v0c-5.858,1.563-7.513,2.651-7.513,2.651a1.547,1.547,0,0,0-.449.694,13.383,13.383,0,0,0,20.836.427A5.51,5.51,0,0,0,1534.824,704.276Z" transform="translate(-1511.87 -683.718)" fill="#8f8f8f"/>
    </g>
    <g id="Group_2021" data-name="Group 2021" transform="translate(306.789 192.63)">
      <g id="Group_2014" data-name="Group 2014" transform="translate(0 2.787)">
        <rect id="Rectangle_360" data-name="Rectangle 360" width="0.24" height="22.614" fill="#e0e0e0"/>
      </g>
      <g id="Group_2015" data-name="Group 2015" transform="translate(17.04 2.787)">
        <rect id="Rectangle_361" data-name="Rectangle 361" width="0.24" height="22.614" fill="#e0e0e0"/>
      </g>
      <g id="Group_2016" data-name="Group 2016" transform="translate(34.079 2.787)">
        <rect id="Rectangle_362" data-name="Rectangle 362" width="0.24" height="22.614" fill="#e0e0e0"/>
      </g>
      <g id="Group_2017" data-name="Group 2017" transform="translate(51.119 2.787)">
        <rect id="Rectangle_363" data-name="Rectangle 363" width="0.24" height="22.614" fill="#e0e0e0"/>
      </g>
      <g id="Group_2018" data-name="Group 2018" transform="translate(68.159 2.787)">
        <rect id="Rectangle_364" data-name="Rectangle 364" width="0.24" height="22.614" fill="#e0e0e0"/>
      </g>
      <rect id="Rectangle_365" data-name="Rectangle 365" width="2.711" height="0.786" transform="translate(0.12 26.74)" fill="#b8b8b8"/>
      <rect id="Rectangle_366" data-name="Rectangle 366" width="4.081" height="0.589" transform="translate(0.12 0)" fill="#d9d9d9"/>
      <rect id="Rectangle_367" data-name="Rectangle 367" width="5.789" height="0.589" transform="translate(0.12 1.09)" fill="#d9d9d9"/>
      <rect id="Rectangle_368" data-name="Rectangle 368" width="4.792" height="0.589" transform="translate(16.976 0)" fill="#d9d9d9"/>
      <rect id="Rectangle_369" data-name="Rectangle 369" width="3.064" height="0.589" transform="translate(16.976 1.09)" fill="#d9d9d9"/>
      <rect id="Rectangle_370" data-name="Rectangle 370" width="2.969" height="0.589" transform="translate(34.319 0)" fill="#d9d9d9"/>
      <rect id="Rectangle_371" data-name="Rectangle 371" width="3.461" height="0.589" transform="translate(34.319 1.09)" fill="#d9d9d9"/>
      <rect id="Rectangle_372" data-name="Rectangle 372" width="4.325" height="0.589" transform="translate(51.359 0)" fill="#d9d9d9"/>
      <rect id="Rectangle_373" data-name="Rectangle 373" width="3.461" height="0.589" transform="translate(51.359 1.09)" fill="#d9d9d9"/>
      <rect id="Rectangle_374" data-name="Rectangle 374" width="2.583" height="0.589" transform="translate(68.279 0)" fill="#d9d9d9"/>
      <rect id="Rectangle_375" data-name="Rectangle 375" width="2.067" height="0.589" transform="translate(68.279 1.09)" fill="#d9d9d9"/>
      <rect id="Rectangle_376" data-name="Rectangle 376" width="2.711" height="0.786" transform="translate(17.16 26.74)" fill="#b8b8b8"/>
      <rect id="Rectangle_377" data-name="Rectangle 377" width="2.711" height="0.786" transform="translate(34.319 26.74)" fill="#b8b8b8"/>
      <rect id="Rectangle_378" data-name="Rectangle 378" width="2.711" height="0.786" transform="translate(51.359 26.74)" fill="#b8b8b8"/>
      <rect id="Rectangle_379" data-name="Rectangle 379" width="2.711" height="0.786" transform="translate(68.398 26.74)" fill="#b8b8b8"/>
      <g id="Group_2019" data-name="Group 2019" transform="translate(0.12 8.65)">
        <path id="Path_1831" data-name="Path 1831" d="M839.806,724.581c-5.315,0-9.935-2.067-14.751-4.221-5.946-2.66-12.095-5.409-20.287-4.656a25.486,25.486,0,0,0-11.411,4.087c-2.623,1.531-5.1,2.877-8.462,2.992-5.428.186-7.311-1.9-7.342-2.023v-1.336h0c.007.023,1.192,2.36,7.337,2.332,3.026-.014,5.259-1.317,7.846-2.826a26.522,26.522,0,0,1,11.917-4.248c8.521-.783,14.82,2.034,20.911,4.759,6.374,2.851,12.457,5.524,20.148,3.2v1.1A19.155,19.155,0,0,1,839.806,724.581Z" transform="translate(-777.552 -714.549)" fill="#48c2c9"/>
      </g>
      <g id="Group_2020" data-name="Group 2020" transform="translate(0.12 5.588)">
        <path id="Path_1832" data-name="Path 1832" d="M807.9,700.373c-3.923,0-7.034-2.373-10.081-4.7a25.818,25.818,0,0,0-7.472-4.45c-8.442-2.711-12.761,2.239-12.8,2.283V692a7.718,7.718,0,0,1,3.045-1.81c2.029-.782,5.434-1.406,10.13.063,2.975.931,5.446,2.815,7.835,4.637,4.847,3.7,9.033,6.888,16.3,1.888,5.506-3.787,10.7-7.4,15.8-8.714,5-1.29,10.2-.346,15.078,4.039l-.036,1.367c-10.355-9.355-19.172-3.428-30.152,4.124A13.5,13.5,0,0,1,807.9,700.373Z" transform="translate(-777.552 -687.535)" fill="#48c2c9"/>
      </g>
    </g>
  </g>
</svg>
