<svg xmlns="http://www.w3.org/2000/svg" xmlns:xlink="http://www.w3.org/1999/xlink" width="66" height="66" viewBox="0 0 66 66">
  <defs>
    <clipPath id="clip-path">
      <rect id="Rectangle_137" data-name="Rectangle 137" width="66" height="66" transform="translate(834 2947)" fill="#fff" stroke="#707070" stroke-width="1"/>
    </clipPath>
  </defs>
  <g id="Backup" transform="translate(-834 -2947)" clip-path="url(#clip-path)">
    <g id="_004-cloud-computing" data-name="004-cloud-computing" transform="translate(834 2947)">
      <path id="Path_1542" data-name="Path 1542" d="M65.989,44a8.275,8.275,0,0,1-3.712,6.875H3.7A8.25,8.25,0,0,1,8.24,35.751h49.5A8.275,8.275,0,0,1,65.989,44Z" fill="#455a64"/>
      <path id="Path_1543" data-name="Path 1543" d="M65.989,57.75A8.275,8.275,0,0,1,57.739,66H8.24A8.25,8.25,0,0,1,3.7,50.875H62.276A8.275,8.275,0,0,1,65.989,57.75Z" fill="#607d8b"/>
      <path id="Path_1544" data-name="Path 1544" d="M9.669,60.5a1.375,1.375,0,0,1-.028-2.75h.027a1.375,1.375,0,0,1,0,2.75Z" fill="#ffc107"/>
      <path id="Path_1545" data-name="Path 1545" d="M57.739,60.5a2.75,2.75,0,1,1,2.75-2.75A2.75,2.75,0,0,1,57.739,60.5Z" fill="#4caf50"/>
      <g id="Group_1714" data-name="Group 1714">
        <path id="Path_1546" data-name="Path 1546" d="M15.169,60.5a1.375,1.375,0,0,1-.028-2.75h.027a1.375,1.375,0,0,1,0,2.75Z" fill="#ffc107"/>
        <path id="Path_1547" data-name="Path 1547" d="M9.669,46.75A1.375,1.375,0,0,1,9.642,44h.027a1.375,1.375,0,0,1,0,2.75Z" fill="#ffc107"/>
      </g>
      <path id="Path_1548" data-name="Path 1548" d="M57.739,46.75A2.75,2.75,0,1,1,60.489,44,2.75,2.75,0,0,1,57.739,46.75Z" fill="#4caf50"/>
      <path id="Path_1549" data-name="Path 1549" d="M15.169,46.75A1.375,1.375,0,0,1,15.142,44h.027a1.375,1.375,0,0,1,0,2.75Z" fill="#ffc107"/>
      <path id="Path_1550" data-name="Path 1550" d="M47.341,10.085A17.033,17.033,0,0,0,31.686,0,16.83,16.83,0,0,0,14.732,15.22a9.036,9.036,0,0,0-7.868,8.844A9.075,9.075,0,0,0,16.055,33H47.316a11.643,11.643,0,0,0,11.8-11.459A11.643,11.643,0,0,0,47.341,10.085Z" fill="#bbdefb"/>
    </g>
  </g>
</svg>
