<svg xmlns="http://www.w3.org/2000/svg" xmlns:xlink="http://www.w3.org/1999/xlink" width="66" height="66" viewBox="0 0 66 66">
  <defs>
    <clipPath id="clip-path">
      <rect id="Rectangle_137" data-name="Rectangle 137" width="66" height="66" transform="translate(834 2947)" fill="#fff" stroke="#707070" stroke-width="1"/>
    </clipPath>
  </defs>
  <g id="Connectivity" transform="translate(-834 -2947)" clip-path="url(#clip-path)">
    <g id="_005-data-complexity" data-name="005-data-complexity" transform="translate(834 2947)">
      <g id="Group_1715" data-name="Group 1715">
        <path id="Path_1551" data-name="Path 1551" d="M27.2,31.066H38.8v3.867H27.2Z" fill="#61729b"/>
      </g>
      <path id="Path_1552" data-name="Path 1552" d="M33,31.066h5.8v3.867H33Z" fill="#47568c"/>
      <g id="Group_1716" data-name="Group 1716">
        <path id="Path_1553" data-name="Path 1553" d="M12.636,8.259H16.5V26.682H12.636Z" transform="matrix(0.847, -0.532, 0.532, 0.847, -7.059, 10.423)" fill="#61729b"/>
      </g>
      <g id="Group_1717" data-name="Group 1717">
        <path id="Path_1554" data-name="Path 1554" d="M15.125,15.535H33.478V19.4H15.125Z" transform="matrix(0.527, -0.85, 0.85, 0.527, -3.349, 28.918)" fill="#61729b"/>
      </g>
      <g id="Group_1718" data-name="Group 1718">
        <path id="Path_1555" data-name="Path 1555" d="M39.772,8.292H43.64V26.645H39.772Z" transform="matrix(0.85, -0.527, 0.527, 0.85, -2.946, 24.59)" fill="#47568c"/>
      </g>
      <g id="Group_1719" data-name="Group 1719">
        <path id="Path_1556" data-name="Path 1556" d="M42.233,15.537H60.656V19.4H42.233Z" transform="matrix(0.532, -0.847, 0.847, 0.532, 9.286, 51.731)" fill="#47568c"/>
      </g>
      <g id="Group_1720" data-name="Group 1720">
        <path id="Path_1557" data-name="Path 1557" d="M5.358,46.61H23.781v3.868H5.358Z" transform="matrix(0.532, -0.847, 0.847, 0.532, -34.28, 35.054)" fill="#61729b"/>
      </g>
      <g id="Group_1721" data-name="Group 1721">
        <path id="Path_1558" data-name="Path 1558" d="M22.368,39.362h3.868V57.715H22.368Z" transform="matrix(0.85, -0.527, 0.527, 0.85, -21.923, 20.083)" fill="#61729b"/>
      </g>
      <g id="Group_1722" data-name="Group 1722">
        <path id="Path_1559" data-name="Path 1559" d="M32.529,46.6H50.883v3.868H32.529Z" transform="matrix(0.527, -0.85, 0.85, 0.527, -21.52, 58.409)" fill="#47568c"/>
      </g>
      <g id="Group_1723" data-name="Group 1723">
        <path id="Path_1560" data-name="Path 1560" d="M49.511,39.332h3.868V57.755H49.511Z" transform="matrix(0.847, -0.532, 0.532, 0.847, -17.935, 34.791)" fill="#47568c"/>
      </g>
      <g id="Group_1724" data-name="Group 1724">
        <path id="Path_1561" data-name="Path 1561" d="M29.133,42.668H9.8V23.332H29.133Z" fill="#fed843"/>
      </g>
      <g id="Group_1726" data-name="Group 1726">
        <g id="Group_1725" data-name="Group 1725">
          <path id="Path_1562" data-name="Path 1562" d="M56.2,42.668H36.867V23.332H56.2Z" fill="#fabe2c"/>
        </g>
      </g>
      <g id="Group_1728" data-name="Group 1728">
        <g id="Group_1727" data-name="Group 1727">
          <path id="Path_1563" data-name="Path 1563" d="M11.6,11.6H0V0H11.6Z" fill="#fed843"/>
        </g>
      </g>
      <g id="Group_1729" data-name="Group 1729">
        <path id="Path_1564" data-name="Path 1564" d="M27.2,0V11.6H38.8V0Z" fill="#fed843"/>
      </g>
      <path id="Path_1565" data-name="Path 1565" d="M33,0h5.8V11.6H33Z" fill="#fabe2c"/>
      <g id="Group_1730" data-name="Group 1730">
        <path id="Path_1566" data-name="Path 1566" d="M66,11.6H54.4V0H66Z" fill="#fabe2c"/>
      </g>
      <g id="Group_1731" data-name="Group 1731">
        <path id="Path_1567" data-name="Path 1567" d="M11.6,66H0V54.4H11.6Z" fill="#fed843"/>
      </g>
      <g id="Group_1732" data-name="Group 1732">
        <path id="Path_1568" data-name="Path 1568" d="M27.2,54.4V66H38.8V54.4Z" fill="#fed843"/>
      </g>
      <path id="Path_1569" data-name="Path 1569" d="M33,54.4h5.8V66H33Z" fill="#fabe2c"/>
      <g id="Group_1733" data-name="Group 1733">
        <path id="Path_1570" data-name="Path 1570" d="M66,66H54.4V54.4H66Z" fill="#fabe2c"/>
      </g>
      <g id="Group_1734" data-name="Group 1734">
        <path id="Path_1571" data-name="Path 1571" d="M44.6,31.066h3.867v3.867H44.6Z" fill="#47568c"/>
      </g>
      <g id="Group_1735" data-name="Group 1735">
        <path id="Path_1572" data-name="Path 1572" d="M17.531,31.066H21.4v3.867H17.531Z" fill="#61729b"/>
      </g>
    </g>
  </g>
</svg>
