<svg xmlns="http://www.w3.org/2000/svg" xmlns:xlink="http://www.w3.org/1999/xlink" width="66" height="66" viewBox="0 0 66 66">
  <defs>
    <clipPath id="clip-path">
      <rect id="Rectangle_137" data-name="Rectangle 137" width="66" height="66" transform="translate(834 2947)" fill="#fff" stroke="#707070" stroke-width="1"/>
    </clipPath>
  </defs>
  <g id="Customization" transform="translate(-834 -2947)" clip-path="url(#clip-path)">
    <g id="_001-settings" data-name="001-settings" transform="translate(834 2947)">
      <g id="Group_1712" data-name="Group 1712">
        <path id="Path_1511" data-name="Path 1511" d="M59.331,51.515l-1.367-4.047a28.191,28.191,0,0,0,3.117-7.657l3.364-1.121a1.888,1.888,0,0,0,1.313-1.8V29.119a1.888,1.888,0,0,0-1.313-1.8l-3.363-1.121a27.741,27.741,0,0,0-2.707-6.973,1.41,1.41,0,0,0-.328-.438L47.108,7.845a1.407,1.407,0,0,0-.438-.328A28.516,28.516,0,0,0,40.381,5l-1.887-3.93A2.031,2.031,0,0,0,36.771,0H29.005a2.031,2.031,0,0,0-1.723,1.066L25.4,5a28.822,28.822,0,0,0-7.575,3.254L14.594,6.669a1.881,1.881,0,0,0-2.215.356L6.91,12.493a1.881,1.881,0,0,0-.356,2.215l1.586,3.227A28.818,28.818,0,0,0,4.887,25.51L1.086,27.4A2.031,2.031,0,0,0,.019,29.119v7.766a1.944,1.944,0,0,0,1.066,1.723l3.8,1.887a28.158,28.158,0,0,0,3.145,7.356,1.664,1.664,0,0,0,.273.383l9.352,9.352a1.664,1.664,0,0,0,.383.274A27.828,27.828,0,0,0,26.079,61.2L27.2,64.687A1.888,1.888,0,0,0,29.005,66h7.766a1.879,1.879,0,0,0,1.8-1.313L39.7,61.195a28.469,28.469,0,0,0,7.629-3.09l4.074,1.34a1.935,1.935,0,0,0,2-.465l5.469-5.469A1.978,1.978,0,0,0,59.331,51.515ZM32.888,50.394A17.23,17.23,0,0,1,26.9,49.382L16.536,39.018A16.9,16.9,0,0,1,15.5,33,17.365,17.365,0,0,1,32.888,15.611,16.9,16.9,0,0,1,38.9,16.65L49.268,27.014a17.513,17.513,0,0,1-16.38,23.38Z" fill="#bfe1ff"/>
        <path id="Path_1512" data-name="Path 1512" d="M58.866,53.511,53.4,58.98a1.935,1.935,0,0,1-2,.465l-4.074-1.34A28.47,28.47,0,0,1,39.7,61.2l-1.121,3.492A1.879,1.879,0,0,1,36.771,66H29.005a1.888,1.888,0,0,1-1.8-1.313L26.079,61.2a27.833,27.833,0,0,1-8.039-3.336,1.664,1.664,0,0,1-.383-.274L12.981,52.91,21.7,44.187l5.2,5.2A17.513,17.513,0,0,0,50.28,33a17.229,17.229,0,0,0-1.012-5.989l-5.2-5.2,8.5-8.5,5.469,5.469a1.408,1.408,0,0,1,.328.438,27.741,27.741,0,0,1,2.707,6.973l3.363,1.121a1.888,1.888,0,0,1,1.313,1.8v7.766a1.888,1.888,0,0,1-1.313,1.8l-3.364,1.121a28.191,28.191,0,0,1-3.117,7.657l1.367,4.047A1.979,1.979,0,0,1,58.866,53.511Z" fill="#bfe1ff"/>
      </g>
      <path id="Path_1513" data-name="Path 1513" d="M48.123,28.7,40.11,25.771l-1.668-.629c0-.492-1.258-7.383-1.258-7.383,6.344-6.344,2.789-2.734,9.024-8.969l10.364.41v.109l.52,10.364C50.857,25.907,54.467,22.353,48.123,28.7Z" fill="#ffda45"/>
      <path id="Path_1514" data-name="Path 1514" d="M58.866,53.511,53.4,58.98a1.935,1.935,0,0,1-2,.465l-4.074-1.34A28.47,28.47,0,0,1,39.7,61.2l-1.121,3.492A1.879,1.879,0,0,1,36.771,66H29.005a1.888,1.888,0,0,1-1.8-1.313L26.079,61.2a27.833,27.833,0,0,1-8.039-3.336,1.664,1.664,0,0,1-.383-.274L12.981,52.91,21.7,44.187l5.2,5.2A17.513,17.513,0,0,0,50.28,33a17.229,17.229,0,0,0-1.012-5.989l-5.2-5.2,8.5-8.5,5.469,5.469a1.408,1.408,0,0,1,.328.438,27.741,27.741,0,0,1,2.707,6.973l3.363,1.121a1.888,1.888,0,0,1,1.313,1.8v7.766a1.888,1.888,0,0,1-1.313,1.8l-3.364,1.121a28.191,28.191,0,0,1-3.117,7.657l1.367,4.047A1.979,1.979,0,0,1,58.866,53.511Z" fill="#a3d4ff"/>
      <path id="Path_1515" data-name="Path 1515" d="M48.123,28.7,21.953,54.866l-6.946,3.61-6.645-.793-.027-.137-.93-6.672,3.555-6.891L37.185,17.759Z" fill="#65b1fc"/>
      <path id="Path_1516" data-name="Path 1516" d="M48.123,28.7,40.11,25.771,56.572,9.309l.52,10.364C50.857,25.907,54.467,22.353,48.123,28.7Z" fill="#ffbc36"/>
      <path id="Path_1517" data-name="Path 1517" d="M48.123,28.7,21.953,54.866l-6.946,3.61-6.645-.793-.027-.137L42.654,23.228Z" fill="#1689fc"/>
      <path id="Path_1518" data-name="Path 1518" d="M15.008,58.476c-4.676,2.379-2.543,1.285-10.309,5.278a1.953,1.953,0,0,1-2.57-2.57c4.047-7.821,2.926-5.66,5.278-10.309a9.666,9.666,0,0,1,4.949,2.653A9.885,9.885,0,0,1,15.008,58.476Z" fill="#fec478"/>
      <path id="Path_1519" data-name="Path 1519" d="M12.355,53.526a9.884,9.884,0,0,1,2.653,4.949c-4.676,2.379-2.543,1.285-10.309,5.278a1.918,1.918,0,0,1-2.16-.41Z" fill="#feb756"/>
      <path id="Path_1520" data-name="Path 1520" d="M63.463,13.3l-6.371,6.371L46.209,8.789,52.58,2.418a7.391,7.391,0,0,1,10.911-.027C66.812,5.712,66.818,10.007,63.463,13.3Z" fill="#2864f0"/>
      <path id="Path_1521" data-name="Path 1521" d="M57.092,19.673,51.65,14.231,63.491,2.391c3.322,3.322,3.327,7.616-.027,10.911Z" fill="#0053bf"/>
    </g>
  </g>
</svg>
