<svg xmlns="http://www.w3.org/2000/svg" xmlns:xlink="http://www.w3.org/1999/xlink" width="71" height="71" viewBox="0 0 71 71">
  <defs>
    <clipPath id="clip-path">
      <rect id="Rectangle_205" data-name="Rectangle 205" width="71" height="71" transform="translate(1151 1432)" fill="#fff" stroke="#707070" stroke-width="1"/>
    </clipPath>
  </defs>
  <g id="associations" transform="translate(-1151 -1432)" clip-path="url(#clip-path)">
    <g id="_006-building" data-name="006-building" transform="translate(1151 1432)">
      <path id="Path_1432" data-name="Path 1432" d="M66.424,57.688V68.92a2.08,2.08,0,0,1-4.16,0V57.688a2.08,2.08,0,0,1,4.16,0Z" fill="#ff7038"/>
      <path id="Path_1433" data-name="Path 1433" d="M66.424,57.688V68.92A2.081,2.081,0,0,1,64.344,71V55.607A2.081,2.081,0,0,1,66.424,57.688Z" fill="#cead29"/>
      <path id="Path_1434" data-name="Path 1434" d="M71,42.156V57.688a2.081,2.081,0,0,1-2.08,2.08H59.768a2.081,2.081,0,0,1-2.08-2.08V42.156a6.39,6.39,0,0,1,2.009-4.64,6.688,6.688,0,0,1,9.294,0A6.39,6.39,0,0,1,71,42.156Z" fill="#96d750"/>
      <path id="Path_1435" data-name="Path 1435" d="M71,42.156V57.688a2.081,2.081,0,0,1-2.08,2.08H64.344V35.639A6.631,6.631,0,0,1,71,42.156Z" fill="#80c03b"/>
      <path id="Path_1436" data-name="Path 1436" d="M68.92,66.84h-19a2.08,2.08,0,0,0,0,4.16h19a2.08,2.08,0,0,0,0-4.16Z" fill="#05303d"/>
      <path id="Path_1437" data-name="Path 1437" d="M53.111,2.08V71H2.08A2.081,2.081,0,0,1,0,68.92V2.08A2.081,2.081,0,0,1,2.08,0H51.031A2.081,2.081,0,0,1,53.111,2.08Z" fill="#0a789b"/>
      <path id="Path_1438" data-name="Path 1438" d="M53.111,2.08V71H26.625V0H51.031A2.081,2.081,0,0,1,53.111,2.08Z" fill="#08475e"/>
      <path id="Path_1439" data-name="Path 1439" d="M22.188,9.014H11.094a2.08,2.08,0,0,0-2.08,2.08v8.875a2.08,2.08,0,0,0,2.08,2.08H22.188a2.08,2.08,0,0,0,2.08-2.08V11.094A2.08,2.08,0,0,0,22.188,9.014Z" fill="#e0eaef"/>
      <path id="Path_1440" data-name="Path 1440" d="M42.156,9.014H31.063a2.08,2.08,0,0,0-2.08,2.08v8.875a2.08,2.08,0,0,0,2.08,2.08H42.156a2.08,2.08,0,0,0,2.08-2.08V11.094A2.08,2.08,0,0,0,42.156,9.014Z" fill="#cce0e5"/>
      <path id="Path_1441" data-name="Path 1441" d="M42.156,26.764H31.063a2.08,2.08,0,0,0-2.08,2.08v8.875a2.08,2.08,0,0,0,2.08,2.08H42.156a2.08,2.08,0,0,0,2.08-2.08V28.844A2.08,2.08,0,0,0,42.156,26.764Z" fill="#cce0e5"/>
      <path id="Path_1442" data-name="Path 1442" d="M22.188,26.764H11.094a2.08,2.08,0,0,0-2.08,2.08v8.875a2.08,2.08,0,0,0,2.08,2.08H22.188a2.08,2.08,0,0,0,2.08-2.08V28.844A2.08,2.08,0,0,0,22.188,26.764Z" fill="#e0eaef"/>
      <path id="Path_1443" data-name="Path 1443" d="M11.094,60.045a2.081,2.081,0,0,0-2.08,2.08V71h4.16V62.125A2.081,2.081,0,0,0,11.094,60.045Z" fill="#e0eaef"/>
      <path id="Path_1444" data-name="Path 1444" d="M42.156,60.045a2.081,2.081,0,0,0-2.08,2.08V71h4.16V62.125A2.081,2.081,0,0,0,42.156,60.045Z" fill="#cce0e5"/>
      <path id="Path_1445" data-name="Path 1445" d="M35.361,55.469V71H17.889V55.469a8.736,8.736,0,0,1,17.473,0Z" fill="#ffdd54"/>
      <path id="Path_1446" data-name="Path 1446" d="M35.361,55.469V71H26.625V46.732A8.746,8.746,0,0,1,35.361,55.469Z" fill="#ffb454"/>
    </g>
  </g>
</svg>
