<svg xmlns="http://www.w3.org/2000/svg" xmlns:xlink="http://www.w3.org/1999/xlink" width="71" height="71" viewBox="0 0 71 71">
  <defs>
    <clipPath id="clip-path">
      <rect id="Rectangle_205" data-name="Rectangle 205" width="71" height="71" transform="translate(1151 1432)" fill="#fff" stroke="#707070" stroke-width="1"/>
    </clipPath>
  </defs>
  <g id="custom" transform="translate(-1151 -1432)" clip-path="url(#clip-path)">
    <g id="_009-responsive-design" data-name="009-responsive-design" transform="translate(1151 1432)">
      <g id="Group_1710" data-name="Group 1710">
        <path id="Path_1489" data-name="Path 1489" d="M58.227,4.447H8.608A4.693,4.693,0,0,0,3.921,9.135V44.293a4.718,4.718,0,0,0,3.948,4.628l.844.674h48.68l1.573-.674a4.718,4.718,0,0,0,3.948-4.628V9.135a4.693,4.693,0,0,0-4.687-4.687Z" fill="#365e7d"/>
        <path id="Path_1490" data-name="Path 1490" d="M8.392,44.293V9.135a4.693,4.693,0,0,1,4.687-4.687H8.608A4.693,4.693,0,0,0,3.921,9.135V44.293a4.718,4.718,0,0,0,3.948,4.628l.844.674h4.471l-.844-.674A4.718,4.718,0,0,1,8.392,44.293Z" fill="#2b4d66"/>
        <path id="Path_1491" data-name="Path 1491" d="M58.133,12.726H8.982l-.851.888V43.907a.841.841,0,0,0,.841.841h48.89a.841.841,0,0,0,.841-.841V13.614Z" fill="#e4f6ff"/>
        <path id="Path_1492" data-name="Path 1492" d="M13.6,43.907V13.614l.851-.888H8.982l-.851.888V43.907a.841.841,0,0,0,.841.841h5.467A.841.841,0,0,1,13.6,43.907Z" fill="#d3effb"/>
        <path id="Path_1493" data-name="Path 1493" d="M13.6,8.627H8.972a.841.841,0,0,0-.841.841v4.146H13.6l.36-.384V8.894Z" fill="#dd636e"/>
        <path id="Path_1494" data-name="Path 1494" d="M57.863,8.627H13.6v4.987H58.7V9.468a.841.841,0,0,0-.841-.841Z" fill="#b1e4f9"/>
        <path id="Path_1495" data-name="Path 1495" d="M66.052,48.921H.783a.786.786,0,0,0-.783.79V52.43A3.66,3.66,0,0,0,3.632,56.1H63.2a3.66,3.66,0,0,0,3.632-3.667V49.712a.786.786,0,0,0-.783-.79Z" fill="#407093"/>
        <path id="Path_1496" data-name="Path 1496" d="M8.131,52.43V49.711a.787.787,0,0,1,.783-.79H.783a.786.786,0,0,0-.783.79V52.43A3.66,3.66,0,0,0,3.632,56.1h8.131A3.66,3.66,0,0,1,8.131,52.43Z" fill="#365e7d"/>
      </g>
      <path id="Path_1497" data-name="Path 1497" d="M70.256,58.718v-27.9l.744-.7V26.974a2.915,2.915,0,0,0-2.915-2.915H50.195a2.915,2.915,0,0,0-2.915,2.915v3.135l.833.752V58.98l-.833.516v4.142a2.915,2.915,0,0,0,2.915,2.915h17.89A2.915,2.915,0,0,0,71,63.638V59.5Z" fill="#365e7d"/>
      <path id="Path_1498" data-name="Path 1498" d="M51.577,63.638V59.5l.833-.516V30.861l-.833-.752V26.974a2.915,2.915,0,0,1,2.915-2.915h-4.3a2.915,2.915,0,0,0-2.915,2.915v3.135l.833.752V58.98l-.833.516v4.142a2.915,2.915,0,0,0,2.915,2.915h4.3A2.915,2.915,0,0,1,51.577,63.638Z" fill="#294b64"/>
      <circle id="Ellipse_77" data-name="Ellipse 77" cx="8.96" cy="8.96" r="8.96" transform="translate(23.744 20.222)" fill="#dd636e"/>
      <path id="Path_1499" data-name="Path 1499" d="M27.172,29.181a8.961,8.961,0,0,1,7.245-8.794,8.96,8.96,0,1,0,0,17.588,8.961,8.961,0,0,1-7.245-8.794Z" fill="#da4a54"/>
      <path id="Path_1500" data-name="Path 1500" d="M36.349,28.253l-4.6-3.135A1.123,1.123,0,0,0,30,26.046v6.27a1.123,1.123,0,0,0,1.756.928l4.6-3.135a1.123,1.123,0,0,0,0-1.856Z" fill="#f4fbff"/>
      <path id="Path_1501" data-name="Path 1501" d="M33.424,26.259l-1.673-1.141A1.123,1.123,0,0,0,30,26.046v6.27a1.123,1.123,0,0,0,1.756.928L33.424,32.1Z" fill="#e4f6ff"/>
      <path id="Path_1502" data-name="Path 1502" d="M47.28,34.194H71V59.5H47.28Z" fill="#90d8f9"/>
      <path id="Path_1503" data-name="Path 1503" d="M47.28,34.194h4.3V59.5h-4.3Z" fill="#75cef9"/>
      <g id="Group_1711" data-name="Group 1711">
        <path id="Path_1504" data-name="Path 1504" d="M60.279,63.87H58a1.071,1.071,0,0,1,0-2.143h2.278a1.071,1.071,0,1,1,0,2.143Z" fill="#365e7d"/>
      </g>
      <circle id="Ellipse_78" data-name="Ellipse 78" cx="7.798" cy="7.798" r="7.798" transform="translate(51.342 39.006)" fill="#dd636e"/>
      <path id="Path_1505" data-name="Path 1505" d="M54.289,46.8a7.8,7.8,0,0,1,6.325-7.657,7.8,7.8,0,1,0,0,15.314A7.8,7.8,0,0,1,54.289,46.8Z" fill="#da4a54"/>
      <path id="Path_1506" data-name="Path 1506" d="M47.28,30.109h4.369V34.4H47.28Z" fill="#dd636e"/>
      <path id="Path_1507" data-name="Path 1507" d="M51.577,30.109V34.4H71V30.109Z" fill="#b1e4f9"/>
      <path id="Path_1508" data-name="Path 1508" d="M62.313,46l-4-2.729a.978.978,0,0,0-1.528.808v5.457a.978.978,0,0,0,1.528.808l4-2.729A.977.977,0,0,0,62.313,46Z" fill="#f4fbff"/>
      <path id="Path_1509" data-name="Path 1509" d="M59.73,44.235l-1.418-.967a.977.977,0,0,0-1.528.808v5.457a.977.977,0,0,0,1.528.807l1.418-.967Z" fill="#e4f6ff"/>
    </g>
  </g>
</svg>
