<svg xmlns="http://www.w3.org/2000/svg" xmlns:xlink="http://www.w3.org/1999/xlink" width="71" height="71" viewBox="0 0 71 71">
  <defs>
    <clipPath id="clip-path">
      <rect id="Rectangle_205" data-name="Rectangle 205" width="71" height="71" transform="translate(1151 1432)" fill="#fff" stroke="#707070" stroke-width="1"/>
    </clipPath>
  </defs>
  <g id="Educational" transform="translate(-1151 -1432)" clip-path="url(#clip-path)">
    <g id="Page-1" transform="translate(1151 1432)">
      <g id="_031---University" data-name="031---University">
        <path id="Shape" d="M69.776,35.5V67.328H47.741V33.052Z" fill="#86b4cc"/>
        <path id="Shape-2" data-name="Shape" d="M23.259,33.052V67.328H1.224V35.5Z" fill="#86b4cc"/>
        <path id="Rectangle-path" d="M20.81,33.052H50.19V67.328H20.81Z" fill="#a1c8d3"/>
        <path id="Shape-3" data-name="Shape" d="M31.828,48.966h7.345A1.224,1.224,0,0,1,40.4,50.19v14.69H30.6V50.19A1.224,1.224,0,0,1,31.828,48.966Z" fill="#567580"/>
        <g id="Group_1705" data-name="Group 1705">
          <path id="Shape-4" data-name="Shape" d="M31.828,44.069A1.224,1.224,0,0,1,30.6,42.845V40.4a1.224,1.224,0,0,1,2.448,0v2.448A1.224,1.224,0,0,1,31.828,44.069Z" fill="#464f5e"/>
          <path id="Shape-5" data-name="Shape" d="M14.69,45.293a1.224,1.224,0,0,1-1.224-1.224V41.621a1.224,1.224,0,1,1,2.448,0v2.448A1.224,1.224,0,0,1,14.69,45.293Z" fill="#464f5e"/>
          <path id="Shape-6" data-name="Shape" d="M7.345,45.293a1.224,1.224,0,0,1-1.224-1.224V41.621a1.224,1.224,0,1,1,2.448,0v2.448A1.224,1.224,0,0,1,7.345,45.293Z" fill="#464f5e"/>
          <path id="Shape-7" data-name="Shape" d="M14.69,52.638a1.224,1.224,0,0,1-1.224-1.224V48.966a1.224,1.224,0,0,1,2.448,0v2.448A1.224,1.224,0,0,1,14.69,52.638Z" fill="#464f5e"/>
          <path id="Shape-8" data-name="Shape" d="M7.345,52.638a1.224,1.224,0,0,1-1.224-1.224V48.966a1.224,1.224,0,0,1,2.448,0v2.448A1.224,1.224,0,0,1,7.345,52.638Z" fill="#464f5e"/>
          <path id="Shape-9" data-name="Shape" d="M14.69,59.983a1.224,1.224,0,0,1-1.224-1.224V56.31a1.224,1.224,0,1,1,2.448,0v2.448A1.224,1.224,0,0,1,14.69,59.983Z" fill="#464f5e"/>
          <path id="Shape-10" data-name="Shape" d="M7.345,59.983a1.224,1.224,0,0,1-1.224-1.224V56.31a1.224,1.224,0,1,1,2.448,0v2.448A1.224,1.224,0,0,1,7.345,59.983Z" fill="#464f5e"/>
          <path id="Shape-11" data-name="Shape" d="M63.655,45.293a1.224,1.224,0,0,1-1.224-1.224V41.621a1.224,1.224,0,1,1,2.448,0v2.448A1.224,1.224,0,0,1,63.655,45.293Z" fill="#464f5e"/>
          <path id="Shape-12" data-name="Shape" d="M56.31,45.293a1.224,1.224,0,0,1-1.224-1.224V41.621a1.224,1.224,0,1,1,2.448,0v2.448A1.224,1.224,0,0,1,56.31,45.293Z" fill="#464f5e"/>
          <path id="Shape-13" data-name="Shape" d="M63.655,52.638a1.224,1.224,0,0,1-1.224-1.224V48.966a1.224,1.224,0,0,1,2.448,0v2.448A1.224,1.224,0,0,1,63.655,52.638Z" fill="#464f5e"/>
          <path id="Shape-14" data-name="Shape" d="M56.31,52.638a1.224,1.224,0,0,1-1.224-1.224V48.966a1.224,1.224,0,0,1,2.448,0v2.448A1.224,1.224,0,0,1,56.31,52.638Z" fill="#464f5e"/>
          <path id="Shape-15" data-name="Shape" d="M63.655,59.983a1.224,1.224,0,0,1-1.224-1.224V56.31a1.224,1.224,0,1,1,2.448,0v2.448A1.224,1.224,0,0,1,63.655,59.983Z" fill="#464f5e"/>
          <path id="Shape-16" data-name="Shape" d="M56.31,59.983a1.224,1.224,0,0,1-1.224-1.224V56.31a1.224,1.224,0,1,1,2.448,0v2.448A1.224,1.224,0,0,1,56.31,59.983Z" fill="#464f5e"/>
          <path id="Shape-17" data-name="Shape" d="M39.172,44.069a1.224,1.224,0,0,1-1.224-1.224V40.4a1.224,1.224,0,1,1,2.448,0v2.448A1.224,1.224,0,0,1,39.172,44.069Z" fill="#464f5e"/>
        </g>
        <path id="Shape-18" data-name="Shape" d="M69.776,64.879H1.224A1.224,1.224,0,0,0,0,66.1v2.448a1.224,1.224,0,0,0,1.224,1.224H18.362A1.224,1.224,0,0,0,19.586,71H51.414a1.224,1.224,0,0,0,1.224-1.224H69.776A1.224,1.224,0,0,0,71,68.552V66.1A1.224,1.224,0,0,0,69.776,64.879Z" fill="#edc100"/>
        <path id="Shape-19" data-name="Shape" d="M52.638,64.879v4.9A1.224,1.224,0,0,1,51.414,71H19.586a1.224,1.224,0,0,1-1.224-1.224v-4.9Z" fill="#f8e8ab"/>
        <path id="Shape-20" data-name="Shape" d="M46.517,5.656V20.81H24.483V5.656l10.711,4.25a.891.891,0,0,0,.612,0Z" fill="#393f4b"/>
        <path id="Shape-21" data-name="Shape" d="M66.777,29.514a2.448,2.448,0,0,0-2.191-1.359h-9.5V25.707l-6.623-6.623a2.456,2.456,0,0,0-1.738-.722H23.185a2.43,2.43,0,0,0-1.885.881l-5.386,6.463v2.448h-9.5a2.448,2.448,0,0,0-2.191,1.359l-3,5.986H69.776Z" fill="#4397d5"/>
        <path id="Shape-22" data-name="Shape" d="M55.086,25.707v3.672A1.224,1.224,0,0,1,53.862,30.6H17.138a1.224,1.224,0,0,1-1.224-1.224V25.707Z" fill="#2b5781"/>
        <path id="Rectangle-path-2" data-name="Rectangle-path" d="M18.362,30.6H52.638v4.9H18.362Z" fill="#3180bc"/>
        <path id="Shape-23" data-name="Shape" d="M52.638,5.509A1.189,1.189,0,0,1,51.732,6.7l-1.542.416L46.517,8.1,35.806,10.981a1.294,1.294,0,0,1-.612,0L24.483,8.1,19.268,6.7a1.224,1.224,0,0,1,0-2.375L35.194.037a1.294,1.294,0,0,1,.612,0L50.19,3.9l1.542.416A1.189,1.189,0,0,1,52.638,5.509Z" fill="#464f5e"/>
        <path id="Shape-24" data-name="Shape" d="M53.556,14.139a1.224,1.224,0,0,1-1.016.551,1.149,1.149,0,0,1-.673-.208A3.73,3.73,0,0,1,50.19,11.36V7.112L51.732,6.7a1.189,1.189,0,0,0,.906-1.187V11.36a1.3,1.3,0,0,0,.588,1.089,1.208,1.208,0,0,1,.331,1.689Z" fill="#edc100"/>
      </g>
    </g>
  </g>
</svg>
