<svg xmlns="http://www.w3.org/2000/svg" xmlns:xlink="http://www.w3.org/1999/xlink" width="71" height="71" viewBox="0 0 71 71">
  <defs>
    <clipPath id="clip-path">
      <rect id="Rectangle_205" data-name="Rectangle 205" width="71" height="71" transform="translate(1151 1432)" fill="#fff" stroke="#707070" stroke-width="1"/>
    </clipPath>
  </defs>
  <g id="Factories" transform="translate(-1151 -1432)" clip-path="url(#clip-path)">
    <g id="_003-factory" data-name="003-factory" transform="translate(1151 1432)">
      <g id="Group_1704" data-name="Group 1704">
        <path id="Path_1376" data-name="Path 1376" d="M61.811,39.058v-1.1a1.323,1.323,0,0,0-1.323-1.323H43.875a1.323,1.323,0,0,0-1.323,1.323v1.1l9.629,1.248Z" fill="#465e7b"/>
        <path id="Path_1377" data-name="Path 1377" d="M42.553,41.559l9.629,1.248,9.629-1.248v-2.5H42.553Z" fill="#3a4e65"/>
        <path id="Path_1378" data-name="Path 1378" d="M39.979,4.557a5.936,5.936,0,0,0-.719.045,5.116,5.116,0,0,0-8.943-1.644,6.184,6.184,0,0,0-9.66-.392A6.086,6.086,0,0,0,9.605,6.088c0,.159.008.316.02.472A5.635,5.635,0,1,0,12.2,17.4v3.338l2.533,1.248,2.533-1.248v-2.83a5.635,5.635,0,0,0,7.414-2.534,5.858,5.858,0,0,0,3.893,2.372v2.992l2.533,1.248,2.533-1.248v-4.7a5.859,5.859,0,0,0,1.42-2.429,5.861,5.861,0,1,0,4.92-9.046Z" fill="#f1f1f4"/>
        <path id="Path_1379" data-name="Path 1379" d="M17.266,20.737H12.2v2.5l2.533,1.248,2.533-1.248Z" fill="#dfdde2"/>
        <path id="Path_1380" data-name="Path 1380" d="M33.639,20.737H28.574v2.5l2.533,1.248,2.533-1.248Z" fill="#dfdde2"/>
        <path id="Path_1381" data-name="Path 1381" d="M18.555,28.69l-.435-4.82a.7.7,0,0,0-.692-.632H12.039a.7.7,0,0,0-.692.632l-.435,4.82,3.821,1.248Z" fill="#e5646e"/>
        <path id="Path_1382" data-name="Path 1382" d="M19.49,39.058,18.555,28.69H10.913L9.977,39.058l4.756,1.248Z" fill="#ecf4ff"/>
        <path id="Path_1383" data-name="Path 1383" d="M9.752,41.559l5.226,1.248,4.737-1.248-.226-2.5H9.977Z" fill="#ddeafb"/>
        <path id="Path_1384" data-name="Path 1384" d="M34.927,28.69l-.435-4.82a.7.7,0,0,0-.692-.632H28.412a.7.7,0,0,0-.692.632l-.435,4.82,3.821,1.248Z" fill="#e5646e"/>
        <path id="Path_1385" data-name="Path 1385" d="M35.863,39.058,34.927,28.69H27.285L26.35,39.058l4.756,1.248Z" fill="#ecf4ff"/>
        <path id="Path_1386" data-name="Path 1386" d="M26.125,41.559l5.226,1.248,4.737-1.248-.226-2.5H26.35Z" fill="#ddeafb"/>
        <path id="Path_1387" data-name="Path 1387" d="M5.977,46.935v2.5L35.5,50.684l29.523-1.248v-2.5L35.5,45.687Z" fill="#c6c1c8"/>
        <path id="Path_1388" data-name="Path 1388" d="M65.023,68.917,35.5,70.165,5.977,68.917V49.436H65.023Z" fill="#dfdde2"/>
        <path id="Path_1389" data-name="Path 1389" d="M69.958,71H1.042a1.042,1.042,0,0,1,0-2.084H69.958a1.042,1.042,0,1,1,0,2.084Z" fill="#3a4e65"/>
        <path id="Path_1390" data-name="Path 1390" d="M3.682,45.682H67.318c.767,0,1.389-1.1,1.389-2.638v-.1a1.389,1.389,0,0,0-1.389-1.389H3.682a1.389,1.389,0,0,0-1.389,1.389v.1c0,1.5.622,2.638,1.389,2.638Z" fill="#e5646e"/>
        <path id="Path_1391" data-name="Path 1391" d="M44.662,22.069a4.915,4.915,0,0,0,5.645,5,.7.7,0,0,1,.744.415,4.256,4.256,0,0,0,7.787-.014.568.568,0,0,1,.519-.346h.018a4.547,4.547,0,0,0,4.069-4.254,4.258,4.258,0,0,0-4.069-3.006h0c0-.034,0-.068,0-.1a4.257,4.257,0,0,0-8.319-1.273,5.061,5.061,0,0,0-6.395,3.581h0Z" fill="#f1f1f4"/>
        <path id="Path_1392" data-name="Path 1392" d="M16.368,59.349h2.3c.767,0,1.389-1,1.389-2.638V55.086A1.389,1.389,0,0,0,18.667,53.7h-2.3a1.389,1.389,0,0,0-1.389,1.389v1.626c0,1.482.622,2.638,1.389,2.638Z" fill="#9bc6fa"/>
        <path id="Path_1393" data-name="Path 1393" d="M67.318,44.434H3.682a1.389,1.389,0,0,1-1.389-1.389v2.5a1.389,1.389,0,0,0,1.389,1.389H67.318a1.389,1.389,0,0,0,1.389-1.389v-2.5A1.389,1.389,0,0,1,67.318,44.434Z" fill="#db4655"/>
        <path id="Path_1394" data-name="Path 1394" d="M59.376,25.875h-.018a.568.568,0,0,0-.519.346,4.256,4.256,0,0,1-7.787.014.7.7,0,0,0-.744-.415,5.06,5.06,0,0,1-5.645-3.751,5.057,5.057,0,0,0,6.2,6.139,4.256,4.256,0,0,0,8.121.149c.131.012.263.019.4.019a4.259,4.259,0,0,0,4.069-5.507,4.258,4.258,0,0,1-4.069,3.006Z" fill="#dfdde2"/>
        <path id="Path_1395" data-name="Path 1395" d="M18.667,58.1h-2.3a1.389,1.389,0,0,1-1.389-1.389v2.5A1.389,1.389,0,0,0,16.368,60.6h2.3a1.389,1.389,0,0,0,1.389-1.389v-2.5A1.39,1.39,0,0,1,18.667,58.1Z" fill="#80b4fb"/>
        <path id="Path_1396" data-name="Path 1396" d="M28.356,59.349h2.3c.767,0,1.389-1,1.389-2.638V55.086A1.389,1.389,0,0,0,30.655,53.7h-2.3a1.389,1.389,0,0,0-1.389,1.389v1.626C26.967,58.193,27.589,59.349,28.356,59.349Z" fill="#9bc6fa"/>
        <path id="Path_1397" data-name="Path 1397" d="M30.655,58.1h-2.3a1.389,1.389,0,0,1-1.389-1.389v2.5A1.389,1.389,0,0,0,28.356,60.6h2.3a1.389,1.389,0,0,0,1.389-1.389v-2.5A1.389,1.389,0,0,1,30.655,58.1Z" fill="#80b4fb"/>
        <path id="Path_1398" data-name="Path 1398" d="M40.345,59.349h2.3c.767,0,1.389-1,1.389-2.638V55.086A1.389,1.389,0,0,0,42.644,53.7h-2.3a1.389,1.389,0,0,0-1.389,1.389v1.626C38.955,58.193,39.577,59.349,40.345,59.349Z" fill="#9bc6fa"/>
        <path id="Path_1399" data-name="Path 1399" d="M42.644,58.1h-2.3a1.389,1.389,0,0,1-1.389-1.389v2.5A1.389,1.389,0,0,0,40.345,60.6h2.3a1.389,1.389,0,0,0,1.389-1.389v-2.5A1.389,1.389,0,0,1,42.644,58.1Z" fill="#80b4fb"/>
        <path id="Path_1400" data-name="Path 1400" d="M52.333,59.349h2.3c.767,0,1.389-1,1.389-2.638V55.086A1.389,1.389,0,0,0,54.632,53.7h-2.3a1.389,1.389,0,0,0-1.389,1.389v1.626C50.944,58.193,51.566,59.349,52.333,59.349Z" fill="#9bc6fa"/>
        <path id="Path_1401" data-name="Path 1401" d="M54.632,58.1h-2.3a1.389,1.389,0,0,1-1.389-1.389v2.5A1.389,1.389,0,0,0,52.333,60.6h2.3a1.389,1.389,0,0,0,1.389-1.389v-2.5A1.39,1.39,0,0,1,54.632,58.1Z" fill="#80b4fb"/>
      </g>
    </g>
  </g>
</svg>
