<svg xmlns="http://www.w3.org/2000/svg" xmlns:xlink="http://www.w3.org/1999/xlink" width="71" height="71" viewBox="0 0 71 71">
  <defs>
    <clipPath id="clip-path">
      <rect id="Rectangle_205" data-name="Rectangle 205" width="71" height="71" transform="translate(1151 1432)" fill="#fff" stroke="#707070" stroke-width="1"/>
    </clipPath>
  </defs>
  <g id="health" transform="translate(-1151 -1432)" clip-path="url(#clip-path)">
    <g id="flat" transform="translate(1147.328 1428.328)">
      <path id="Path_1402" data-name="Path 1402" d="M18.362,6.121H59.983v66.1H18.362Z" fill="#aabece"/>
      <path id="Path_1403" data-name="Path 1403" d="M23.259,6.121H55.086V28.155H23.259Z" fill="#f4f4e6"/>
      <path id="Path_1405" data-name="Path 1405" d="M23.259,42.845h6.121V50.19H23.259Z" fill="#5a6470"/>
      <path id="Path_1406" data-name="Path 1406" d="M29.379,42.845h4.9V50.19h-4.9Z" fill="#394d5c"/>
      <path id="Path_1407" data-name="Path 1407" d="M34.276,42.845h4.9V50.19h-4.9Z" fill="#5a6470"/>
      <path id="Path_1408" data-name="Path 1408" d="M39.172,42.845h4.9V50.19h-4.9Z" fill="#394d5c"/>
      <path id="Path_1409" data-name="Path 1409" d="M44.069,42.845h4.9V50.19h-4.9Z" fill="#5a6470"/>
      <path id="Path_1410" data-name="Path 1410" d="M48.966,42.845h4.9V50.19h-4.9Z" fill="#394d5c"/>
      <path id="Path_1411" data-name="Path 1411" d="M29.379,50.19H48.966V67.328H29.379Z" fill="#cdeef6"/>
      <path id="Path_1412" data-name="Path 1412" d="M29.379,67.328H48.966v4.9H29.379Z" fill="#394d5c"/>
      <path id="Path_1413" data-name="Path 1413" d="M37.948,50.19H40.4V67.328H37.948Z" fill="#32b1cc"/>
      <path id="Path_1414" data-name="Path 1414" d="M35.5,57.534h7.345v2.448H35.5Z" fill="#2d75bb"/>
      <g id="Group_1706" data-name="Group 1706">
        <path id="Path_1415" data-name="Path 1415" d="M23.259,50.19h6.121V72.224H23.259Z" fill="#7d8d9c"/>
        <path id="Path_1416" data-name="Path 1416" d="M48.966,50.19h4.9V72.224h-4.9Z" fill="#7d8d9c"/>
        <path id="Path_1417" data-name="Path 1417" d="M23.259,33.052h30.6v4.9h-30.6Z" fill="#7d8d9c"/>
      </g>
      <path id="Path_1418" data-name="Path 1418" d="M3.672,25.707h14.69V72.224H3.672Z" fill="#cfdfe8"/>
      <path id="Path_1419" data-name="Path 1419" d="M3.672,20.81h14.69v4.9H3.672Z" fill="#7d8d9c"/>
      <path id="Path_1420" data-name="Path 1420" d="M3.672,67.328h14.69v4.9H3.672Z" fill="#7d8d9c"/>
      <path id="Path_1421" data-name="Path 1421" d="M59.983,25.707h14.69V72.224H59.983Z" transform="translate(134.655 97.931) rotate(180)" fill="#cfdfe8"/>
      <path id="Path_1422" data-name="Path 1422" d="M59.983,20.81h14.69v4.9H59.983Z" transform="translate(134.655 46.517) rotate(180)" fill="#7d8d9c"/>
      <path id="Path_1423" data-name="Path 1423" d="M59.983,67.328h14.69v4.9H59.983Z" transform="translate(134.655 139.552) rotate(180)" fill="#7d8d9c"/>
      <g id="Group_1707" data-name="Group 1707">
        <path id="Path_1424" data-name="Path 1424" d="M64.879,30.6h4.9v4.9h-4.9Z" fill="#fff69a"/>
        <path id="Path_1425" data-name="Path 1425" d="M64.879,40.4h4.9v4.9h-4.9Z" fill="#fff69a"/>
        <path id="Path_1426" data-name="Path 1426" d="M64.879,50.19h4.9v4.9h-4.9Z" fill="#fff69a"/>
        <path id="Path_1427" data-name="Path 1427" d="M64.879,59.983h4.9v7.345h-4.9Z" fill="#fff69a"/>
        <path id="Path_1428" data-name="Path 1428" d="M8.569,30.6h4.9v4.9h-4.9Z" fill="#fff69a"/>
        <path id="Path_1429" data-name="Path 1429" d="M8.569,40.4h4.9v4.9h-4.9Z" fill="#fff69a"/>
        <path id="Path_1430" data-name="Path 1430" d="M8.569,50.19h4.9v4.9h-4.9Z" fill="#fff69a"/>
        <path id="Path_1431" data-name="Path 1431" d="M8.569,59.983h4.9v7.345h-4.9Z" fill="#fff69a"/>
      </g>
      <path id="Subtraction_14" data-name="Subtraction 14" d="M2474.922-3763.328a6.385,6.385,0,0,1-6.249-6.5,6.386,6.386,0,0,1,6.249-6.5,6.041,6.041,0,0,1,3.746,1.3,5.2,5.2,0,0,0-2.079-.43,5.535,5.535,0,0,0-5.417,5.634,5.534,5.534,0,0,0,5.417,5.633,5.2,5.2,0,0,0,2.08-.43A6.042,6.042,0,0,1,2474.922-3763.328Z" transform="translate(-2435 3787)" fill="red"/>
    </g>
  </g>
</svg>
