<svg xmlns="http://www.w3.org/2000/svg" xmlns:xlink="http://www.w3.org/1999/xlink" width="71" height="71" viewBox="0 0 71 71">
  <defs>
    <clipPath id="clip-path">
      <rect id="Rectangle_205" data-name="Rectangle 205" width="71" height="71" transform="translate(1151 1432)" fill="#fff" stroke="#707070" stroke-width="1"/>
    </clipPath>
  </defs>
  <g id="sales" transform="translate(-1151 -1432)" clip-path="url(#clip-path)">
    <g id="Shopping_Bag-Hands-Bag-Purchase-Buy" data-name="Shopping Bag-Hands-Bag-Purchase-Buy" transform="translate(1148.78 1430.109)">
      <path id="Path_1477" data-name="Path 1477" d="M51.041,39.171v2.374a2.381,2.381,0,0,1-2.374,2.374H27.3a2.381,2.381,0,0,1-2.374-2.374V39.171Z" fill="#d1d3d4"/>
      <path id="Path_1478" data-name="Path 1478" d="M24.927,15.431H51.041v23.74H24.927Z" fill="#3d9ae2"/>
      <path id="Path_1479" data-name="Path 1479" d="M56.181,55.944l12.072-4.392a3.7,3.7,0,0,1,4.653,1.816,3.561,3.561,0,0,1-2.03,4.807l-21.7,7.894a14.255,14.255,0,0,1-5.852.831l-5.638-.392a14.244,14.244,0,0,0-5.852.819l-3.858,1.4-5.27-14.493.522-.415a19.173,19.173,0,0,1,5.306-2.979l1.852-.665a16.577,16.577,0,0,1,8.57-.748l14.315,2.516a3.579,3.579,0,0,1,2.944,3.5A3.521,3.521,0,0,1,56.181,55.944Z" fill="#ffc477"/>
      <path id="Path_1480" data-name="Path 1480" d="M51.041,39.171v2.374a2.381,2.381,0,0,1-2.374,2.374H46.293a2.381,2.381,0,0,1-2.374-2.374V39.171Z" fill="#c6c5ca"/>
      <path id="Path_1481" data-name="Path 1481" d="M67.66,39.171v2.374a2.381,2.381,0,0,1-2.374,2.374H48.667a2.381,2.381,0,0,1-2.374-2.374V39.171Z" fill="#e6e7e8"/>
      <path id="Path_1482" data-name="Path 1482" d="M46.293,23.74H67.66V39.171H46.293Z" fill="#ff5023"/>
      <path id="Path_1483" data-name="Path 1483" d="M43.919,23.74h2.374V39.171H43.919Z" fill="#1e81ce"/>
      <path id="Path_1484" data-name="Path 1484" d="M46.293,20.179H43.919v-9.5a5.935,5.935,0,0,0-11.87,0v9.5H29.675v-9.5a8.309,8.309,0,0,1,16.618,0Z" fill="#1e81ce"/>
      <path id="Path_1485" data-name="Path 1485" d="M56.977,35.61a5.942,5.942,0,0,1-5.935-5.935V27.3h2.374v2.374a3.561,3.561,0,1,0,7.122,0V27.3h2.374v2.374A5.942,5.942,0,0,1,56.977,35.61Z" fill="#d80027"/>
      <path id="Path_1486" data-name="Path 1486" d="M52.653,60.2a4.788,4.788,0,0,1-.831-.072L38.964,57.864l.413-2.338,12.859,2.267a2.374,2.374,0,1,0,.824-4.676L38.746,50.593a15.443,15.443,0,0,0-7.953.7l-1.843.671a17.752,17.752,0,0,0-4.978,2.785l-.527.418L21.966,53.3l.526-.417a20.1,20.1,0,0,1,5.641-3.144l1.843-.672a17.827,17.827,0,0,1,9.182-.8l14.319,2.525a4.748,4.748,0,0,1-.824,9.425Z" fill="#ffb655"/>
      <path id="Path_1487" data-name="Path 1487" d="M28.8,70.959,24.82,72.408H14.161L8.914,57.985l-.4-1.116L21.888,52l.819,2.232,5.27,14.493Z" fill="#3d9ae2"/>
      <path id="Path_1488" data-name="Path 1488" d="M14.161,72.408H6.576L2.22,60.419l6.695-2.433Z" fill="#5aaae7"/>
    </g>
  </g>
</svg>
