<?xml version="1.0" encoding="utf-8"?>
<!-- Generator: Adobe Illustrator 23.1.0, SVG Export Plug-In . SVG Version: 6.00 Build 0)  -->
<svg version="1.1" id="Layer_1" xmlns="http://www.w3.org/2000/svg" xmlns:xlink="http://www.w3.org/1999/xlink" x="0px" y="0px"
	 viewBox="0 0 359 399" style="enable-background:new 0 0 359 399;" xml:space="preserve">
<style type="text/css">
	.st0{fill:#E5403E;}
</style>
<g>
	<path class="st0" d="M157.91,9.8c18.3-11,43.87-6.93,57.71,9.37c6.65,7.22,9.67,16.78,11.54,26.24c13.56-5.3,29.52-5.28,42.19,2.41
		c13,7.17,20.89,21.13,22.82,35.63c12.48-4.89,27-5.65,39.28,0.35c15.52,7.17,26.26,23.59,26,40.8
		c0.11,45.74-0.02,91.49,0.04,137.23c0.54,17.32-5.35,34.93-17.22,47.69c-8.7,10.02-21,15.5-32.15,22.19
		c-26.11,15.26-52.41,30.15-78.49,45.43c-11.67,6.74-23.28,14.59-36.89,16.56c-15.65,2.91-32.21,0.02-45.93-8.02
		c-36.19-20.98-72.47-41.8-108.64-62.8c-21.24-11.41-34.5-34.95-34.52-58.91c-0.11-35.54,0-71.08-0.04-106.64
		c-0.39-17.63-0.7-36.39,8.46-52.17c7.39-14,20.37-23.78,34.19-30.87C83.46,52.77,120.71,31.32,157.91,9.8z M163.47,17.41
		c-40.5,23.35-80.95,46.74-121.4,70.1c-17.65,10.04-29.13,29.87-29.04,50.17c-0.11,34.82,0,69.63-0.04,104.45
		c0.17,15.85-1.76,32.69,5.93,47.28c6.15,13.67,18.39,23.19,31.43,29.85c35.45,20.13,70.52,41.02,106.08,60.93
		c16.96,8.59,38,6.96,54.1-2.8c30.24-17.56,60.56-34.98,90.82-52.52c11.63-6.96,24.63-12.54,33.39-23.28
		c9.56-10.89,14.04-25.43,13.89-39.8c-0.04-45.63,0.17-91.28-0.11-136.9c0.11-19.3-17.26-36.39-36.5-36.19
		c-7.15-0.35-13.78,2.67-20.06,5.65c-0.07,44.95,0.02,89.93-0.02,134.88c0.02,14.8-5.26,29.56-14.91,40.82
		c-8.13,9.83-19.95,15.22-30.72,21.54c-19.32,11.09-38.39,22.67-57.93,33.35c-16.24,8.69-38.28,2.43-47.76-13.26
		c-6.15-9.15-5.54-20.59-5.65-31.11c-9.06,5.09-18.46,11.19-29.32,10.5c-18.19,0.09-35.08-15.26-35.82-33.61
		c-0.46-23.26-0.02-46.54-0.17-69.8c0.11-10.98-0.89-22.26,2.41-32.91c4.13-14.37,13.72-27.08,26.5-34.85
		c39.71-23.04,79.54-45.93,119.25-68.99c0.09-13.83-7.17-27.45-19.63-33.85C187.56,11.02,173.97,11.28,163.47,17.41z M226.77,56.32
		c0.15,21.67-0.04,43.37,0.09,65.04c18.72-11.11,38.3-20.91,56.26-33.19c0.22-18.02-14-34.67-31.87-37.06
		C242.68,49.49,234.25,52.43,226.77,56.32z M105.45,126.68c-16.3,9.17-27.04,27.28-26.82,46.04c0.02,27.45-0.24,54.91,0.11,82.36
		c0.07,15.76,15.72,29.04,31.26,26.72c9.39-1.7,17.04-7.89,25.15-12.54c0.07-24.26-0.11-48.52,0.04-72.78
		c0.07-13.54,7.76-26.65,19.52-33.35c20.87-12.15,41.89-24.04,62.73-36.21c-0.04-21.61,0.22-43.21-0.15-64.8
		C179.95,83.53,142.71,105.14,105.45,126.68z M226.77,132.51c0.2,23.54-0.57,47.06-0.24,70.6c0.48,14.39-7.24,28.8-19.93,35.8
		c-20.78,12.06-41.67,23.95-62.36,36.13c0,7.15-0.52,14.35,0.43,21.48c2,14.09,16.41,25.06,30.54,23.13
		c5.37-0.7,10.15-3.46,14.8-6.09c16.41-9.72,32.95-19.28,49.52-28.76c12.89-7.5,27.43-14.15,35.32-27.52
		c9-13.39,8.37-30.13,8.11-45.54c-0.09-37.19,0.15-74.41-0.13-111.6C264.01,110.66,245.29,121.42,226.77,132.51z M160.28,170.76
		c-9.24,5.11-15.78,14.89-16,25.59c-0.22,22.52-0.09,45.04,0.02,67.56c18.19-10.04,36.08-20.67,54.1-31.04
		c5.8-3.33,11.65-7.28,14.87-13.35c5.48-8.89,3.56-19.69,3.87-29.58c-0.39-17.37,0.7-34.71,0.15-52.06
		C198.19,148.68,179.25,159.74,160.28,170.76z"/>
</g>
</svg>
