<?xml version="1.0" encoding="utf-8"?>
<!-- Generator: Adobe Illustrator 23.1.0, SVG Export Plug-In . SVG Version: 6.00 Build 0)  -->
<svg version="1.1" id="Layer_1" xmlns="http://www.w3.org/2000/svg" xmlns:xlink="http://www.w3.org/1999/xlink" x="0px" y="0px"
	 viewBox="0 0 359 399" style="enable-background:new 0 0 359 399;" xml:space="preserve">
<style type="text/css">
	.st0{fill:#E5403E;}
</style>
<g>
	<path class="st0" d="M168.14,27.82c8.77-5.27,21.01-3.32,27.64,4.49c3.19,3.46,4.63,8.04,5.53,12.57
		c6.5-2.54,14.14-2.53,20.21,1.16c6.23,3.44,10.01,10.12,10.93,17.06c5.98-2.34,12.93-2.71,18.81,0.17
		c7.43,3.44,12.58,11.3,12.45,19.54c0.05,21.91-0.01,43.82,0.02,65.73c0.26,8.3-2.56,16.73-8.25,22.84
		c-4.16,4.8-10.06,7.42-15.4,10.63c-12.5,7.31-25.1,14.44-37.6,21.76c-5.59,3.23-11.15,6.99-17.67,7.93c-7.5,1.4-15.43,0.01-22-3.84
		c-17.34-10.05-34.71-20.02-52.04-30.08c-10.17-5.47-16.52-16.74-16.53-28.22c-0.05-17.02,0-34.05-0.02-51.08
		c-0.19-8.44-0.33-17.43,4.05-24.99c3.54-6.71,9.76-11.39,16.38-14.78C132.48,48.41,150.33,38.13,168.14,27.82z M170.81,31.47
		c-19.4,11.18-38.77,22.39-58.15,33.58c-8.45,4.81-13.95,14.31-13.91,24.03c-0.05,16.68,0,33.35-0.02,50.03
		c0.08,7.59-0.84,15.66,2.84,22.65c2.95,6.55,8.81,11.11,15.06,14.3c16.98,9.64,33.78,19.65,50.81,29.18
		c8.12,4.11,18.2,3.33,25.92-1.34c14.48-8.41,29.01-16.75,43.5-25.15c5.57-3.33,11.8-6.01,15.99-11.15
		c4.58-5.22,6.73-12.18,6.65-19.06c-0.02-21.85,0.08-43.72-0.05-65.57c0.05-9.25-8.27-17.43-17.48-17.34
		c-3.43-0.17-6.6,1.28-9.61,2.71c-0.03,21.53,0.01,43.07-0.01,64.61c0.01,7.09-2.52,14.16-7.14,19.55
		c-3.89,4.71-9.56,7.29-14.71,10.32c-9.26,5.31-18.39,10.86-27.75,15.97c-7.78,4.16-18.34,1.17-22.87-6.35
		c-2.95-4.38-2.66-9.86-2.71-14.9c-4.34,2.44-8.84,5.36-14.05,5.03c-8.71,0.04-16.8-7.31-17.16-16.1
		c-0.22-11.14-0.01-22.29-0.08-33.43c0.05-5.26-0.43-10.66,1.16-15.76c1.98-6.88,6.57-12.97,12.69-16.69
		c19.02-11.04,38.1-22,57.12-33.05c0.04-6.62-3.44-13.15-9.4-16.21C182.34,28.41,175.84,28.53,170.81,31.47z M201.13,50.11
		c0.07,10.38-0.02,20.77,0.04,31.15c8.96-5.32,18.35-10.02,26.95-15.9c0.1-8.63-6.71-16.61-15.26-17.75
		C208.75,46.84,204.71,48.24,201.13,50.11z M143.02,83.81c-7.81,4.39-12.95,13.07-12.85,22.05c0.01,13.15-0.11,26.3,0.05,39.45
		c0.03,7.55,7.53,13.91,14.97,12.8c4.5-0.81,8.16-3.78,12.05-6.01c0.03-11.62-0.05-23.24,0.02-34.86
		c0.03-6.49,3.72-12.76,9.35-15.97c10-5.82,20.06-11.52,30.05-17.35c-0.02-10.35,0.1-20.7-0.07-31.04
		C178.7,63.14,160.86,73.49,143.02,83.81z M201.13,86.6c0.09,11.28-0.27,22.54-0.11,33.82c0.23,6.89-3.47,13.8-9.55,17.15
		c-9.95,5.78-19.96,11.47-29.87,17.3c0,3.43-0.25,6.87,0.21,10.29c0.96,6.75,7.86,12,14.63,11.08c2.57-0.33,4.86-1.66,7.09-2.92
		c7.86-4.65,15.78-9.24,23.72-13.77c6.17-3.59,13.14-6.78,16.92-13.18c4.31-6.41,4.01-14.43,3.88-21.81
		c-0.04-17.81,0.07-35.64-0.06-53.45C218.96,76.14,210,81.29,201.13,86.6z M169.28,104.92c-4.43,2.45-7.56,7.13-7.66,12.25
		c-0.1,10.79-0.04,21.57,0.01,32.36c8.71-4.81,17.28-9.9,25.92-14.87c2.78-1.59,5.58-3.49,7.12-6.39c2.62-4.26,1.71-9.43,1.85-14.17
		c-0.19-8.32,0.33-16.63,0.07-24.94C187.44,94.35,178.37,99.65,169.28,104.92z"/>
</g>
<path class="st0" d="M60.49,233.57c5.08-4.79,12.27-6.67,19.11-6.68c7.72-0.03,15.62,1.54,22.31,5.52c3.51,2.17,6.83,5.51,7.2,9.84
	c0.33,5.31,0.1,10.65,0.05,15.97c-0.51-0.23-1.53-0.7-2.04-0.93c-1.76-5.82-2.98-12.06-6.99-16.85c-4.32-5.66-11.61-8.11-18.52-8.17
	c-5.14-0.28-10.57,1.34-14.13,5.19c-4.47,5.04-4.29,13.63,0.65,18.3c6.12,6,14,9.69,21.21,14.19c6.11,3.83,12.87,6.87,18.04,12.03
	c6.48,6.62,6.6,17.29,3.08,25.4c-3.36,7.76-11.48,12.32-19.58,13.45c-9.07,1.24-18.51-0.11-26.89-3.76
	c-4.66-2.2-9.67-5.84-10.31-11.35c-0.35-5.15-0.06-10.32-0.11-15.47c0.6,0.01,1.82,0.04,2.43,0.05c1.32,6.83,3.4,13.95,8.48,19
	c5.78,5.81,14.6,7.28,22.47,6.38c4.96-0.7,10.2-2.97,12.74-7.53c3-5.62,1.33-12.96-3.14-17.31c-5.53-5.56-12.74-8.93-19.38-12.94
	c-7.24-4.3-15.29-8.14-20.17-15.29C51.3,253.73,52.71,240.8,60.49,233.57z"/>
<path class="st0" d="M124.87,229.38c4.35,0,8.71,0,13.09,0c10.84,23.53,21.67,47.07,32.52,70.6c10.65-23.53,21.27-47.07,31.9-70.6
	c4.07,0,8.13,0,12.21-0.01c0.02,16.78,0,33.57,0.01,50.35c0.43,11.87-1.54,24.39,3.23,35.65c1.61,4.13,5.55,6.67,9.83,7.33
	c0,0.66-0.02,1.96-0.03,2.6c-6.89-0.19-14.69-1.06-19.54-6.54c-4.75-5.58-5.35-13.31-5.64-20.3c-0.14-18.26,0.03-36.52-0.08-54.78
	c-11.31,25.1-22.64,50.2-33.93,75.3c-0.93-0.01-1.84-0.01-2.74,0c-11.71-25.59-23.42-51.19-35.19-76.76
	c-0.06,25.59-0.01,51.18-0.03,76.77c-1.88-0.01-3.75-0.01-5.6-0.01C124.88,289.11,124.86,259.25,124.87,229.38z"/>
<path class="st0" d="M225.35,229.67c6.33,0.26,12.85-0.76,19.05,0.9c4.7,1.61,4.99,7.35,5.32,11.54
	c0.31,15.31-0.04,30.62,0.18,45.93c0.23,7.98,1.97,16.72,8.15,22.3c6.25,5.4,15.18,5.33,22.92,4.35
	c6.74-0.89,13.37-4.65,16.36-10.95c5.07-10.37,3.81-22.26,4-33.43c0-13.55,0-27.09,0.01-40.63c1.84-0.01,3.7-0.01,5.57,0
	c-0.01,17.71,0.03,35.42-0.02,53.13c-0.21,9.3-0.84,19.32-6.33,27.2c-5.24,7.39-14.64,10.07-23.26,10.58
	c-9.93,0.6-20.93-0.14-28.97-6.67c-7.33-6.01-9.65-15.86-10.38-24.88c-0.67-12.47-0.18-24.98-0.31-37.46
	c-0.18-5.21,0.65-10.83-1.86-15.62c-2.06-3.72-6.76-3.54-10.42-3.7C225.35,231.6,225.35,230.31,225.35,229.67z"/>
<path class="st0" d="M163.5,332.11c0.58-0.11,1.75-0.34,2.33-0.46c0.1,2.82,0.22,5.66,0.3,8.5c2.11,0,4.24,0,6.37,0
	c0,0.53,0,1.59,0,2.13c-2.22,0-4.4,0.01-6.59,0.04c0.26,6.44-0.51,12.97,0.47,19.38c1.24,3.73,5.83,1.61,8.64,1.62
	c-3.42,3.83-11.64,4.56-13.52-1.1c-0.98-6.59-0.18-13.31-0.43-19.94c-0.73,0-2.2-0.01-2.93-0.01c-0.76,0.59-1.52,1.19-2.25,1.79
	c-3.29-1.87-7.15-1.62-9.96,0.94c0.11,6.87,0.03,13.75,0.05,20.63c-1.7-0.02-3.38-0.03-5.05-0.03c-0.17-7.12,0.31-14.26-0.17-21.37
	c0.06-2.67-3.06-3.03-4.76-4.14c3.42-0.16,7.24-0.67,9.96,1.92c3.1-2.44,7.14-3.35,10.79-1.44c1.43-0.21,2.83-0.43,4.31-0.59
	c-0.02-1.58-0.02-3.15,0-4.73C161.86,334.19,162.68,333.14,163.5,332.11z"/>
<g>
	<path class="st0" d="M118.42,340.39c3.53-1.2,7.52-1.44,11.11-0.35c3.11,0.94,4.64,4.23,4.97,7.25c0.68,6.17,0.25,12.41,0.32,18.63
		c-1.94-0.23-3.52-1.23-4.86-2.56c-3.31,2.59-7.98,3.72-11.87,1.8c-4.38-1.99-5.39-9.02-1.29-11.8c3.87-2.62,8.79-2.37,13.25-2.64
		c-0.4-2.2-0.51-4.47-1.37-6.53c-1.4-2.95-5.57-3.3-8.11-1.77c-1.67,1.56-2.71,3.95-5.22,4.29
		C115.76,344.44,115.63,341.14,118.42,340.39z M120.84,355.26c-2.81,2.45-1.22,7.76,2.5,8.26c2.57,0.77,4.62-1.18,6.52-2.58
		c-0.03-2.69-0.04-5.37-0.05-8.05C126.77,353.28,123.26,353.04,120.84,355.26z"/>
</g>
<g>
	<path class="st0" d="M234.58,341.99c3.8-3.53,10.19-3.45,14.24-0.36c3.52,2.92,3.53,7.84,3.56,12.03
		c-5.6,0.01-11.2,0.05-16.79-0.11c0.35,3.86,1.31,8.82,5.64,10.08c4.27,1.41,7.6-2.02,10.7-4.33c-2.27,8.54-15.49,9.08-19.42,1.61
		C229.46,355.07,229.67,346.78,234.58,341.99z M238.54,342.89c-2.27,2.2-2.48,5.52-3,8.43c3.94,0.04,7.88,0.03,11.84,0.01
		c-0.49-2.75-0.42-5.83-2.24-8.11C243.58,341.23,240.22,340.91,238.54,342.89z"/>
</g>
<path class="st0" d="M262.38,341.78c3.79-2.49,9.05-3.45,12.98-0.72c2.63,1.87,3.24,5.31,3.29,8.35c0.09,5.39-0.04,10.8,0.01,16.2
	c-1.67-0.01-3.32-0.01-4.96,0c-0.09-5.76,0.16-11.52-0.08-17.26c0-2.78-1.56-5.81-4.52-6.27c-2.59-0.77-4.78,1.1-6.85,2.33
	c0.02,7.06,0,14.13,0.01,21.21c-1.67-0.01-3.31-0.02-4.95-0.01c-0.14-7.08,0.26-14.17-0.16-21.24c0-2.94-3.49-3.17-5.42-4.35
	C255.34,339.92,259.28,339.51,262.38,341.78z"/>
<path class="st0" d="M55.98,340.46c3.89-1.44,8.51-1.29,12.25,0.52c2.63,1.33,2.09,4.69,2.31,7.11c-1.71-2.12-2.73-5.3-5.66-6.01
	c-2.19-0.58-4.69-0.59-6.67,0.58c-1.95,1.06-2.04,4.18-0.39,5.54c3.43,2.82,8.26,3.24,11.57,6.26c2.72,2.39,2.64,7.2-0.2,9.49
	c-2.9,2.39-6.94,2.57-10.51,2.18c-2.54-0.29-5.57-1.19-6.53-3.83c-0.37-1.57-0.24-3.21-0.25-4.79c1.56,2.12,2.5,5.16,5.29,6.01
	c2.54,0.65,5.51,0.83,7.89-0.49c2.03-1.11,2.11-4.27,0.27-5.59c-3.79-3.08-9.47-3.27-12.48-7.36
	C50.47,346.8,52.31,341.85,55.98,340.46z"/>
<path class="st0" d="M70.27,340.02c3.61-0.07,7.59-0.57,10.67,1.78c4.2-2.85,10.63-3.7,13.86,1.01c3-2.37,6.86-4.2,10.76-3.09
	c3.43,0.74,4.82,4.49,4.95,7.63c0.24,6.08-0.01,12.18,0.08,18.26c-1.63,0-3.27,0-4.88,0.01c-0.1-6.11,0.23-12.23-0.15-18.34
	c-0.15-2.06-0.78-4.67-3.09-5.25c-2.69-0.66-4.82,1.49-6.79,2.92c0.34,6.88,0.12,13.77,0.19,20.67c-1.74-0.01-3.46-0.02-5.16-0.02
	c-0.05-5.79,0.1-11.58-0.03-17.36c-0.07-2.28-0.48-5.12-2.83-6.14c-2.61-0.81-4.84,1.07-6.93,2.26c-0.03,7.08-0.02,14.17-0.01,21.25
	c-1.67-0.01-3.31-0.01-4.94,0c-0.14-7.09,0.24-14.19-0.17-21.26C75.79,341.41,72.22,341.18,70.27,340.02z"/>
<path class="st0" d="M186.25,340.03c3.62-0.08,7.6-0.6,10.69,1.76c4.21-2.86,10.54-3.62,13.89,0.95c3.17-2.46,7.35-4.3,11.36-2.81
	c3.02,1.02,4.09,4.47,4.29,7.35c0.33,6.1,0.02,12.22,0.14,18.34c-1.67-0.01-3.31-0.01-4.94,0c-0.35-7.04,0.79-14.25-0.73-21.17
	c-1.69-4.44-7.03-1.95-9.34,0.57c0.45,6.85,0.19,13.72,0.25,20.59c-1.73-0.01-3.45-0.01-5.15,0c-0.06-5.78,0.14-11.56-0.05-17.33
	c-0.2-2.11-0.3-4.82-2.43-5.93c-2.61-1.36-5.14,0.81-7.35,1.96c-0.02,7.1-0.02,14.21-0.01,21.31c-1.68-0.01-3.34-0.03-4.98-0.02
	c-0.14-7.12,0.24-14.24-0.17-21.34C191.71,341.33,188.19,341.18,186.25,340.03z"/>
<path class="st0" d="M279.42,340.03c2.89,0.53,6.93-0.95,9.16,1.44c2.25,6.07-0.37,12.91,1.66,19.05c1.78,4.4,8.74,4.08,10.55,0.03
	c0.39-6.79,0.01-13.61,0.14-20.41c1.62,0,3.27,0,4.94,0.01c-0.05,8.66,0.07,17.33-0.07,26c-1.74-0.54-3.34-1.3-4.84-2.26
	c-4.46,3.03-11.67,3.72-14.95-1.31c-3.1-6.12-0.28-13.32-2.04-19.73C282.69,341.55,280.91,340.94,279.42,340.03z"/>
</svg>
