<svg xmlns="http://www.w3.org/2000/svg" xmlns:xlink="http://www.w3.org/1999/xlink" width="1442.981" height="470.997" viewBox="0 0 1442.981 470.997">
  <defs>
    <clipPath id="clip-path">
      <rect width="277" height="100" fill="none"/>
    </clipPath>
  </defs>
  <g id="advanced-bg-items" transform="translate(167.981 -3871.619)">
    <path id="Path_437" data-name="Path 437" d="M1.03,0C.927,1.242.83,2.5.742,3.729l.863.061c.087-1.229.184-2.48.286-3.719ZM448.64,3.936l-.492.711A35.565,35.565,0,0,1,451.706,7.6l.589-.634A36.024,36.024,0,0,0,448.64,3.936ZM.446,8.4C.359,9.956.284,11.529.222,13.073l.865.034c.062-1.539.137-3.107.224-4.66Zm455.138,1.955-.651.57a40.216,40.216,0,0,1,2.839,3.65l.714-.49A41.122,41.122,0,0,0,455.584,10.354ZM.073,17.75C.035,19.31.011,20.884,0,22.43l.865.005c.011-1.54.035-3.109.072-4.664Zm460.826.4-.773.387a28.465,28.465,0,0,1,1.731,4.26l.826-.258A29.2,29.2,0,0,0,460.9,18.153ZM.872,27.1l-.865.009c.016,1.56.045,3.135.088,4.68l.865-.024C.917,30.224.888,28.655.872,27.1Zm462.8.082-.859.1a23.351,23.351,0,0,1,.154,2.663c0,.636-.027,1.28-.08,1.914l.862.072c.055-.658.083-1.326.083-1.986A24.226,24.226,0,0,0,463.675,27.182Zm-1.611,9.182a27.312,27.312,0,0,1-1.63,4.294l.781.373A28.169,28.169,0,0,0,462.9,36.6ZM1.131,36.425l-.865.04c.072,1.558.159,3.131.259,4.672l.864-.056C1.289,39.545,1.2,37.978,1.131,36.425Zm457.024,8.237a41.435,41.435,0,0,1-2.773,3.7l.662.557a42.182,42.182,0,0,0,2.831-3.774ZM1.735,45.73.873,45.8c.131,1.555.278,3.122.439,4.659l.861-.09C2.013,48.841,1.866,47.28,1.735,45.73Zm450.508,6.032c-.125.124-.249.247-.376.37a33.929,33.929,0,0,1-3.076,2.66l.526.688a34.848,34.848,0,0,0,3.155-2.728c.129-.125.255-.251.382-.375ZM2.7,55l-.859.108c.194,1.548.405,3.108.629,4.637l.857-.126C3.108,58.1,2.9,56.545,2.7,55Zm442.264,2.341a42.3,42.3,0,0,1-4.112,2.085l.35.792a43,43,0,0,0,4.2-2.128ZM436.542,61.1c-1.4.475-2.851.914-4.443,1.34l.224.836c1.61-.432,3.081-.875,4.5-1.358Zm-8.965,2.435c-1.376.3-2.871.607-4.569.932l.162.85c1.707-.326,3.209-.633,4.592-.937Zm-423.52.689L3.2,64.37c.26,1.539.539,3.088.83,4.606l.85-.163C4.594,67.3,4.316,65.758,4.057,64.226Zm414.358,1.088-1.4.25q-1.6.285-3.208.577l.155.851q1.61-.293,3.206-.577l1.395-.25Zm-9.2,1.7c-1.652.328-3.151.647-4.584.972l.193.844c1.424-.324,2.916-.641,4.559-.968Zm-9.135,2.1c-1.554.42-3.068.868-4.5,1.333l.268.823c1.416-.46,2.916-.9,4.456-1.32Zm-8.917,2.914c-1.477.58-2.926,1.207-4.308,1.864l.371.782c1.364-.647,2.8-1.267,4.254-1.84ZM5.814,73.379l-.846.182c.329,1.526.679,3.061,1.04,4.564l.841-.2C6.49,76.427,6.141,74.9,5.814,73.379ZM382.69,76.061c-1.361.777-2.7,1.613-3.982,2.486l.487.716c1.262-.86,2.582-1.684,3.924-2.45Zm-7.751,5.281c-1.2.972-2.393,2.01-3.532,3.087l.594.629c1.122-1.062,2.295-2.085,3.481-3.042ZM7.992,82.44l-.837.222c.4,1.506.824,3.022,1.258,4.509l.831-.243C8.812,85.449,8.39,83.939,7.992,82.44Zm360.134,5.34c-1.034,1.137-2.053,2.341-3.028,3.58l.681.535c.963-1.223,1.968-2.412,2.987-3.534Zm-357.518,3.6-.824.264c.474,1.485.974,2.978,1.483,4.439l.817-.285C11.576,94.347,11.079,92.859,10.607,91.382Zm351.713,3.753c-.866,1.26-1.72,2.584-2.538,3.938l.741.447c.809-1.339,1.653-2.649,2.51-3.9ZM13.674,100.179l-.81.306c.551,1.456,1.128,2.922,1.714,4.356l.8-.328C14.8,103.087,14.222,101.629,13.674,100.179Zm343.8,2.967c-.719,1.346-1.427,2.753-2.1,4.183l.782.37c.672-1.417,1.374-2.812,2.085-4.146ZM17.2,108.8l-.792.349c.629,1.425,1.284,2.858,1.949,4.257l.781-.371C18.479,111.644,17.827,110.219,17.2,108.8Zm336.251,2.8c-.593,1.405-1.179,2.867-1.738,4.346l.809.307c.555-1.469,1.136-2.921,1.726-4.316ZM21.2,117.216l-.771.392c.706,1.386,1.441,2.779,2.184,4.142l.76-.415C22.629,119.98,21.9,118.594,21.2,117.216Zm328.938,3.136c-.491,1.444-.973,2.943-1.435,4.454l.828.253c.459-1.5.938-2.992,1.427-4.429ZM25.657,125.391l-.747.436c.785,1.345,1.6,2.693,2.418,4.01l.734-.458C27.247,128.07,26.438,126.728,25.657,125.391ZM347.4,129.3c-.405,1.472-.8,3-1.185,4.53l.839.208c.379-1.526.776-3.043,1.179-4.509Zm-316.813,4-.721.478c.86,1.295,1.75,2.594,2.648,3.862l.706-.5C32.323,135.876,31.437,134.583,30.582,133.3Zm314.5,5.051c-.411,1.471-.888,2.952-1.417,4.4l.813.3c.538-1.471,1.022-2.972,1.438-4.465ZM35.96,140.9l-.692.52c.935,1.243,1.9,2.488,2.87,3.7l.676-.54C37.85,143.374,36.89,142.135,35.96,140.9Zm305.953,6.139c-.631,1.39-1.325,2.786-2.064,4.151l.761.412c.75-1.383,1.454-2.8,2.092-4.206ZM41.777,148.174l-.66.56c1.005,1.185,2.042,2.371,3.082,3.525l.643-.579C43.808,150.532,42.776,149.353,41.777,148.174Zm6.232,6.921-.626.6c1.073,1.123,2.178,2.247,3.283,3.339l.608-.615C50.175,157.33,49.076,156.213,48.009,155.1Zm289.491.094c-.815,1.288-1.692,2.58-2.607,3.84l.7.508c.926-1.275,1.813-2.582,2.639-3.885ZM54.635,161.642l-.589.633c1.134,1.058,2.3,2.116,3.471,3.145l.571-.65C56.926,163.747,55.764,162.695,54.635,161.642Zm277.42,1.061c-.967,1.179-1.993,2.359-3.047,3.508l.638.585c1.065-1.161,2.1-2.353,3.078-3.544ZM61.627,167.8l-.553.665c1.193.991,2.418,1.981,3.642,2.943l.536-.68C64.033,169.769,62.813,168.784,61.627,167.8Zm264.149,1.755c-1.086,1.069-2.228,2.139-3.393,3.18l.576.645c1.175-1.05,2.327-2.129,3.424-3.208ZM68.943,173.542l-.516.7c1.242.921,2.517,1.84,3.789,2.731l.5-.708C71.447,175.373,70.179,174.459,68.943,173.542Zm249.9,2.211c-1.184.966-2.418,1.931-3.666,2.867l.518.692c1.258-.943,2.5-1.915,3.7-2.889ZM76.557,178.875l-.478.722c1.293.854,2.615,1.7,3.934,2.526l.458-.734C79.159,180.571,77.842,179.725,76.557,178.875Zm234.84,2.462c-1.258.868-2.563,1.734-3.881,2.574l.465.73c1.327-.846,2.641-1.717,3.908-2.592ZM84.451,183.8l-.438.745c1.331.784,2.7,1.565,4.063,2.32l.419-.757C87.138,185.357,85.776,184.581,84.451,183.8Zm219.1,2.546c-1.319.778-2.681,1.553-4.051,2.3l.415.76c1.379-.755,2.749-1.534,4.075-2.317ZM92.6,188.317l-.4.767c1.375.717,2.78,1.429,4.177,2.115l.381-.777C95.364,189.74,93.965,189.031,92.6,188.317Zm202.778,2.507c-1.365.694-2.773,1.383-4.186,2.051l.37.783c1.42-.67,2.836-1.364,4.208-2.062Zm-194.412,1.6-.363.785c1.406.649,2.844,1.292,4.275,1.912l.344-.794C103.795,193.713,102.362,193.072,100.963,192.427Zm185.983,2.379c-1.406.617-2.85,1.227-4.294,1.816l.326.8c1.452-.591,2.9-1.205,4.316-1.825ZM109.52,196.132l-.325.8c1.436.582,2.9,1.157,4.361,1.71l.307-.809C112.411,197.284,110.949,196.711,109.52,196.132Zm168.792,2.193c-1.441.545-2.914,1.081-4.382,1.6l.286.817c1.474-.517,2.956-1.055,4.4-1.6Zm-160.07,1.113-.288.816c1.463.517,2.954,1.026,4.432,1.512l.271-.822C121.184,200.46,119.7,199.953,118.242,199.438Zm151.27,1.971c-1.467.475-2.965.942-4.454,1.387l.248.829c1.5-.447,3-.916,4.473-1.393Zm-142.407.944-.252.827c1.484.453,3,.9,4.495,1.318l.235-.833C130.089,203.245,128.583,202.8,127.1,202.353Zm133.47,1.73c-1.488.41-3,.81-4.51,1.189l.212.838c1.511-.38,3.035-.782,4.529-1.193Zm-124.49.8-.217.837c1.5.388,3.026.768,4.544,1.127l.2-.842C139.1,205.647,137.576,205.27,136.085,204.883Zm115.445,1.482c-1.505.346-3.039.682-4.557,1l.178.847c1.523-.318,3.062-.655,4.573-1Zm-106.37.671-.182.845c1.516.328,3.059.644,4.586.942l.165-.85C148.208,207.678,146.671,207.362,145.16,207.036ZM242.4,208.27c-1.517.284-3.062.558-4.594.814l.142.854c1.537-.257,3.088-.532,4.611-.818Zm-88.083.55-.149.853c1.523.266,3.075.521,4.615.759l.133-.855C157.379,209.34,155.831,209.085,154.314,208.82Zm78.881.989c-1.529.225-3.083.439-4.623.636l.11.858c1.544-.2,3.1-.412,4.638-.638Zm-69.669.434-.115.858c1.537.207,3.1.4,4.639.579l.1-.859C166.612,210.643,165.058,210.448,163.526,210.242Zm60.413.749c-1.539.167-3.1.322-4.642.46l.078.862c1.546-.139,3.114-.293,4.659-.462Zm-51.158.318-.082.861c1.544.149,3.109.284,4.654.4l.067-.862C175.88,211.592,174.319,211.457,172.78,211.309Zm41.866.516c-1.541.109-3.107.206-4.657.286l.045.865c1.556-.081,3.128-.178,4.673-.288Zm-32.583.2-.05.864c1.545.09,3.114.167,4.664.229l.034-.865C185.167,212.193,183.6,212.116,182.063,212.026Zm23.264.285c-1.545.052-3.112.091-4.657.114l.013.865c1.551-.023,3.123-.062,4.673-.114Zm-13.967.086-.019.865c1.543.034,3.113.053,4.665.058l0-.865C194.463,212.449,192.9,212.43,191.361,212.4Z" transform="matrix(0.035, -0.999, 0.999, 0.035, -167.981, 4335.171)" fill="#48c2c9"/>
    <g id="Repeat_Grid_6" data-name="Repeat Grid 6" transform="translate(998 4033)" clip-path="url(#clip-path)">
      <g transform="translate(-1129 -140)">
        <circle id="Ellipse_7" data-name="Ellipse 7" cx="3.5" cy="3.5" r="3.5" transform="translate(1129 140)" fill="rgba(72,194,201,0.19)"/>
      </g>
      <g transform="translate(-1099 -140)">
        <circle id="Ellipse_7-2" data-name="Ellipse 7" cx="3.5" cy="3.5" r="3.5" transform="translate(1129 140)" fill="rgba(72,194,201,0.19)"/>
      </g>
      <g transform="translate(-1069 -140)">
        <circle id="Ellipse_7-3" data-name="Ellipse 7" cx="3.5" cy="3.5" r="3.5" transform="translate(1129 140)" fill="rgba(72,194,201,0.19)"/>
      </g>
      <g transform="translate(-1039 -140)">
        <circle id="Ellipse_7-4" data-name="Ellipse 7" cx="3.5" cy="3.5" r="3.5" transform="translate(1129 140)" fill="rgba(72,194,201,0.19)"/>
      </g>
      <g transform="translate(-1009 -140)">
        <circle id="Ellipse_7-5" data-name="Ellipse 7" cx="3.5" cy="3.5" r="3.5" transform="translate(1129 140)" fill="rgba(72,194,201,0.19)"/>
      </g>
      <g transform="translate(-979 -140)">
        <circle id="Ellipse_7-6" data-name="Ellipse 7" cx="3.5" cy="3.5" r="3.5" transform="translate(1129 140)" fill="rgba(72,194,201,0.19)"/>
      </g>
      <g transform="translate(-949 -140)">
        <circle id="Ellipse_7-7" data-name="Ellipse 7" cx="3.5" cy="3.5" r="3.5" transform="translate(1129 140)" fill="rgba(72,194,201,0.19)"/>
      </g>
      <g transform="translate(-919 -140)">
        <circle id="Ellipse_7-8" data-name="Ellipse 7" cx="3.5" cy="3.5" r="3.5" transform="translate(1129 140)" fill="rgba(72,194,201,0.19)"/>
      </g>
      <g transform="translate(-889 -140)">
        <circle id="Ellipse_7-9" data-name="Ellipse 7" cx="3.5" cy="3.5" r="3.5" transform="translate(1129 140)" fill="rgba(72,194,201,0.19)"/>
      </g>
      <g transform="translate(-859 -140)">
        <circle id="Ellipse_7-10" data-name="Ellipse 7" cx="3.5" cy="3.5" r="3.5" transform="translate(1129 140)" fill="rgba(72,194,201,0.19)"/>
      </g>
      <g transform="translate(-1129 -110)">
        <circle id="Ellipse_7-11" data-name="Ellipse 7" cx="3.5" cy="3.5" r="3.5" transform="translate(1129 140)" fill="rgba(72,194,201,0.19)"/>
      </g>
      <g transform="translate(-1099 -110)">
        <circle id="Ellipse_7-12" data-name="Ellipse 7" cx="3.5" cy="3.5" r="3.5" transform="translate(1129 140)" fill="rgba(72,194,201,0.19)"/>
      </g>
      <g transform="translate(-1069 -110)">
        <circle id="Ellipse_7-13" data-name="Ellipse 7" cx="3.5" cy="3.5" r="3.5" transform="translate(1129 140)" fill="rgba(72,194,201,0.19)"/>
      </g>
      <g transform="translate(-1039 -110)">
        <circle id="Ellipse_7-14" data-name="Ellipse 7" cx="3.5" cy="3.5" r="3.5" transform="translate(1129 140)" fill="rgba(72,194,201,0.19)"/>
      </g>
      <g transform="translate(-1009 -110)">
        <circle id="Ellipse_7-15" data-name="Ellipse 7" cx="3.5" cy="3.5" r="3.5" transform="translate(1129 140)" fill="rgba(72,194,201,0.19)"/>
      </g>
      <g transform="translate(-979 -110)">
        <circle id="Ellipse_7-16" data-name="Ellipse 7" cx="3.5" cy="3.5" r="3.5" transform="translate(1129 140)" fill="rgba(72,194,201,0.19)"/>
      </g>
      <g transform="translate(-949 -110)">
        <circle id="Ellipse_7-17" data-name="Ellipse 7" cx="3.5" cy="3.5" r="3.5" transform="translate(1129 140)" fill="rgba(72,194,201,0.19)"/>
      </g>
      <g transform="translate(-919 -110)">
        <circle id="Ellipse_7-18" data-name="Ellipse 7" cx="3.5" cy="3.5" r="3.5" transform="translate(1129 140)" fill="rgba(72,194,201,0.19)"/>
      </g>
      <g transform="translate(-889 -110)">
        <circle id="Ellipse_7-19" data-name="Ellipse 7" cx="3.5" cy="3.5" r="3.5" transform="translate(1129 140)" fill="rgba(72,194,201,0.19)"/>
      </g>
      <g transform="translate(-859 -110)">
        <circle id="Ellipse_7-20" data-name="Ellipse 7" cx="3.5" cy="3.5" r="3.5" transform="translate(1129 140)" fill="rgba(72,194,201,0.19)"/>
      </g>
      <g transform="translate(-1129 -80)">
        <circle id="Ellipse_7-21" data-name="Ellipse 7" cx="3.5" cy="3.5" r="3.5" transform="translate(1129 140)" fill="rgba(72,194,201,0.19)"/>
      </g>
      <g transform="translate(-1099 -80)">
        <circle id="Ellipse_7-22" data-name="Ellipse 7" cx="3.5" cy="3.5" r="3.5" transform="translate(1129 140)" fill="rgba(72,194,201,0.19)"/>
      </g>
      <g transform="translate(-1069 -80)">
        <circle id="Ellipse_7-23" data-name="Ellipse 7" cx="3.5" cy="3.5" r="3.5" transform="translate(1129 140)" fill="rgba(72,194,201,0.19)"/>
      </g>
      <g transform="translate(-1039 -80)">
        <circle id="Ellipse_7-24" data-name="Ellipse 7" cx="3.5" cy="3.5" r="3.5" transform="translate(1129 140)" fill="rgba(72,194,201,0.19)"/>
      </g>
      <g transform="translate(-1009 -80)">
        <circle id="Ellipse_7-25" data-name="Ellipse 7" cx="3.5" cy="3.5" r="3.5" transform="translate(1129 140)" fill="rgba(72,194,201,0.19)"/>
      </g>
      <g transform="translate(-979 -80)">
        <circle id="Ellipse_7-26" data-name="Ellipse 7" cx="3.5" cy="3.5" r="3.5" transform="translate(1129 140)" fill="rgba(72,194,201,0.19)"/>
      </g>
      <g transform="translate(-949 -80)">
        <circle id="Ellipse_7-27" data-name="Ellipse 7" cx="3.5" cy="3.5" r="3.5" transform="translate(1129 140)" fill="rgba(72,194,201,0.19)"/>
      </g>
      <g transform="translate(-919 -80)">
        <circle id="Ellipse_7-28" data-name="Ellipse 7" cx="3.5" cy="3.5" r="3.5" transform="translate(1129 140)" fill="rgba(72,194,201,0.19)"/>
      </g>
      <g transform="translate(-889 -80)">
        <circle id="Ellipse_7-29" data-name="Ellipse 7" cx="3.5" cy="3.5" r="3.5" transform="translate(1129 140)" fill="rgba(72,194,201,0.19)"/>
      </g>
      <g transform="translate(-859 -80)">
        <circle id="Ellipse_7-30" data-name="Ellipse 7" cx="3.5" cy="3.5" r="3.5" transform="translate(1129 140)" fill="rgba(72,194,201,0.19)"/>
      </g>
      <g transform="translate(-1129 -50)">
        <circle id="Ellipse_7-31" data-name="Ellipse 7" cx="3.5" cy="3.5" r="3.5" transform="translate(1129 140)" fill="rgba(72,194,201,0.19)"/>
      </g>
      <g transform="translate(-1099 -50)">
        <circle id="Ellipse_7-32" data-name="Ellipse 7" cx="3.5" cy="3.5" r="3.5" transform="translate(1129 140)" fill="rgba(72,194,201,0.19)"/>
      </g>
      <g transform="translate(-1069 -50)">
        <circle id="Ellipse_7-33" data-name="Ellipse 7" cx="3.5" cy="3.5" r="3.5" transform="translate(1129 140)" fill="rgba(72,194,201,0.19)"/>
      </g>
      <g transform="translate(-1039 -50)">
        <circle id="Ellipse_7-34" data-name="Ellipse 7" cx="3.5" cy="3.5" r="3.5" transform="translate(1129 140)" fill="rgba(72,194,201,0.19)"/>
      </g>
      <g transform="translate(-1009 -50)">
        <circle id="Ellipse_7-35" data-name="Ellipse 7" cx="3.5" cy="3.5" r="3.5" transform="translate(1129 140)" fill="rgba(72,194,201,0.19)"/>
      </g>
      <g transform="translate(-979 -50)">
        <circle id="Ellipse_7-36" data-name="Ellipse 7" cx="3.5" cy="3.5" r="3.5" transform="translate(1129 140)" fill="rgba(72,194,201,0.19)"/>
      </g>
      <g transform="translate(-949 -50)">
        <circle id="Ellipse_7-37" data-name="Ellipse 7" cx="3.5" cy="3.5" r="3.5" transform="translate(1129 140)" fill="rgba(72,194,201,0.19)"/>
      </g>
      <g transform="translate(-919 -50)">
        <circle id="Ellipse_7-38" data-name="Ellipse 7" cx="3.5" cy="3.5" r="3.5" transform="translate(1129 140)" fill="rgba(72,194,201,0.19)"/>
      </g>
      <g transform="translate(-889 -50)">
        <circle id="Ellipse_7-39" data-name="Ellipse 7" cx="3.5" cy="3.5" r="3.5" transform="translate(1129 140)" fill="rgba(72,194,201,0.19)"/>
      </g>
      <g transform="translate(-859 -50)">
        <circle id="Ellipse_7-40" data-name="Ellipse 7" cx="3.5" cy="3.5" r="3.5" transform="translate(1129 140)" fill="rgba(72,194,201,0.19)"/>
      </g>
    </g>
    <path id="Icon_awesome-cloud" data-name="Icon awesome-cloud" d="M37.8,15.933A6.758,6.758,0,0,0,31.5,6.75a6.716,6.716,0,0,0-3.748,1.139,11.251,11.251,0,0,0-21,5.611c0,.19.007.38.014.57a10.128,10.128,0,0,0,3.361,19.68H36a9,9,0,0,0,1.8-17.817Z" transform="translate(220 3958.75)" fill="rgba(72,194,201,0.18)"/>
  </g>
</svg>
