<svg xmlns="http://www.w3.org/2000/svg" xmlns:xlink="http://www.w3.org/1999/xlink" width="1484" height="699" viewBox="0 0 1484 699">
  <defs>
    <linearGradient id="linear-gradient" x1="0.542" y1="-2.099" x2="0.54" y2="0.66" gradientUnits="objectBoundingBox">
      <stop offset="0" stop-color="#48c2c9"/>
      <stop offset="1" stop-color="#fff" stop-opacity="0"/>
    </linearGradient>
    <clipPath id="clip-path">
      <rect width="298" height="187" fill="none"/>
    </clipPath>
  </defs>
  <g id="bg-items" transform="translate(59 -2172)">
    <path id="Union_3" data-name="Union 3" d="M713.163,301.427A118.635,118.635,0,0,1,545.19,249.368a119.188,119.188,0,0,1-73.965,4.931,104.648,104.648,0,0,1-183.061-8.919,104.182,104.182,0,0,1-66.4,23.771,105.353,105.353,0,0,1-17.125-1.395,104.546,104.546,0,1,1-82.907-133.877A104.65,104.65,0,0,1,315.756,118.6a104.182,104.182,0,0,1,66.4-23.771q4.316,0,8.549.344a118.608,118.608,0,0,1,217.55-5.664A118.733,118.733,0,0,1,726.475,106.6a194.611,194.611,0,0,1,310.908-15.492,104.117,104.117,0,0,1,57.485-17.195q4.316,0,8.549.344a118.608,118.608,0,0,1,217.55-5.664A118.547,118.547,0,1,1,1257.9,228.449a119.188,119.188,0,0,1-73.965,4.931,104.792,104.792,0,0,1-112.728,47.029,194.654,194.654,0,0,1-358.045,21.018Z" transform="translate(-59 2461)" fill="url(#linear-gradient)"/>
    <path id="Icon_awesome-cloud" data-name="Icon awesome-cloud" d="M37.8,15.933A6.758,6.758,0,0,0,31.5,6.75a6.716,6.716,0,0,0-3.748,1.139,11.251,11.251,0,0,0-21,5.611c0,.19.007.38.014.57a10.128,10.128,0,0,0,3.361,19.68H36a9,9,0,0,0,1.8-17.817Z" transform="translate(990 2169.75)" fill="#f5f5f5" opacity="0.2"/>
    <g id="Repeat_Grid_5" data-name="Repeat Grid 5" transform="translate(60 2212)" clip-path="url(#clip-path)">
      <g transform="translate(-1129 -140)">
        <circle id="Ellipse_7" data-name="Ellipse 7" cx="3.5" cy="3.5" r="3.5" transform="translate(1129 140)" fill="rgba(255,255,255,0.21)"/>
      </g>
      <g transform="translate(-1099 -140)">
        <circle id="Ellipse_7-2" data-name="Ellipse 7" cx="3.5" cy="3.5" r="3.5" transform="translate(1129 140)" fill="rgba(255,255,255,0.21)"/>
      </g>
      <g transform="translate(-1069 -140)">
        <circle id="Ellipse_7-3" data-name="Ellipse 7" cx="3.5" cy="3.5" r="3.5" transform="translate(1129 140)" fill="rgba(255,255,255,0.21)"/>
      </g>
      <g transform="translate(-1039 -140)">
        <circle id="Ellipse_7-4" data-name="Ellipse 7" cx="3.5" cy="3.5" r="3.5" transform="translate(1129 140)" fill="rgba(255,255,255,0.21)"/>
      </g>
      <g transform="translate(-1009 -140)">
        <circle id="Ellipse_7-5" data-name="Ellipse 7" cx="3.5" cy="3.5" r="3.5" transform="translate(1129 140)" fill="rgba(255,255,255,0.21)"/>
      </g>
      <g transform="translate(-979 -140)">
        <circle id="Ellipse_7-6" data-name="Ellipse 7" cx="3.5" cy="3.5" r="3.5" transform="translate(1129 140)" fill="rgba(255,255,255,0.21)"/>
      </g>
      <g transform="translate(-949 -140)">
        <circle id="Ellipse_7-7" data-name="Ellipse 7" cx="3.5" cy="3.5" r="3.5" transform="translate(1129 140)" fill="rgba(255,255,255,0.21)"/>
      </g>
      <g transform="translate(-919 -140)">
        <circle id="Ellipse_7-8" data-name="Ellipse 7" cx="3.5" cy="3.5" r="3.5" transform="translate(1129 140)" fill="rgba(255,255,255,0.21)"/>
      </g>
      <g transform="translate(-889 -140)">
        <circle id="Ellipse_7-9" data-name="Ellipse 7" cx="3.5" cy="3.5" r="3.5" transform="translate(1129 140)" fill="rgba(255,255,255,0.21)"/>
      </g>
      <g transform="translate(-859 -140)">
        <circle id="Ellipse_7-10" data-name="Ellipse 7" cx="3.5" cy="3.5" r="3.5" transform="translate(1129 140)" fill="rgba(255,255,255,0.21)"/>
      </g>
      <g transform="translate(-1129 -110)">
        <circle id="Ellipse_7-11" data-name="Ellipse 7" cx="3.5" cy="3.5" r="3.5" transform="translate(1129 140)" fill="rgba(255,255,255,0.21)"/>
      </g>
      <g transform="translate(-1099 -110)">
        <circle id="Ellipse_7-12" data-name="Ellipse 7" cx="3.5" cy="3.5" r="3.5" transform="translate(1129 140)" fill="rgba(255,255,255,0.21)"/>
      </g>
      <g transform="translate(-1069 -110)">
        <circle id="Ellipse_7-13" data-name="Ellipse 7" cx="3.5" cy="3.5" r="3.5" transform="translate(1129 140)" fill="rgba(255,255,255,0.21)"/>
      </g>
      <g transform="translate(-1039 -110)">
        <circle id="Ellipse_7-14" data-name="Ellipse 7" cx="3.5" cy="3.5" r="3.5" transform="translate(1129 140)" fill="rgba(255,255,255,0.21)"/>
      </g>
      <g transform="translate(-1009 -110)">
        <circle id="Ellipse_7-15" data-name="Ellipse 7" cx="3.5" cy="3.5" r="3.5" transform="translate(1129 140)" fill="rgba(255,255,255,0.21)"/>
      </g>
      <g transform="translate(-979 -110)">
        <circle id="Ellipse_7-16" data-name="Ellipse 7" cx="3.5" cy="3.5" r="3.5" transform="translate(1129 140)" fill="rgba(255,255,255,0.21)"/>
      </g>
      <g transform="translate(-949 -110)">
        <circle id="Ellipse_7-17" data-name="Ellipse 7" cx="3.5" cy="3.5" r="3.5" transform="translate(1129 140)" fill="rgba(255,255,255,0.21)"/>
      </g>
      <g transform="translate(-919 -110)">
        <circle id="Ellipse_7-18" data-name="Ellipse 7" cx="3.5" cy="3.5" r="3.5" transform="translate(1129 140)" fill="rgba(255,255,255,0.21)"/>
      </g>
      <g transform="translate(-889 -110)">
        <circle id="Ellipse_7-19" data-name="Ellipse 7" cx="3.5" cy="3.5" r="3.5" transform="translate(1129 140)" fill="rgba(255,255,255,0.21)"/>
      </g>
      <g transform="translate(-859 -110)">
        <circle id="Ellipse_7-20" data-name="Ellipse 7" cx="3.5" cy="3.5" r="3.5" transform="translate(1129 140)" fill="rgba(255,255,255,0.21)"/>
      </g>
      <g transform="translate(-1129 -80)">
        <circle id="Ellipse_7-21" data-name="Ellipse 7" cx="3.5" cy="3.5" r="3.5" transform="translate(1129 140)" fill="rgba(255,255,255,0.21)"/>
      </g>
      <g transform="translate(-1099 -80)">
        <circle id="Ellipse_7-22" data-name="Ellipse 7" cx="3.5" cy="3.5" r="3.5" transform="translate(1129 140)" fill="rgba(255,255,255,0.21)"/>
      </g>
      <g transform="translate(-1069 -80)">
        <circle id="Ellipse_7-23" data-name="Ellipse 7" cx="3.5" cy="3.5" r="3.5" transform="translate(1129 140)" fill="rgba(255,255,255,0.21)"/>
      </g>
      <g transform="translate(-1039 -80)">
        <circle id="Ellipse_7-24" data-name="Ellipse 7" cx="3.5" cy="3.5" r="3.5" transform="translate(1129 140)" fill="rgba(255,255,255,0.21)"/>
      </g>
      <g transform="translate(-1009 -80)">
        <circle id="Ellipse_7-25" data-name="Ellipse 7" cx="3.5" cy="3.5" r="3.5" transform="translate(1129 140)" fill="rgba(255,255,255,0.21)"/>
      </g>
      <g transform="translate(-979 -80)">
        <circle id="Ellipse_7-26" data-name="Ellipse 7" cx="3.5" cy="3.5" r="3.5" transform="translate(1129 140)" fill="rgba(255,255,255,0.21)"/>
      </g>
      <g transform="translate(-949 -80)">
        <circle id="Ellipse_7-27" data-name="Ellipse 7" cx="3.5" cy="3.5" r="3.5" transform="translate(1129 140)" fill="rgba(255,255,255,0.21)"/>
      </g>
      <g transform="translate(-919 -80)">
        <circle id="Ellipse_7-28" data-name="Ellipse 7" cx="3.5" cy="3.5" r="3.5" transform="translate(1129 140)" fill="rgba(255,255,255,0.21)"/>
      </g>
      <g transform="translate(-889 -80)">
        <circle id="Ellipse_7-29" data-name="Ellipse 7" cx="3.5" cy="3.5" r="3.5" transform="translate(1129 140)" fill="rgba(255,255,255,0.21)"/>
      </g>
      <g transform="translate(-859 -80)">
        <circle id="Ellipse_7-30" data-name="Ellipse 7" cx="3.5" cy="3.5" r="3.5" transform="translate(1129 140)" fill="rgba(255,255,255,0.21)"/>
      </g>
      <g transform="translate(-1129 -50)">
        <circle id="Ellipse_7-31" data-name="Ellipse 7" cx="3.5" cy="3.5" r="3.5" transform="translate(1129 140)" fill="rgba(255,255,255,0.21)"/>
      </g>
      <g transform="translate(-1099 -50)">
        <circle id="Ellipse_7-32" data-name="Ellipse 7" cx="3.5" cy="3.5" r="3.5" transform="translate(1129 140)" fill="rgba(255,255,255,0.21)"/>
      </g>
      <g transform="translate(-1069 -50)">
        <circle id="Ellipse_7-33" data-name="Ellipse 7" cx="3.5" cy="3.5" r="3.5" transform="translate(1129 140)" fill="rgba(255,255,255,0.21)"/>
      </g>
      <g transform="translate(-1039 -50)">
        <circle id="Ellipse_7-34" data-name="Ellipse 7" cx="3.5" cy="3.5" r="3.5" transform="translate(1129 140)" fill="rgba(255,255,255,0.21)"/>
      </g>
      <g transform="translate(-1009 -50)">
        <circle id="Ellipse_7-35" data-name="Ellipse 7" cx="3.5" cy="3.5" r="3.5" transform="translate(1129 140)" fill="rgba(255,255,255,0.21)"/>
      </g>
      <g transform="translate(-979 -50)">
        <circle id="Ellipse_7-36" data-name="Ellipse 7" cx="3.5" cy="3.5" r="3.5" transform="translate(1129 140)" fill="rgba(255,255,255,0.21)"/>
      </g>
      <g transform="translate(-949 -50)">
        <circle id="Ellipse_7-37" data-name="Ellipse 7" cx="3.5" cy="3.5" r="3.5" transform="translate(1129 140)" fill="rgba(255,255,255,0.21)"/>
      </g>
      <g transform="translate(-919 -50)">
        <circle id="Ellipse_7-38" data-name="Ellipse 7" cx="3.5" cy="3.5" r="3.5" transform="translate(1129 140)" fill="rgba(255,255,255,0.21)"/>
      </g>
      <g transform="translate(-889 -50)">
        <circle id="Ellipse_7-39" data-name="Ellipse 7" cx="3.5" cy="3.5" r="3.5" transform="translate(1129 140)" fill="rgba(255,255,255,0.21)"/>
      </g>
      <g transform="translate(-859 -50)">
        <circle id="Ellipse_7-40" data-name="Ellipse 7" cx="3.5" cy="3.5" r="3.5" transform="translate(1129 140)" fill="rgba(255,255,255,0.21)"/>
      </g>
      <g transform="translate(-1129 -20)">
        <circle id="Ellipse_7-41" data-name="Ellipse 7" cx="3.5" cy="3.5" r="3.5" transform="translate(1129 140)" fill="rgba(255,255,255,0.21)"/>
      </g>
      <g transform="translate(-1099 -20)">
        <circle id="Ellipse_7-42" data-name="Ellipse 7" cx="3.5" cy="3.5" r="3.5" transform="translate(1129 140)" fill="rgba(255,255,255,0.21)"/>
      </g>
      <g transform="translate(-1069 -20)">
        <circle id="Ellipse_7-43" data-name="Ellipse 7" cx="3.5" cy="3.5" r="3.5" transform="translate(1129 140)" fill="rgba(255,255,255,0.21)"/>
      </g>
      <g transform="translate(-1039 -20)">
        <circle id="Ellipse_7-44" data-name="Ellipse 7" cx="3.5" cy="3.5" r="3.5" transform="translate(1129 140)" fill="rgba(255,255,255,0.21)"/>
      </g>
      <g transform="translate(-1009 -20)">
        <circle id="Ellipse_7-45" data-name="Ellipse 7" cx="3.5" cy="3.5" r="3.5" transform="translate(1129 140)" fill="rgba(255,255,255,0.21)"/>
      </g>
      <g transform="translate(-979 -20)">
        <circle id="Ellipse_7-46" data-name="Ellipse 7" cx="3.5" cy="3.5" r="3.5" transform="translate(1129 140)" fill="rgba(255,255,255,0.21)"/>
      </g>
      <g transform="translate(-949 -20)">
        <circle id="Ellipse_7-47" data-name="Ellipse 7" cx="3.5" cy="3.5" r="3.5" transform="translate(1129 140)" fill="rgba(255,255,255,0.21)"/>
      </g>
      <g transform="translate(-919 -20)">
        <circle id="Ellipse_7-48" data-name="Ellipse 7" cx="3.5" cy="3.5" r="3.5" transform="translate(1129 140)" fill="rgba(255,255,255,0.21)"/>
      </g>
      <g transform="translate(-889 -20)">
        <circle id="Ellipse_7-49" data-name="Ellipse 7" cx="3.5" cy="3.5" r="3.5" transform="translate(1129 140)" fill="rgba(255,255,255,0.21)"/>
      </g>
      <g transform="translate(-859 -20)">
        <circle id="Ellipse_7-50" data-name="Ellipse 7" cx="3.5" cy="3.5" r="3.5" transform="translate(1129 140)" fill="rgba(255,255,255,0.21)"/>
      </g>
      <g transform="translate(-1129 10)">
        <circle id="Ellipse_7-51" data-name="Ellipse 7" cx="3.5" cy="3.5" r="3.5" transform="translate(1129 140)" fill="rgba(255,255,255,0.21)"/>
      </g>
      <g transform="translate(-1099 10)">
        <circle id="Ellipse_7-52" data-name="Ellipse 7" cx="3.5" cy="3.5" r="3.5" transform="translate(1129 140)" fill="rgba(255,255,255,0.21)"/>
      </g>
      <g transform="translate(-1069 10)">
        <circle id="Ellipse_7-53" data-name="Ellipse 7" cx="3.5" cy="3.5" r="3.5" transform="translate(1129 140)" fill="rgba(255,255,255,0.21)"/>
      </g>
      <g transform="translate(-1039 10)">
        <circle id="Ellipse_7-54" data-name="Ellipse 7" cx="3.5" cy="3.5" r="3.5" transform="translate(1129 140)" fill="rgba(255,255,255,0.21)"/>
      </g>
      <g transform="translate(-1009 10)">
        <circle id="Ellipse_7-55" data-name="Ellipse 7" cx="3.5" cy="3.5" r="3.5" transform="translate(1129 140)" fill="rgba(255,255,255,0.21)"/>
      </g>
      <g transform="translate(-979 10)">
        <circle id="Ellipse_7-56" data-name="Ellipse 7" cx="3.5" cy="3.5" r="3.5" transform="translate(1129 140)" fill="rgba(255,255,255,0.21)"/>
      </g>
      <g transform="translate(-949 10)">
        <circle id="Ellipse_7-57" data-name="Ellipse 7" cx="3.5" cy="3.5" r="3.5" transform="translate(1129 140)" fill="rgba(255,255,255,0.21)"/>
      </g>
      <g transform="translate(-919 10)">
        <circle id="Ellipse_7-58" data-name="Ellipse 7" cx="3.5" cy="3.5" r="3.5" transform="translate(1129 140)" fill="rgba(255,255,255,0.21)"/>
      </g>
      <g transform="translate(-889 10)">
        <circle id="Ellipse_7-59" data-name="Ellipse 7" cx="3.5" cy="3.5" r="3.5" transform="translate(1129 140)" fill="rgba(255,255,255,0.21)"/>
      </g>
      <g transform="translate(-859 10)">
        <circle id="Ellipse_7-60" data-name="Ellipse 7" cx="3.5" cy="3.5" r="3.5" transform="translate(1129 140)" fill="rgba(255,255,255,0.21)"/>
      </g>
      <g transform="translate(-1129 40)">
        <circle id="Ellipse_7-61" data-name="Ellipse 7" cx="3.5" cy="3.5" r="3.5" transform="translate(1129 140)" fill="rgba(255,255,255,0.21)"/>
      </g>
      <g transform="translate(-1099 40)">
        <circle id="Ellipse_7-62" data-name="Ellipse 7" cx="3.5" cy="3.5" r="3.5" transform="translate(1129 140)" fill="rgba(255,255,255,0.21)"/>
      </g>
      <g transform="translate(-1069 40)">
        <circle id="Ellipse_7-63" data-name="Ellipse 7" cx="3.5" cy="3.5" r="3.5" transform="translate(1129 140)" fill="rgba(255,255,255,0.21)"/>
      </g>
      <g transform="translate(-1039 40)">
        <circle id="Ellipse_7-64" data-name="Ellipse 7" cx="3.5" cy="3.5" r="3.5" transform="translate(1129 140)" fill="rgba(255,255,255,0.21)"/>
      </g>
      <g transform="translate(-1009 40)">
        <circle id="Ellipse_7-65" data-name="Ellipse 7" cx="3.5" cy="3.5" r="3.5" transform="translate(1129 140)" fill="rgba(255,255,255,0.21)"/>
      </g>
      <g transform="translate(-979 40)">
        <circle id="Ellipse_7-66" data-name="Ellipse 7" cx="3.5" cy="3.5" r="3.5" transform="translate(1129 140)" fill="rgba(255,255,255,0.21)"/>
      </g>
      <g transform="translate(-949 40)">
        <circle id="Ellipse_7-67" data-name="Ellipse 7" cx="3.5" cy="3.5" r="3.5" transform="translate(1129 140)" fill="rgba(255,255,255,0.21)"/>
      </g>
      <g transform="translate(-919 40)">
        <circle id="Ellipse_7-68" data-name="Ellipse 7" cx="3.5" cy="3.5" r="3.5" transform="translate(1129 140)" fill="rgba(255,255,255,0.21)"/>
      </g>
      <g transform="translate(-889 40)">
        <circle id="Ellipse_7-69" data-name="Ellipse 7" cx="3.5" cy="3.5" r="3.5" transform="translate(1129 140)" fill="rgba(255,255,255,0.21)"/>
      </g>
      <g transform="translate(-859 40)">
        <circle id="Ellipse_7-70" data-name="Ellipse 7" cx="3.5" cy="3.5" r="3.5" transform="translate(1129 140)" fill="rgba(255,255,255,0.21)"/>
      </g>
    </g>
  </g>
</svg>
