<svg xmlns="http://www.w3.org/2000/svg" xmlns:xlink="http://www.w3.org/1999/xlink" width="717" height="198" viewBox="0 0 717 198">
  <defs>
    <linearGradient id="linear-gradient" x1="0.542" y1="-2.099" x2="0.536" y2="1.167" gradientUnits="objectBoundingBox">
      <stop offset="0" stop-color="#48c2c9" stop-opacity="0.659"/>
      <stop offset="1" stop-color="#fff" stop-opacity="0"/>
    </linearGradient>
  </defs>
  <path id="Union_1" data-name="Union 1" d="M344.567,145.567a57.333,57.333,0,0,1-81.156-25.141,57.61,57.61,0,0,1-35.737,2.381,50.573,50.573,0,0,1-88.447-4.308,50.35,50.35,0,0,1-32.082,11.48,50.923,50.923,0,0,1-8.274-.674A50.5,50.5,0,1,1,58.814,64.653a50.571,50.571,0,0,1,93.744-7.378A50.35,50.35,0,0,1,184.641,45.8q2.085,0,4.13.166a57.317,57.317,0,0,1,105.11-2.736A57.388,57.388,0,0,1,351,51.479,94.053,94.053,0,0,1,501.215,44a50.323,50.323,0,0,1,27.774-8.3q2.085,0,4.13.166a57.317,57.317,0,0,1,105.11-2.735,57.247,57.247,0,1,1-30.471,77.2,57.611,57.611,0,0,1-35.736,2.381,50.645,50.645,0,0,1-54.465,22.712,94.065,94.065,0,0,1-172.991,10.15Z" fill="url(#linear-gradient)"/>
</svg>
