<svg xmlns="http://www.w3.org/2000/svg" width="531" height="372.608" viewBox="0 0 531 372.608">
  <g id="contact-us" transform="translate(-99 -5436)">
    <g id="Group_1386" data-name="Group 1386" transform="translate(145.523 5504.863)">
      <path id="Icon_ionic-ios-send" data-name="Icon ionic-ios-send" d="M79.084,4.675,5.458,36.765a1.688,1.688,0,0,0,.06,3.069L25.434,51.085a3.211,3.211,0,0,0,3.67-.361l39.27-33.855c.261-.221.882-.642,1.123-.4.261.261-.14.862-.361,1.123L35.161,55.858a3.2,3.2,0,0,0-.321,3.831L47.857,80.567a1.694,1.694,0,0,0,3.049-.04L81.35,6.9A1.688,1.688,0,0,0,79.084,4.675Z" transform="translate(402.966 -11.365)" fill="#e8e8e8" opacity="0.39"/>
    </g>
    <g id="Group_2630" data-name="Group 2630" transform="translate(99 5381.047)">
      <g id="Background_Complete" data-name="Background Complete">
        <g id="Group_2609" data-name="Group 2609">
          <rect id="Rectangle_538" data-name="Rectangle 538" width="500" height="0.25" transform="translate(0 382.398)" fill="#ebebeb"/>
          <rect id="Rectangle_539" data-name="Rectangle 539" width="33.122" height="0.25" transform="translate(104.545 389.208)" fill="#ebebeb"/>
          <rect id="Rectangle_540" data-name="Rectangle 540" width="40.749" height="0.25" transform="translate(171.14 398.369)" fill="#ebebeb"/>
          <rect id="Rectangle_541" data-name="Rectangle 541" width="51.085" height="0.25" transform="translate(52.459 395.236)" fill="#ebebeb"/>
          <rect id="Rectangle_542" data-name="Rectangle 542" width="93.14" height="0.25" transform="translate(356.762 390.888)" fill="#ebebeb"/>
          <rect id="Rectangle_543" data-name="Rectangle 543" width="6.333" height="0.25" transform="translate(341.525 390.888)" fill="#ebebeb"/>
          <rect id="Rectangle_544" data-name="Rectangle 544" width="42.231" height="0.25" transform="translate(277.213 395.111)" fill="#ebebeb"/>
          <path id="Path_2540" data-name="Path 2540" d="M237.014,337.8H43.915a5.715,5.715,0,0,1-5.708-5.708V60.66a5.714,5.714,0,0,1,5.708-5.707h193.1a5.714,5.714,0,0,1,5.707,5.707V332.092A5.715,5.715,0,0,1,237.014,337.8ZM43.915,55.2a5.463,5.463,0,0,0-5.458,5.457V332.092a5.464,5.464,0,0,0,5.458,5.458h193.1a5.463,5.463,0,0,0,5.457-5.458V60.66a5.463,5.463,0,0,0-5.457-5.457Z" fill="#ebebeb"/>
          <path id="Path_2541" data-name="Path 2541" d="M453.31,337.8h-193.1a5.714,5.714,0,0,1-5.707-5.708V60.66a5.713,5.713,0,0,1,5.707-5.707h193.1a5.714,5.714,0,0,1,5.709,5.707V332.092A5.715,5.715,0,0,1,453.31,337.8ZM260.212,55.2a5.463,5.463,0,0,0-5.457,5.457V332.092a5.463,5.463,0,0,0,5.457,5.458h193.1a5.464,5.464,0,0,0,5.459-5.458V60.66A5.464,5.464,0,0,0,453.31,55.2Z" fill="#ebebeb"/>
        </g>
        <g id="Group_2622" data-name="Group 2622">
          <g id="Group_2615" data-name="Group 2615">
            <g id="Group_2614" data-name="Group 2614">
              <rect id="Rectangle_545" data-name="Rectangle 545" width="201.176" height="80.748" transform="translate(230.391 181.222) rotate(90)" fill="#f0f0f0"/>
              <rect id="Rectangle_546" data-name="Rectangle 546" width="59.22" height="71.884" transform="translate(225.959 186.268) rotate(90)" fill="#e6e6e6"/>
              <rect id="Rectangle_547" data-name="Rectangle 547" width="59.22" height="71.884" transform="translate(225.959 250.803) rotate(90)" fill="#e6e6e6"/>
              <rect id="Rectangle_548" data-name="Rectangle 548" width="59.22" height="71.884" transform="translate(225.959 315.339) rotate(90)" fill="#e6e6e6"/>
              <rect id="Rectangle_549" data-name="Rectangle 549" width="59.22" height="28.274" transform="translate(225.959 186.268) rotate(90)" fill="#e0e0e0"/>
              <rect id="Rectangle_550" data-name="Rectangle 550" width="59.22" height="28.274" transform="translate(225.959 250.803) rotate(90)" fill="#e0e0e0"/>
              <g id="Group_2613" data-name="Group 2613">
                <g id="Group_2610" data-name="Group 2610">
                  <rect id="Rectangle_551" data-name="Rectangle 551" width="19.585" height="23.655" transform="translate(165.441 286.368)" fill="#fafafa"/>
                  <rect id="Rectangle_552" data-name="Rectangle 552" width="8.269" height="23.655" transform="translate(165.441 310.023) rotate(180)" fill="#f0f0f0"/>
                </g>
                <g id="Group_2611" data-name="Group 2611">
                  <rect id="Rectangle_553" data-name="Rectangle 553" width="19.585" height="23.655" transform="translate(197.082 286.368)" fill="#fafafa"/>
                  <rect id="Rectangle_554" data-name="Rectangle 554" width="8.269" height="23.655" transform="translate(197.082 310.023) rotate(180)" fill="#f0f0f0"/>
                </g>
                <g id="Group_2612" data-name="Group 2612">
                  <rect id="Rectangle_555" data-name="Rectangle 555" width="19.585" height="23.655" transform="translate(181.607 262.713)" fill="#fafafa"/>
                  <rect id="Rectangle_556" data-name="Rectangle 556" width="8.269" height="23.655" transform="translate(181.607 286.368) rotate(180)" fill="#f0f0f0"/>
                </g>
              </g>
              <rect id="Rectangle_557" data-name="Rectangle 557" width="59.22" height="28.274" transform="translate(225.959 315.339) rotate(90)" fill="#e0e0e0"/>
              <rect id="Rectangle_558" data-name="Rectangle 558" width="201.176" height="21.925" transform="translate(149.643 181.222) rotate(90)" fill="#f5f5f5"/>
            </g>
            <rect id="Rectangle_559" data-name="Rectangle 559" width="58.368" height="50.682" transform="translate(162.712 323.876)" fill="#f0f0f0"/>
            <rect id="Rectangle_560" data-name="Rectangle 560" width="8.637" height="50.682" transform="translate(162.712 374.558) rotate(180)" fill="#e0e0e0"/>
            <rect id="Rectangle_561" data-name="Rectangle 561" width="58.368" height="50.682" transform="translate(162.712 194.805)" fill="#f0f0f0"/>
            <rect id="Rectangle_562" data-name="Rectangle 562" width="8.637" height="50.682" transform="translate(162.712 245.488) rotate(180)" fill="#e0e0e0"/>
          </g>
          <g id="Group_2616" data-name="Group 2616">
            <rect id="Rectangle_563" data-name="Rectangle 563" width="294.732" height="139.118" transform="translate(426 87.667) rotate(90)" fill="#fafafa"/>
            <rect id="Rectangle_564" data-name="Rectangle 564" width="294.732" height="0.521" transform="translate(286.882 87.667) rotate(90)" fill="#f0f0f0"/>
            <rect id="Rectangle_565" data-name="Rectangle 565" width="113.56" height="285.056" transform="translate(296.942 97.343)" fill="#e6e6e6"/>
            <rect id="Rectangle_566" data-name="Rectangle 566" width="116.799" height="285.056" transform="translate(299.783 97.343)" fill="#f0f0f0"/>
            <path id="Path_2542" data-name="Path 2542" d="M408.07,242.243v3.588l3.59-3.588Z" fill="#e0e0e0"/>
            <rect id="Rectangle_567" data-name="Rectangle 567" width="268.032" height="99.775" transform="translate(408.07 105.855) rotate(90)" fill="#fafafa"/>
            <path id="Path_2543" data-name="Path 2543" d="M389.52,240.78a2.759,2.759,0,1,0,0,5.519h17.469V240.78Z" fill="#f5f5f5"/>
            <path id="Path_2544" data-name="Path 2544" d="M330.18,373.887l30.451-268.032h20.514L350.694,373.887Z" fill="#fff"/>
            <path id="Path_2545" data-name="Path 2545" d="M355.1,373.887l30.451-268.032h8L363.1,373.887Z" fill="#fff"/>
            <rect id="Rectangle_568" data-name="Rectangle 568" width="268.032" height="1.081" transform="translate(408.07 105.855) rotate(90)" fill="#e6e6e6"/>
            <path id="Path_2546" data-name="Path 2546" d="M410.714,242.63h-17.47a2.759,2.759,0,0,1-2.759-2.759h0a2.76,2.76,0,0,1,2.759-2.76h17.47a2.76,2.76,0,0,1,2.759,2.76h0A2.759,2.759,0,0,1,410.714,242.63Z" fill="#ebebeb"/>
          </g>
          <g id="Group_2621" data-name="Group 2621">
            <g id="Group_2618" data-name="Group 2618">
              <g id="Group_2617" data-name="Group 2617">
                <rect id="Rectangle_569" data-name="Rectangle 569" width="49.086" height="78.088" transform="translate(63.968 121.846)" fill="#e0e0e0"/>
                <rect id="Rectangle_570" data-name="Rectangle 570" width="50.753" height="78.088" transform="translate(65.261 121.846)" fill="#f5f5f5"/>
                <rect id="Rectangle_571" data-name="Rectangle 571" width="66.7" height="42.25" transform="translate(69.513 194.24) rotate(-90)" fill="#fff"/>
              </g>
            </g>
            <g id="Group_2620" data-name="Group 2620">
              <g id="Group_2619" data-name="Group 2619">
                <rect id="Rectangle_572" data-name="Rectangle 572" width="49.086" height="78.088" transform="translate(133.284 84.169)" fill="#e0e0e0"/>
                <rect id="Rectangle_573" data-name="Rectangle 573" width="50.753" height="78.088" transform="translate(134.576 84.169)" fill="#f5f5f5"/>
                <rect id="Rectangle_574" data-name="Rectangle 574" width="66.7" height="42.249" transform="translate(138.828 156.563) rotate(-90)" fill="#fff"/>
              </g>
            </g>
          </g>
        </g>
      </g>
      <g id="Shadow">
        <ellipse id="_Path_" data-name="&lt;Path&gt;" cx="193.889" cy="11.323" rx="193.889" ry="11.323" transform="translate(56.111 404.915)" fill="#f5f5f5"/>
      </g>
      <g id="Nessage" transform="translate(-68)">
        <g id="Group_2629" data-name="Group 2629">
          <g id="Group_2626" data-name="Group 2626">
            <g id="Group_2623" data-name="Group 2623">
              <path id="Path_2547" data-name="Path 2547" d="M400.189,224.27l6.959,81.085c.566,6.6-3.472,12.382-8.973,12.854l-153.858,13.2c-5.5.472-10.465-4.54-11.032-11.138l-6.958-81.085a13.815,13.815,0,0,1,.349-4.541c1.106-4.526,4.439-7.954,8.623-8.313l153.858-13.2c4.176-.359,8.053,2.451,9.913,6.712A13.865,13.865,0,0,1,400.189,224.27Z" fill="#48c2c9"/>
              <path id="Path_2548" data-name="Path 2548" d="M400.189,224.27l6.959,81.085c.566,6.6-3.472,12.382-8.973,12.854l-153.858,13.2c-5.5.472-10.465-4.54-11.032-11.138l-6.958-81.085a13.815,13.815,0,0,1,.349-4.541c1.106-4.526,4.439-7.954,8.623-8.313l153.858-13.2c4.176-.359,8.053,2.451,9.913,6.712A13.865,13.865,0,0,1,400.189,224.27Z" opacity="0.1"/>
            </g>
            <rect id="Rectangle_575" data-name="Rectangle 575" width="1.096" height="3.679" transform="translate(417.381 272.156) rotate(-6.895)" fill="#407bff"/>
            <rect id="Rectangle_576" data-name="Rectangle 576" width="1.096" height="13.707" transform="matrix(0.993, -0.12, 0.12, 0.993, 415.249, 254.525)" fill="#407bff"/>
            <path id="Path_2549" data-name="Path 2549" d="M407.078,209.77l10.058,83.157c.819,6.766-3.127,12.86-8.769,13.543l-157.79,19.085c-5.642.683-10.927-4.295-11.745-11.061l-10.059-83.157a14.245,14.245,0,0,1,.2-4.684c.976-4.7,4.282-8.34,8.573-8.859l157.79-19.086c4.282-.518,8.371,2.233,10.436,6.55A14.289,14.289,0,0,1,407.078,209.77Z" fill="#48c2c9"/>
            <path id="Path_2550" data-name="Path 2550" d="M405.769,205.258,334.2,253.451a26.436,26.436,0,0,1-24.242,2.932l-80.987-29.73c.976-4.7,4.282-8.34,8.573-8.859l157.79-19.086C399.615,198.19,403.7,200.941,405.769,205.258Z" opacity="0.1"/>
            <g id="Group_2625" data-name="Group 2625">
              <path id="Path_2551" data-name="Path 2551" d="M379.071,223.233l-20.565,13.842-6.724,4.533L334.2,253.446a26.324,26.324,0,0,1-23.609,3.142c-.208-.054-.416-.131-.624-.208l-9.867-3.624-22.2-8.147L267.517,240.8l-11.761-4.315-.843-20.794-1.872-46.2,90.331-3.668L377.8,191.914l.361,8.87Z" fill="#407bff"/>
              <path id="Path_2552" data-name="Path 2552" d="M379.071,223.233l-20.565,13.842-6.724,4.533L334.2,253.446a26.324,26.324,0,0,1-23.609,3.142c-.208-.054-.416-.131-.624-.208l-9.867-3.624-22.2-8.147L267.517,240.8l-11.761-4.315-.843-20.794-1.872-46.2,90.331-3.668L377.8,191.914l.361,8.87Z" fill="#fafafa" opacity="0.7"/>
              <g id="Group_2624" data-name="Group 2624" opacity="0.9">
                <path id="Path_2553" data-name="Path 2553" d="M366.335,201.1l-100,4.06a2.134,2.134,0,0,1-2.214-2.041h0a2.136,2.136,0,0,1,2.041-2.214l100-4.06a2.135,2.135,0,0,1,2.214,2.041h0A2.136,2.136,0,0,1,366.335,201.1Z" fill="#fff"/>
                <path id="Path_2554" data-name="Path 2554" d="M366.874,214.388l-100,4.06a2.136,2.136,0,0,1-2.214-2.041h0a2.136,2.136,0,0,1,2.041-2.214l100-4.06a2.136,2.136,0,0,1,2.214,2.041h0A2.136,2.136,0,0,1,366.874,214.388Z" fill="#fff"/>
                <path id="Path_2555" data-name="Path 2555" d="M367.414,227.672l-100,4.061a2.135,2.135,0,0,1-2.213-2.042h0a2.134,2.134,0,0,1,2.041-2.213l100-4.061a2.136,2.136,0,0,1,2.214,2.041h0A2.136,2.136,0,0,1,367.414,227.672Z" fill="#fff"/>
                <path id="Path_2556" data-name="Path 2556" d="M358.506,237.075l-6.724,4.533-73.883,3L267.517,240.8a1.083,1.083,0,0,1,.263-.033Z" fill="#fff"/>
                <path id="Path_2557" data-name="Path 2557" d="M331.14,253.621v.077a2.143,2.143,0,0,1-2.037,2.146l-18.517.744c-.208-.054-.416-.131-.624-.208l-9.867-3.624,28.833-1.172A2.136,2.136,0,0,1,331.14,253.621Z" fill="#fff"/>
              </g>
              <path id="Path_2558" data-name="Path 2558" d="M377.8,191.914l-23.924-1.033-10.505-25.058Z" fill="#263238" opacity="0.1"/>
              <path id="Path_2559" data-name="Path 2559" d="M377.8,191.914l-23.211-3.978-11.218-22.112Z" fill="#48c2c9"/>
            </g>
          </g>
          <g id="Group_2627" data-name="Group 2627">
            <path id="Path_2560" data-name="Path 2560" d="M423.81,94.934c0,20.332-22.287,40.321-25.631,40.321s-25.63-19.989-25.63-40.321c0-13.637,11.475-24.693,25.63-24.693S423.81,81.3,423.81,94.934Z" fill="#48c2c9"/>
            <path id="Path_2561" data-name="Path 2561" d="M393.421,89.861c-4.638,5.092-10.937,6.906-14.071,4.052s-1.914-9.3,2.724-14.387,10.938-6.907,14.072-4.053S398.059,84.768,393.421,89.861Z" fill="#fff" opacity="0.1"/>
            <path id="Path_2562" data-name="Path 2562" d="M379.75,110.347c-.61-1.517-.45-3.011.358-3.336s1.958.641,2.569,2.158.45,3.01-.358,3.336S380.361,111.864,379.75,110.347Z" fill="#fff" opacity="0.1"/>
            <path id="Path_2563" data-name="Path 2563" d="M397.084,199.256a.411.411,0,0,1-.41-.411,6.289,6.289,0,0,1,1.156-3.769,5.9,5.9,0,0,0,0-6.678,6.721,6.721,0,0,1,0-7.537,5.891,5.891,0,0,0,0-6.67,6.709,6.709,0,0,1,0-7.53,5.891,5.891,0,0,0,0-6.67,6.709,6.709,0,0,1,0-7.53,5.889,5.889,0,0,0,0-6.669,6.708,6.708,0,0,1,0-7.529,5.506,5.506,0,0,0,1.035-3.333.41.41,0,0,1,.82,0,6.274,6.274,0,0,1-1.156,3.764,5.89,5.89,0,0,0,0,6.667,6.711,6.711,0,0,1,0,7.531,5.892,5.892,0,0,0,0,6.668,6.712,6.712,0,0,1,0,7.532,5.892,5.892,0,0,0,0,6.668,6.712,6.712,0,0,1,0,7.532,5.9,5.9,0,0,0,0,6.675,6.724,6.724,0,0,1,0,7.539,5.529,5.529,0,0,0-1.034,3.339A.411.411,0,0,1,397.084,199.256Z" fill="#263238"/>
            <path id="Path_2564" data-name="Path 2564" d="M398.179,134.3c-.785,0-6.025,4.7-6.025,9.478H404.2C404.2,139,398.965,134.3,398.179,134.3Z" fill="#48c2c9"/>
            <rect id="Rectangle_577" data-name="Rectangle 577" width="3.061" height="0.947" rx="0.347" transform="translate(396.649 134.457)" fill="#263238"/>
          </g>
          <g id="Group_2628" data-name="Group 2628">
            <path id="Path_2565" data-name="Path 2565" d="M262.958,113.937c0,20.332-22.287,40.321-25.63,40.321S211.7,134.269,211.7,113.937c0-13.637,11.475-24.693,25.631-24.693S262.958,100.3,262.958,113.937Z" fill="#263238"/>
            <ellipse id="Ellipse_119" data-name="Ellipse 119" cx="12.471" cy="7.674" rx="12.471" ry="7.674" transform="translate(213.468 108.577) rotate(-47.672)" fill="#fff" opacity="0.1"/>
            <path id="Path_2566" data-name="Path 2566" d="M219.541,130.178c-.611-1.517-.451-3.01.358-3.336s1.958.641,2.568,2.158.451,3.011-.357,3.336S220.152,131.7,219.541,130.178Z" fill="#fff" opacity="0.1"/>
            <path id="Path_2567" data-name="Path 2567" d="M236.233,218.259a.41.41,0,0,1-.41-.411,6.289,6.289,0,0,1,1.155-3.769,5.9,5.9,0,0,0,0-6.678,6.725,6.725,0,0,1,0-7.537,5.891,5.891,0,0,0,0-6.67,6.714,6.714,0,0,1,0-7.53,5.891,5.891,0,0,0,0-6.67,6.716,6.716,0,0,1,0-7.531,5.887,5.887,0,0,0,0-6.668,6.712,6.712,0,0,1,0-7.529,5.5,5.5,0,0,0,1.035-3.333.41.41,0,0,1,.821,0,6.274,6.274,0,0,1-1.156,3.764,5.886,5.886,0,0,0,0,6.667,6.711,6.711,0,0,1,0,7.531,5.887,5.887,0,0,0,0,6.668,6.712,6.712,0,0,1,0,7.532,5.887,5.887,0,0,0,0,6.668,6.712,6.712,0,0,1,0,7.532,5.9,5.9,0,0,0,0,6.675,6.724,6.724,0,0,1,0,7.539,5.522,5.522,0,0,0-1.035,3.339A.411.411,0,0,1,236.233,218.259Z" fill="#407bff"/>
            <path id="Path_2568" data-name="Path 2568" d="M237.328,153.306c-.786,0-6.025,4.7-6.025,9.478h12.05C243.353,158,238.114,153.306,237.328,153.306Z" fill="#263238"/>
            <rect id="Rectangle_578" data-name="Rectangle 578" width="3.061" height="0.947" rx="0.347" transform="translate(235.797 153.46)" fill="#407bff"/>
          </g>
        </g>
      </g>
    </g>
  </g>
</svg>
