<svg xmlns="http://www.w3.org/2000/svg" xmlns:xlink="http://www.w3.org/1999/xlink" width="97" height="187" viewBox="0 0 97 187">
  <defs>
    <clipPath id="clip-path">
      <rect width="97" height="187" fill="none"/>
    </clipPath>
  </defs>
  <g id="Repeat_Grid_3" data-name="Repeat Grid 3" clip-path="url(#clip-path)">
    <g transform="translate(-1129 -140)">
      <circle id="Ellipse_7" data-name="Ellipse 7" cx="3.5" cy="3.5" r="3.5" transform="translate(1129 140)" fill="rgba(72,194,201,0.35)"/>
    </g>
    <g transform="translate(-1099 -140)">
      <circle id="Ellipse_7-2" data-name="Ellipse 7" cx="3.5" cy="3.5" r="3.5" transform="translate(1129 140)" fill="rgba(72,194,201,0.35)"/>
    </g>
    <g transform="translate(-1069 -140)">
      <circle id="Ellipse_7-3" data-name="Ellipse 7" cx="3.5" cy="3.5" r="3.5" transform="translate(1129 140)" fill="rgba(72,194,201,0.35)"/>
    </g>
    <g transform="translate(-1039 -140)">
      <circle id="Ellipse_7-4" data-name="Ellipse 7" cx="3.5" cy="3.5" r="3.5" transform="translate(1129 140)" fill="rgba(72,194,201,0.35)"/>
    </g>
    <g transform="translate(-1129 -110)">
      <circle id="Ellipse_7-5" data-name="Ellipse 7" cx="3.5" cy="3.5" r="3.5" transform="translate(1129 140)" fill="rgba(72,194,201,0.35)"/>
    </g>
    <g transform="translate(-1099 -110)">
      <circle id="Ellipse_7-6" data-name="Ellipse 7" cx="3.5" cy="3.5" r="3.5" transform="translate(1129 140)" fill="rgba(72,194,201,0.35)"/>
    </g>
    <g transform="translate(-1069 -110)">
      <circle id="Ellipse_7-7" data-name="Ellipse 7" cx="3.5" cy="3.5" r="3.5" transform="translate(1129 140)" fill="rgba(72,194,201,0.35)"/>
    </g>
    <g transform="translate(-1039 -110)">
      <circle id="Ellipse_7-8" data-name="Ellipse 7" cx="3.5" cy="3.5" r="3.5" transform="translate(1129 140)" fill="rgba(72,194,201,0.35)"/>
    </g>
    <g transform="translate(-1129 -80)">
      <circle id="Ellipse_7-9" data-name="Ellipse 7" cx="3.5" cy="3.5" r="3.5" transform="translate(1129 140)" fill="rgba(72,194,201,0.35)"/>
    </g>
    <g transform="translate(-1099 -80)">
      <circle id="Ellipse_7-10" data-name="Ellipse 7" cx="3.5" cy="3.5" r="3.5" transform="translate(1129 140)" fill="rgba(72,194,201,0.35)"/>
    </g>
    <g transform="translate(-1069 -80)">
      <circle id="Ellipse_7-11" data-name="Ellipse 7" cx="3.5" cy="3.5" r="3.5" transform="translate(1129 140)" fill="rgba(72,194,201,0.35)"/>
    </g>
    <g transform="translate(-1039 -80)">
      <circle id="Ellipse_7-12" data-name="Ellipse 7" cx="3.5" cy="3.5" r="3.5" transform="translate(1129 140)" fill="rgba(72,194,201,0.35)"/>
    </g>
    <g transform="translate(-1129 -50)">
      <circle id="Ellipse_7-13" data-name="Ellipse 7" cx="3.5" cy="3.5" r="3.5" transform="translate(1129 140)" fill="rgba(72,194,201,0.35)"/>
    </g>
    <g transform="translate(-1099 -50)">
      <circle id="Ellipse_7-14" data-name="Ellipse 7" cx="3.5" cy="3.5" r="3.5" transform="translate(1129 140)" fill="rgba(72,194,201,0.35)"/>
    </g>
    <g transform="translate(-1069 -50)">
      <circle id="Ellipse_7-15" data-name="Ellipse 7" cx="3.5" cy="3.5" r="3.5" transform="translate(1129 140)" fill="rgba(72,194,201,0.35)"/>
    </g>
    <g transform="translate(-1039 -50)">
      <circle id="Ellipse_7-16" data-name="Ellipse 7" cx="3.5" cy="3.5" r="3.5" transform="translate(1129 140)" fill="rgba(72,194,201,0.35)"/>
    </g>
    <g transform="translate(-1129 -20)">
      <circle id="Ellipse_7-17" data-name="Ellipse 7" cx="3.5" cy="3.5" r="3.5" transform="translate(1129 140)" fill="rgba(72,194,201,0.35)"/>
    </g>
    <g transform="translate(-1099 -20)">
      <circle id="Ellipse_7-18" data-name="Ellipse 7" cx="3.5" cy="3.5" r="3.5" transform="translate(1129 140)" fill="rgba(72,194,201,0.35)"/>
    </g>
    <g transform="translate(-1069 -20)">
      <circle id="Ellipse_7-19" data-name="Ellipse 7" cx="3.5" cy="3.5" r="3.5" transform="translate(1129 140)" fill="rgba(72,194,201,0.35)"/>
    </g>
    <g transform="translate(-1039 -20)">
      <circle id="Ellipse_7-20" data-name="Ellipse 7" cx="3.5" cy="3.5" r="3.5" transform="translate(1129 140)" fill="rgba(72,194,201,0.35)"/>
    </g>
    <g transform="translate(-1129 10)">
      <circle id="Ellipse_7-21" data-name="Ellipse 7" cx="3.5" cy="3.5" r="3.5" transform="translate(1129 140)" fill="rgba(72,194,201,0.35)"/>
    </g>
    <g transform="translate(-1099 10)">
      <circle id="Ellipse_7-22" data-name="Ellipse 7" cx="3.5" cy="3.5" r="3.5" transform="translate(1129 140)" fill="rgba(72,194,201,0.35)"/>
    </g>
    <g transform="translate(-1069 10)">
      <circle id="Ellipse_7-23" data-name="Ellipse 7" cx="3.5" cy="3.5" r="3.5" transform="translate(1129 140)" fill="rgba(72,194,201,0.35)"/>
    </g>
    <g transform="translate(-1039 10)">
      <circle id="Ellipse_7-24" data-name="Ellipse 7" cx="3.5" cy="3.5" r="3.5" transform="translate(1129 140)" fill="rgba(72,194,201,0.35)"/>
    </g>
    <g transform="translate(-1129 40)">
      <circle id="Ellipse_7-25" data-name="Ellipse 7" cx="3.5" cy="3.5" r="3.5" transform="translate(1129 140)" fill="rgba(72,194,201,0.35)"/>
    </g>
    <g transform="translate(-1099 40)">
      <circle id="Ellipse_7-26" data-name="Ellipse 7" cx="3.5" cy="3.5" r="3.5" transform="translate(1129 140)" fill="rgba(72,194,201,0.35)"/>
    </g>
    <g transform="translate(-1069 40)">
      <circle id="Ellipse_7-27" data-name="Ellipse 7" cx="3.5" cy="3.5" r="3.5" transform="translate(1129 140)" fill="rgba(72,194,201,0.35)"/>
    </g>
    <g transform="translate(-1039 40)">
      <circle id="Ellipse_7-28" data-name="Ellipse 7" cx="3.5" cy="3.5" r="3.5" transform="translate(1129 140)" fill="rgba(72,194,201,0.35)"/>
    </g>
  </g>
</svg>
