<svg xmlns="http://www.w3.org/2000/svg" xmlns:xlink="http://www.w3.org/1999/xlink" width="277" height="100" viewBox="0 0 277 100">
  <defs>
    <clipPath id="clip-path">
      <rect width="277" height="100" fill="none"/>
    </clipPath>
  </defs>
  <g id="dots" transform="translate(-998 -4033)">
    <g id="dots-2" data-name="dots" transform="translate(998 4033)" clip-path="url(#clip-path)">
      <g transform="translate(-1129 -140)">
        <circle id="Ellipse_7" data-name="Ellipse 7" cx="3.5" cy="3.5" r="3.5" transform="translate(1129 140)" fill="rgba(72,194,201,0.19)"/>
      </g>
      <g transform="translate(-1099 -140)">
        <circle id="Ellipse_7-2" data-name="Ellipse 7" cx="3.5" cy="3.5" r="3.5" transform="translate(1129 140)" fill="rgba(72,194,201,0.19)"/>
      </g>
      <g transform="translate(-1069 -140)">
        <circle id="Ellipse_7-3" data-name="Ellipse 7" cx="3.5" cy="3.5" r="3.5" transform="translate(1129 140)" fill="rgba(72,194,201,0.19)"/>
      </g>
      <g transform="translate(-1039 -140)">
        <circle id="Ellipse_7-4" data-name="Ellipse 7" cx="3.5" cy="3.5" r="3.5" transform="translate(1129 140)" fill="rgba(72,194,201,0.19)"/>
      </g>
      <g transform="translate(-1009 -140)">
        <circle id="Ellipse_7-5" data-name="Ellipse 7" cx="3.5" cy="3.5" r="3.5" transform="translate(1129 140)" fill="rgba(72,194,201,0.19)"/>
      </g>
      <g transform="translate(-979 -140)">
        <circle id="Ellipse_7-6" data-name="Ellipse 7" cx="3.5" cy="3.5" r="3.5" transform="translate(1129 140)" fill="rgba(72,194,201,0.19)"/>
      </g>
      <g transform="translate(-949 -140)">
        <circle id="Ellipse_7-7" data-name="Ellipse 7" cx="3.5" cy="3.5" r="3.5" transform="translate(1129 140)" fill="rgba(72,194,201,0.19)"/>
      </g>
      <g transform="translate(-919 -140)">
        <circle id="Ellipse_7-8" data-name="Ellipse 7" cx="3.5" cy="3.5" r="3.5" transform="translate(1129 140)" fill="rgba(72,194,201,0.19)"/>
      </g>
      <g transform="translate(-889 -140)">
        <circle id="Ellipse_7-9" data-name="Ellipse 7" cx="3.5" cy="3.5" r="3.5" transform="translate(1129 140)" fill="rgba(72,194,201,0.19)"/>
      </g>
      <g transform="translate(-859 -140)">
        <circle id="Ellipse_7-10" data-name="Ellipse 7" cx="3.5" cy="3.5" r="3.5" transform="translate(1129 140)" fill="rgba(72,194,201,0.19)"/>
      </g>
      <g transform="translate(-1129 -110)">
        <circle id="Ellipse_7-11" data-name="Ellipse 7" cx="3.5" cy="3.5" r="3.5" transform="translate(1129 140)" fill="rgba(72,194,201,0.19)"/>
      </g>
      <g transform="translate(-1099 -110)">
        <circle id="Ellipse_7-12" data-name="Ellipse 7" cx="3.5" cy="3.5" r="3.5" transform="translate(1129 140)" fill="rgba(72,194,201,0.19)"/>
      </g>
      <g transform="translate(-1069 -110)">
        <circle id="Ellipse_7-13" data-name="Ellipse 7" cx="3.5" cy="3.5" r="3.5" transform="translate(1129 140)" fill="rgba(72,194,201,0.19)"/>
      </g>
      <g transform="translate(-1039 -110)">
        <circle id="Ellipse_7-14" data-name="Ellipse 7" cx="3.5" cy="3.5" r="3.5" transform="translate(1129 140)" fill="rgba(72,194,201,0.19)"/>
      </g>
      <g transform="translate(-1009 -110)">
        <circle id="Ellipse_7-15" data-name="Ellipse 7" cx="3.5" cy="3.5" r="3.5" transform="translate(1129 140)" fill="rgba(72,194,201,0.19)"/>
      </g>
      <g transform="translate(-979 -110)">
        <circle id="Ellipse_7-16" data-name="Ellipse 7" cx="3.5" cy="3.5" r="3.5" transform="translate(1129 140)" fill="rgba(72,194,201,0.19)"/>
      </g>
      <g transform="translate(-949 -110)">
        <circle id="Ellipse_7-17" data-name="Ellipse 7" cx="3.5" cy="3.5" r="3.5" transform="translate(1129 140)" fill="rgba(72,194,201,0.19)"/>
      </g>
      <g transform="translate(-919 -110)">
        <circle id="Ellipse_7-18" data-name="Ellipse 7" cx="3.5" cy="3.5" r="3.5" transform="translate(1129 140)" fill="rgba(72,194,201,0.19)"/>
      </g>
      <g transform="translate(-889 -110)">
        <circle id="Ellipse_7-19" data-name="Ellipse 7" cx="3.5" cy="3.5" r="3.5" transform="translate(1129 140)" fill="rgba(72,194,201,0.19)"/>
      </g>
      <g transform="translate(-859 -110)">
        <circle id="Ellipse_7-20" data-name="Ellipse 7" cx="3.5" cy="3.5" r="3.5" transform="translate(1129 140)" fill="rgba(72,194,201,0.19)"/>
      </g>
      <g transform="translate(-1129 -80)">
        <circle id="Ellipse_7-21" data-name="Ellipse 7" cx="3.5" cy="3.5" r="3.5" transform="translate(1129 140)" fill="rgba(72,194,201,0.19)"/>
      </g>
      <g transform="translate(-1099 -80)">
        <circle id="Ellipse_7-22" data-name="Ellipse 7" cx="3.5" cy="3.5" r="3.5" transform="translate(1129 140)" fill="rgba(72,194,201,0.19)"/>
      </g>
      <g transform="translate(-1069 -80)">
        <circle id="Ellipse_7-23" data-name="Ellipse 7" cx="3.5" cy="3.5" r="3.5" transform="translate(1129 140)" fill="rgba(72,194,201,0.19)"/>
      </g>
      <g transform="translate(-1039 -80)">
        <circle id="Ellipse_7-24" data-name="Ellipse 7" cx="3.5" cy="3.5" r="3.5" transform="translate(1129 140)" fill="rgba(72,194,201,0.19)"/>
      </g>
      <g transform="translate(-1009 -80)">
        <circle id="Ellipse_7-25" data-name="Ellipse 7" cx="3.5" cy="3.5" r="3.5" transform="translate(1129 140)" fill="rgba(72,194,201,0.19)"/>
      </g>
      <g transform="translate(-979 -80)">
        <circle id="Ellipse_7-26" data-name="Ellipse 7" cx="3.5" cy="3.5" r="3.5" transform="translate(1129 140)" fill="rgba(72,194,201,0.19)"/>
      </g>
      <g transform="translate(-949 -80)">
        <circle id="Ellipse_7-27" data-name="Ellipse 7" cx="3.5" cy="3.5" r="3.5" transform="translate(1129 140)" fill="rgba(72,194,201,0.19)"/>
      </g>
      <g transform="translate(-919 -80)">
        <circle id="Ellipse_7-28" data-name="Ellipse 7" cx="3.5" cy="3.5" r="3.5" transform="translate(1129 140)" fill="rgba(72,194,201,0.19)"/>
      </g>
      <g transform="translate(-889 -80)">
        <circle id="Ellipse_7-29" data-name="Ellipse 7" cx="3.5" cy="3.5" r="3.5" transform="translate(1129 140)" fill="rgba(72,194,201,0.19)"/>
      </g>
      <g transform="translate(-859 -80)">
        <circle id="Ellipse_7-30" data-name="Ellipse 7" cx="3.5" cy="3.5" r="3.5" transform="translate(1129 140)" fill="rgba(72,194,201,0.19)"/>
      </g>
      <g transform="translate(-1129 -50)">
        <circle id="Ellipse_7-31" data-name="Ellipse 7" cx="3.5" cy="3.5" r="3.5" transform="translate(1129 140)" fill="rgba(72,194,201,0.19)"/>
      </g>
      <g transform="translate(-1099 -50)">
        <circle id="Ellipse_7-32" data-name="Ellipse 7" cx="3.5" cy="3.5" r="3.5" transform="translate(1129 140)" fill="rgba(72,194,201,0.19)"/>
      </g>
      <g transform="translate(-1069 -50)">
        <circle id="Ellipse_7-33" data-name="Ellipse 7" cx="3.5" cy="3.5" r="3.5" transform="translate(1129 140)" fill="rgba(72,194,201,0.19)"/>
      </g>
      <g transform="translate(-1039 -50)">
        <circle id="Ellipse_7-34" data-name="Ellipse 7" cx="3.5" cy="3.5" r="3.5" transform="translate(1129 140)" fill="rgba(72,194,201,0.19)"/>
      </g>
      <g transform="translate(-1009 -50)">
        <circle id="Ellipse_7-35" data-name="Ellipse 7" cx="3.5" cy="3.5" r="3.5" transform="translate(1129 140)" fill="rgba(72,194,201,0.19)"/>
      </g>
      <g transform="translate(-979 -50)">
        <circle id="Ellipse_7-36" data-name="Ellipse 7" cx="3.5" cy="3.5" r="3.5" transform="translate(1129 140)" fill="rgba(72,194,201,0.19)"/>
      </g>
      <g transform="translate(-949 -50)">
        <circle id="Ellipse_7-37" data-name="Ellipse 7" cx="3.5" cy="3.5" r="3.5" transform="translate(1129 140)" fill="rgba(72,194,201,0.19)"/>
      </g>
      <g transform="translate(-919 -50)">
        <circle id="Ellipse_7-38" data-name="Ellipse 7" cx="3.5" cy="3.5" r="3.5" transform="translate(1129 140)" fill="rgba(72,194,201,0.19)"/>
      </g>
      <g transform="translate(-889 -50)">
        <circle id="Ellipse_7-39" data-name="Ellipse 7" cx="3.5" cy="3.5" r="3.5" transform="translate(1129 140)" fill="rgba(72,194,201,0.19)"/>
      </g>
      <g transform="translate(-859 -50)">
        <circle id="Ellipse_7-40" data-name="Ellipse 7" cx="3.5" cy="3.5" r="3.5" transform="translate(1129 140)" fill="rgba(72,194,201,0.19)"/>
      </g>
    </g>
  </g>
</svg>
