<svg xmlns="http://www.w3.org/2000/svg" xmlns:xlink="http://www.w3.org/1999/xlink" width="108" height="108" viewBox="0 0 108 108">
  <defs>
    <clipPath id="clip-path">
      <rect id="Rectangle_112" data-name="Rectangle 112" width="64" height="64" transform="translate(527 1824)" fill="#fff" stroke="#707070" stroke-width="1"/>
    </clipPath>
  </defs>
  <g id="Group_2699" data-name="Group 2699" transform="translate(-491 -1802)">
    <g id="Ellipse_44" data-name="Ellipse 44" transform="translate(491 1802)" fill="#fff" stroke="#48c2c9" stroke-width="1">
      <circle cx="54" cy="54" r="54" stroke="none"/>
      <circle cx="54" cy="54" r="53.5" fill="none"/>
    </g>
    <g id="Mask_Group_32" data-name="Mask Group 32" transform="translate(-14)" clip-path="url(#clip-path)">
      <g id="team-management" transform="translate(527 1824)">
        <path id="Path_1708" data-name="Path 1708" d="M14.2,21.259h1.52a3.7,3.7,0,0,1,3.692,3.7v9.177H5.131V24.954a3.7,3.7,0,0,1,3.692-3.7Z" fill="#a5cdff" fill-rule="evenodd"/>
        <path id="Path_1709" data-name="Path 1709" d="M14.2,21.259h1.52a3.7,3.7,0,0,1,3.692,3.7v9.177H16.289V24.954a3.7,3.7,0,0,0-3.692-3.7Z" fill="#8abfff" fill-rule="evenodd"/>
        <path id="Path_1710" data-name="Path 1710" d="M53.661,21.259h1.517a3.7,3.7,0,0,1,3.7,3.7v9.177H44.586V24.954a3.7,3.7,0,0,1,3.7-3.7Z" fill="#ccf49f" fill-rule="evenodd"/>
        <path id="Path_1711" data-name="Path 1711" d="M53.661,21.259h1.517a3.7,3.7,0,0,1,3.7,3.7v9.177H55.748V24.954a3.7,3.7,0,0,0-3.7-3.7Z" fill="#b3e59f" fill-rule="evenodd"/>
        <path id="Path_1712" data-name="Path 1712" d="M33.889,15.759h1.559a3.7,3.7,0,0,1,3.7,3.7v9.177H24.857V19.455a3.707,3.707,0,0,1,3.7-3.7Z" fill="#ebd2ff" fill-rule="evenodd"/>
        <path id="Path_1713" data-name="Path 1713" d="M33.931,15.759h1.517a3.7,3.7,0,0,1,3.7,3.7v9.177H36.018V19.455a3.7,3.7,0,0,0-3.7-3.7Z" fill="#d7bef0" fill-rule="evenodd"/>
        <path id="Path_1714" data-name="Path 1714" d="M12.274,35.885A4.821,4.821,0,1,0,17.093,40.7,4.82,4.82,0,0,0,12.274,35.885ZM0,39.152a.433.433,0,0,1,.475-.475H1.86a.673.673,0,0,0,.581-.461,10.279,10.279,0,0,1,1.12-2.7.585.585,0,0,0-.085-.737L2.5,33.795a.5.5,0,0,1,0-.67l2.193-2.193a.455.455,0,0,1,.673,0l.978.978a.613.613,0,0,0,.737.085,11.761,11.761,0,0,1,2.7-1.123.611.611,0,0,0,.464-.578V28.909a.419.419,0,0,1,.471-.475h3.108a.42.42,0,0,1,.471.475v1.386a.611.611,0,0,0,.464.578,11.76,11.76,0,0,1,2.7,1.123.613.613,0,0,0,.737-.085l.978-.978a.455.455,0,0,1,.673,0l2.193,2.193a.5.5,0,0,1,0,.67l-.978.981a.585.585,0,0,0-.085.737,10.279,10.279,0,0,1,1.12,2.7.674.674,0,0,0,.581.461H24.07a.433.433,0,0,1,.475.475v3.1a.431.431,0,0,1-.475.475H22.685a.682.682,0,0,0-.581.464,10.38,10.38,0,0,1-1.12,2.7.586.586,0,0,0,.085.737l.978.978a.5.5,0,0,1,0,.673L19.853,50.48a.458.458,0,0,1-.673,0L18.2,49.5a.613.613,0,0,0-.737-.082,11.735,11.735,0,0,1-2.7,1.12.618.618,0,0,0-.464.581V52.5a.421.421,0,0,1-.471.475H10.719a.421.421,0,0,1-.471-.475V51.118a.618.618,0,0,0-.464-.581,11.747,11.747,0,0,1-2.7-1.12.613.613,0,0,0-.737.082l-.978.981a.458.458,0,0,1-.673,0L2.5,48.287a.5.5,0,0,1,0-.673l.978-.978a.586.586,0,0,0,.085-.737,10.383,10.383,0,0,1-1.12-2.7.682.682,0,0,0-.581-.464H.475A.431.431,0,0,1,0,42.256Z" fill="#365e7d" fill-rule="evenodd"/>
        <path id="Path_1715" data-name="Path 1715" d="M16.608,33.394a13.966,13.966,0,0,0-1.471,3.434,4.819,4.819,0,0,1,0,7.753,13.97,13.97,0,0,0,1.471,3.434.822.822,0,0,1-.117,1.038L15.12,50.427a11.084,11.084,0,0,0,2.346-1.01.613.613,0,0,1,.737.082l.978.981a.458.458,0,0,0,.673,0l2.193-2.193a.5.5,0,0,0,0-.673l-.978-.978a.586.586,0,0,1-.085-.737,10.378,10.378,0,0,0,1.12-2.7.721.721,0,0,1,.319-.386,6.807,6.807,0,0,1,0-4.206.733.733,0,0,1-.319-.386,10.279,10.279,0,0,0-1.12-2.7.586.586,0,0,1,.085-.737l.978-.981a.5.5,0,0,0,0-.67l-2.193-2.193a.455.455,0,0,0-.673,0l-.978.978a.613.613,0,0,1-.737.085,10.735,10.735,0,0,0-2.346-1.01l1.371,1.371a.823.823,0,0,1,.117,1.038Z" fill="#294b64" fill-rule="evenodd"/>
        <path id="Path_1716" data-name="Path 1716" d="M51.729,35.885A4.821,4.821,0,1,0,56.548,40.7,4.819,4.819,0,0,0,51.729,35.885ZM39.459,39.152a.428.428,0,0,1,.471-.475h1.385a.673.673,0,0,0,.581-.461,10.279,10.279,0,0,1,1.12-2.7.585.585,0,0,0-.082-.737l-.981-.981a.5.5,0,0,1,0-.67l2.2-2.193a.451.451,0,0,1,.67,0l.982.978a.612.612,0,0,0,.737.085,11.667,11.667,0,0,1,2.7-1.123.607.607,0,0,0,.464-.578V28.909a.423.423,0,0,1,.475-.475h3.1a.423.423,0,0,1,.475.475v1.386a.608.608,0,0,0,.461.578,11.7,11.7,0,0,1,2.7,1.123.613.613,0,0,0,.737-.085l.981-.978a.451.451,0,0,1,.67,0l2.2,2.193a.5.5,0,0,1,0,.67l-.982.981a.585.585,0,0,0-.082.737,10.279,10.279,0,0,1,1.12,2.7.665.665,0,0,0,.581.461h1.382a.431.431,0,0,1,.475.475v3.1a.429.429,0,0,1-.475.475H62.143a.673.673,0,0,0-.581.464,10.384,10.384,0,0,1-1.12,2.7.586.586,0,0,0,.082.737l.982.978a.5.5,0,0,1,0,.673l-2.2,2.193a.454.454,0,0,1-.67,0l-.981-.981a.612.612,0,0,0-.737-.082,11.673,11.673,0,0,1-2.7,1.12.615.615,0,0,0-.461.581V52.5a.425.425,0,0,1-.475.475h-3.1A.425.425,0,0,1,49.7,52.5V51.118a.614.614,0,0,0-.464-.581,11.66,11.66,0,0,1-2.7-1.12.612.612,0,0,0-.737.082l-.982.981a.454.454,0,0,1-.67,0l-2.2-2.193a.5.5,0,0,1,0-.673l.981-.978a.586.586,0,0,0,.082-.737,10.383,10.383,0,0,1-1.12-2.7.682.682,0,0,0-.581-.464H39.93a.427.427,0,0,1-.471-.475Z" fill="#365e7d" fill-rule="evenodd"/>
        <path id="Path_1717" data-name="Path 1717" d="M32,33.919A6.787,6.787,0,1,0,38.789,40.7,6.784,6.784,0,0,0,32,33.919Zm-17.277,4.6a.6.6,0,0,1,.666-.67h1.952a.946.946,0,0,0,.815-.652,14.736,14.736,0,0,1,1.577-3.806.823.823,0,0,0-.117-1.038l-1.378-1.378a.7.7,0,0,1,0-.946l3.09-3.09a.64.64,0,0,1,.946,0l1.378,1.382a.862.862,0,0,0,1.038.113A16.567,16.567,0,0,1,28.5,26.861a.858.858,0,0,0,.652-.815V24.093a.593.593,0,0,1,.666-.666h4.373a.591.591,0,0,1,.666.666v1.952a.858.858,0,0,0,.652.815,16.509,16.509,0,0,1,3.806,1.577.862.862,0,0,0,1.038-.113l1.382-1.382a.637.637,0,0,1,.943,0l3.09,3.09a.7.7,0,0,1,0,.946l-1.378,1.378a.827.827,0,0,0-.117,1.038A14.492,14.492,0,0,1,45.844,37.2a.954.954,0,0,0,.819.652h1.949a.608.608,0,0,1,.67.67V42.89a.61.61,0,0,1-.67.67H46.663a.956.956,0,0,0-.819.648,14.394,14.394,0,0,1-1.577,3.806.827.827,0,0,0,.117,1.038l1.378,1.382a.7.7,0,0,1,0,.943l-3.09,3.093a.639.639,0,0,1-.943,0l-1.382-1.382a.863.863,0,0,0-1.038-.117A16.345,16.345,0,0,1,35.5,54.548a.865.865,0,0,0-.652.819v1.949a.6.6,0,0,1-.666.67H29.814a.6.6,0,0,1-.666-.67V55.367a.865.865,0,0,0-.652-.819,16.421,16.421,0,0,1-3.806-1.577.863.863,0,0,0-1.038.117L22.274,54.47a.643.643,0,0,1-.946,0l-3.09-3.093a.7.7,0,0,1,0-.943l1.378-1.382a.822.822,0,0,0,.117-1.038,14.636,14.636,0,0,1-1.577-3.806.947.947,0,0,0-.815-.648H15.389a.606.606,0,0,1-.666-.67Z" fill="#477b9e" fill-rule="evenodd"/>
        <path id="Path_1718" data-name="Path 1718" d="M55.648,17.907a3.919,3.919,0,0,1-7.838,0v-4.2A2.2,2.2,0,0,1,50,11.514h3.451a2.2,2.2,0,0,1,2.193,2.193v4.2Z" fill="#d8a595" fill-rule="evenodd"/>
        <path id="Path_1719" data-name="Path 1719" d="M16.19,17.907a3.917,3.917,0,0,1-7.834,0v-4.2a2.2,2.2,0,0,1,2.193-2.193h5.056a.525.525,0,0,1,.585.585Z" fill="#ffcbbe" fill-rule="evenodd"/>
        <path id="Path_1720" data-name="Path 1720" d="M47.811,13.708v2.576l2.679-1.311a1.348,1.348,0,0,1,1.077-.071l4.082,1.382V13.708a2.2,2.2,0,0,0-2.193-2.193H50A2.2,2.2,0,0,0,47.811,13.708Z" fill="#477b9e" fill-rule="evenodd"/>
        <path id="Path_1721" data-name="Path 1721" d="M8.355,13.708v1.265H16.19V12.1a.525.525,0,0,0-.585-.585H10.549a2.2,2.2,0,0,0-2.193,2.193Z" fill="#d09080" fill-rule="evenodd"/>
        <path id="Path_1722" data-name="Path 1722" d="M35.919,12.407a3.917,3.917,0,0,1-7.834,0v-4.2a2.2,2.2,0,0,1,2.19-2.193h3.451a2.2,2.2,0,0,1,2.193,2.193Z" fill="#ffcbbe" fill-rule="evenodd"/>
        <path id="Path_1723" data-name="Path 1723" d="M28.085,8.209V9.732A2.966,2.966,0,0,0,30.639,9.5c.415-.234.482-.28.889.078a4.7,4.7,0,0,0,4.39.73v-2.1a2.2,2.2,0,0,0-2.193-2.193H30.275a2.2,2.2,0,0,0-2.19,2.193Z" fill="#ffe5a0" fill-rule="evenodd"/>
        <path id="Path_1724" data-name="Path 1724" d="M42.457,36.59A14.186,14.186,0,0,1,29,54.892a.727.727,0,0,1,.152.475v1.949a.6.6,0,0,0,.666.67h4.373a.6.6,0,0,0,.666-.67V55.366a.865.865,0,0,1,.652-.819,16.356,16.356,0,0,0,3.806-1.577.863.863,0,0,1,1.038.117L41.73,54.47a.639.639,0,0,0,.943,0l3.09-3.093a.7.7,0,0,0,0-.943l-.446-.45-.932-.932a.827.827,0,0,1-.117-1.038,14.394,14.394,0,0,0,1.577-3.806.956.956,0,0,1,.819-.648h1.949a.61.61,0,0,0,.67-.67V38.521a.608.608,0,0,0-.67-.67H46.663a.954.954,0,0,1-.819-.652,14.492,14.492,0,0,0-1.577-3.806.827.827,0,0,1,.117-1.038l.932-.932.446-.446a.7.7,0,0,0,0-.946l-3.09-3.09a.637.637,0,0,0-.943,0l-1.382,1.382a.862.862,0,0,1-1.038.113A16.5,16.5,0,0,0,35.5,26.86a.858.858,0,0,1-.652-.815V24.093a.591.591,0,0,0-.666-.666H29.814a.592.592,0,0,0-.666.666v1.952a.717.717,0,0,1-.152.471A14.192,14.192,0,0,1,42.457,36.59Z" fill="#365e7d" fill-rule="evenodd"/>
        <path id="Path_1725" data-name="Path 1725" d="M49.547,30.687a10.063,10.063,0,0,1,0,20.038.52.52,0,0,1,.156.393V52.5a.425.425,0,0,0,.475.475h3.1a.425.425,0,0,0,.475-.475V51.118a.615.615,0,0,1,.461-.581,11.683,11.683,0,0,0,2.7-1.12.612.612,0,0,1,.737.082l.981.981a.454.454,0,0,0,.67,0l2.2-2.193a.5.5,0,0,0,0-.673l-.982-.978a.586.586,0,0,1-.082-.737,10.378,10.378,0,0,0,1.12-2.7.673.673,0,0,1,.581-.464h1.382A.429.429,0,0,0,64,42.256v-3.1a.431.431,0,0,0-.475-.475H62.143a.665.665,0,0,1-.581-.461,10.283,10.283,0,0,0-1.12-2.7.585.585,0,0,1,.082-.737l.982-.981a.5.5,0,0,0,0-.67l-2.2-2.193a.451.451,0,0,0-.67,0l-.981.978a.613.613,0,0,1-.737.085,11.7,11.7,0,0,0-2.7-1.123.608.608,0,0,1-.461-.578V28.909a.423.423,0,0,0-.475-.475h-3.1a.424.424,0,0,0-.475.475v1.386a.525.525,0,0,1-.156.393Z" fill="#294b64" fill-rule="evenodd"/>
      </g>
    </g>
  </g>
</svg>
