<svg xmlns="http://www.w3.org/2000/svg" xmlns:xlink="http://www.w3.org/1999/xlink" width="76" height="76" viewBox="0 0 76 76">
  <defs>
    <clipPath id="clip-path">
      <rect id="Rectangle_127" data-name="Rectangle 127" width="76" height="76" transform="translate(1059 2236)" fill="#fff" stroke="#707070" stroke-width="1"/>
    </clipPath>
  </defs>
  <g id="Mask_Group_8" data-name="Mask Group 8" transform="translate(-1059 -2236)" clip-path="url(#clip-path)">
    <g id="_24-hours" data-name="24-hours" transform="translate(1059 2236)">
      <circle id="Ellipse_31" data-name="Ellipse 31" cx="32.288" cy="32.288" r="32.288" transform="translate(11.423 0)" fill="#9dc6fb"/>
      <path id="Path_423" data-name="Path 423" d="M30.761,0c-.91,0-1.811.04-2.7.113a32.288,32.288,0,0,1,0,64.349c.891.074,1.792.113,2.7.113A32.288,32.288,0,1,0,30.761,0Z" transform="translate(12.951 0)" fill="#80b4fb"/>
      <circle id="Ellipse_32" data-name="Ellipse 32" cx="23.486" cy="23.486" r="23.486" transform="translate(20.225 8.802)" fill="#f9f6f6"/>
      <path id="Path_424" data-name="Path 424" d="M30.761,6.022a23.734,23.734,0,0,0-2.7.156,23.487,23.487,0,0,1,0,46.662,23.733,23.733,0,0,0,2.7.156,23.486,23.486,0,1,0,0-46.973Z" transform="translate(12.951 2.78)" fill="#dddaec"/>
      <path id="Path_425" data-name="Path 425" d="M23.839,33.672,7.731,17.564,3.491,21.8a11.919,11.919,0,0,0,0,16.856L29.234,64.4a11.919,11.919,0,0,0,16.856,0l4.24-4.24L34.221,44.054,33.079,45.2A7.341,7.341,0,0,1,22.7,34.815Z" transform="translate(0 8.106)" fill="#e7a561"/>
      <g id="Group_1228" data-name="Group 1228" transform="translate(5.521 25.67)">
        <path id="Path_426" data-name="Path 426" d="M21.827,37.789,38.046,54.007l2.21-2.21L24.147,35.689,23,36.832a7.368,7.368,0,0,1-1.177.957Z" transform="translate(4.553 -9.198)" fill="#e49542"/>
        <path id="Path_427" data-name="Path 427" d="M20,35.992a7.366,7.366,0,0,1,.957-1.177L22.1,33.672,5.987,17.564l-2.21,2.21Z" transform="translate(-3.778 -17.564)" fill="#e49542"/>
      </g>
      <path id="Path_428" data-name="Path 428" d="M21.4,35,5.289,18.89l3.451-3.451a2.559,2.559,0,0,1,3.619,0L24.849,27.928a2.559,2.559,0,0,1,0,3.619Z" transform="translate(2.441 6.78)" fill="#ffe07d"/>
      <path id="Path_429" data-name="Path 429" d="M8.482,15.439l-2.63,2.63a2.559,2.559,0,0,1,3.619,0L21.959,30.559a2.559,2.559,0,0,1,0,3.619l2.63-2.63a2.559,2.559,0,0,0,0-3.619L12.1,15.439a2.559,2.559,0,0,0-3.619,0Z" transform="translate(2.7 6.78)" fill="#ffd064"/>
      <path id="Path_430" data-name="Path 430" d="M39.523,53.124,23.415,37.016l3.451-3.451a2.559,2.559,0,0,1,3.619,0L42.974,46.054a2.559,2.559,0,0,1,0,3.619Z" transform="translate(10.807 15.145)" fill="#ffe07d"/>
      <path id="Path_431" data-name="Path 431" d="M26.607,33.564l-2.63,2.63a2.559,2.559,0,0,1,3.619,0L40.085,48.684a2.559,2.559,0,0,1,0,3.619l2.63-2.63a2.559,2.559,0,0,0,0-3.619L30.226,33.564a2.559,2.559,0,0,0-3.619,0Z" transform="translate(11.066 15.145)" fill="#ffd064"/>
      <g id="Group_1233" data-name="Group 1233" transform="translate(30.487 24.453)">
        <path id="Path_432" data-name="Path 432" d="M41.661,26.669c.011-2.13-.4-3.543-1.3-4.444A3.766,3.766,0,0,0,37.579,21.2a4.1,4.1,0,0,0-2.227.642V17.878a1.147,1.147,0,0,0-2.294,0V31.255a1.147,1.147,0,1,0,2.294,0V26.663c0-1.867.916-3.172,2.227-3.172a1.484,1.484,0,0,1,1.157.351c.293.294.64,1.022.631,2.825l.017,4.592A1.147,1.147,0,0,0,40.531,32.4h0a1.147,1.147,0,0,0,1.143-1.151Z" transform="translate(-15.229 -16.731)" fill="#21386b"/>
        <g id="Group_1230" data-name="Group 1230" transform="translate(6.979 1.331)">
          <g id="Group_1229" data-name="Group 1229">
            <path id="Path_433" data-name="Path 433" d="M32.116,30.65h-.01a1.147,1.147,0,0,1-1.137-1.157c.005-.614.011-1.3.016-2.006h-4.2a1.147,1.147,0,0,1-1-1.7c.847-1.536,3.659-6.606,4.266-7.349a1.84,1.84,0,0,1,1.977-.724,1.909,1.909,0,0,1,1.266,1.723c.032.383.024,3.172.009,5.758h.216a1.147,1.147,0,1,1,0,2.294h-.231c-.007.913-.013,1.65-.016,2.025a1.147,1.147,0,0,1-1.147,1.137ZM28.73,25.194H31c.009-1.507.015-2.96.014-4.009C30.42,22.2,29.585,23.665,28.73,25.194Z" transform="translate(-25.635 -17.642)" fill="#21386b"/>
          </g>
        </g>
        <g id="Group_1232" data-name="Group 1232" transform="translate(0 1.226)">
          <g id="Group_1231" data-name="Group 1231">
            <path id="Path_434" data-name="Path 434" d="M24.459,30.79a9.138,9.138,0,0,1-2.389-.1,1.2,1.2,0,0,1-.778-.788c-.2-.64.083-1.007.76-1.892.544-.713,1.558-2.04,3.256-4.465a5.991,5.991,0,0,0,.949-1.876l.034-.27a1.6,1.6,0,0,0-3.158-.247,1.147,1.147,0,1,1-2.251-.442,3.889,3.889,0,0,1,7.7.752,1.157,1.157,0,0,1-.009.145l-.053.414a1.1,1.1,0,0,1-.02.114,8.079,8.079,0,0,1-1.317,2.725c-1.173,1.676-2.026,2.838-2.626,3.637.976,0,2.183-.01,3.318-.024h.015a1.147,1.147,0,0,1,.014,2.294c-1.522.019-2.633.027-3.449.027Z" transform="translate(-20.86 -17.57)" fill="#21386b"/>
          </g>
        </g>
      </g>
      <g id="Group_1234" data-name="Group 1234" transform="translate(42.565 11.721)">
        <path id="Path_435" data-name="Path 435" d="M30.27,12.413a1.147,1.147,0,0,1-1.147-1.147v-2.1a1.147,1.147,0,0,1,2.294,0v2.1A1.147,1.147,0,0,1,30.27,12.413Z" transform="translate(-29.123 -8.02)" fill="#26457d"/>
      </g>
      <g id="Group_1235" data-name="Group 1235" transform="translate(59.885 31.142)">
        <path id="Path_436" data-name="Path 436" d="M44.221,23.6h-2.1a1.147,1.147,0,1,1,0-2.294h2.1a1.147,1.147,0,0,1,0,2.294Z" transform="translate(-40.974 -21.307)" fill="#26457d"/>
      </g>
    </g>
  </g>
</svg>
