<svg xmlns="http://www.w3.org/2000/svg" xmlns:xlink="http://www.w3.org/1999/xlink" width="76" height="76" viewBox="0 0 76 76">
  <defs>
    <clipPath id="clip-path">
      <rect id="Rectangle_119" data-name="Rectangle 119" width="76" height="76" transform="translate(0.288 -0.206)" fill="#fff" stroke="#707070" stroke-width="1"/>
    </clipPath>
  </defs>
  <g id="modern" transform="translate(-0.288 0.206)" clip-path="url(#clip-path)">
    <g id="goal" transform="translate(4.339 -0.206)">
      <g id="Group_1220" data-name="Group 1220" transform="translate(4.92 0)">
        <path id="Path_381" data-name="Path 381" d="M58.514,28.991H49.429a2.687,2.687,0,0,0-2.687,2.687v10.87a2.687,2.687,0,0,0-2.687-2.687H34.971a2.686,2.686,0,0,0-2.687,2.687v7.166A2.687,2.687,0,0,0,29.6,47.026H20.512a2.687,2.687,0,0,0-2.687,2.687v6.671A2.687,2.687,0,0,0,15.137,53.7H6.053a2.687,2.687,0,0,0-2.687,2.687v5.1H61.2V31.677a2.687,2.687,0,0,0-2.688-2.687Zm0,0" transform="translate(-3.366 13.38)" fill="#a7c7d3"/>
        <path id="Path_382" data-name="Path 382" d="M36.089,43.506a1.135,1.135,0,0,1-1.135-1.135V1.135a1.135,1.135,0,0,1,2.27,0V42.371A1.135,1.135,0,0,1,36.089,43.506Zm0,0" transform="translate(11.212 0)" fill="#a7c7d3"/>
        <path id="Path_383" data-name="Path 383" d="M17.825,53.683H3.366v-5.1A2.687,2.687,0,0,1,6.053,45.9h9.085a2.687,2.687,0,0,1,2.687,2.687Zm0,0" transform="translate(-3.366 21.182)" fill="#a7c7d3"/>
      </g>
      <path id="Path_384" data-name="Path 384" d="M27.718,55.789H13.259V44.018a2.687,2.687,0,0,1,2.687-2.687h9.085a2.687,2.687,0,0,1,2.687,2.687Zm0,0" transform="translate(6.119 19.076)" fill="#89b4c9"/>
      <path id="Path_385" data-name="Path 385" d="M37.611,58.052H23.152V39.115a2.687,2.687,0,0,1,2.687-2.687h9.085a2.687,2.687,0,0,1,2.687,2.687Zm0,0" transform="translate(10.685 16.813)" fill="#6c96b3"/>
      <path id="Path_386" data-name="Path 386" d="M47.5,61.485H33.045V31.677a2.687,2.687,0,0,1,2.687-2.687h9.084A2.687,2.687,0,0,1,47.5,31.677Zm0,0" transform="translate(15.251 13.38)" fill="#618aaa"/>
      <path id="Path_387" data-name="Path 387" d="M66.762,52.717H1.135a1.135,1.135,0,0,1,0-2.269H66.762a1.135,1.135,0,1,1,0,2.269Zm0,0" transform="translate(0 23.283)" fill="#2f5066"/>
      <path id="Path_388" data-name="Path 388" d="M35.73,11.031H50.273a.489.489,0,0,0,.323-.855L46.818,6.849a.488.488,0,0,1,0-.733L50.6,2.789a.489.489,0,0,0-.323-.856H35.73Zm0,0" transform="translate(16.491 0.892)" fill="#fdb659"/>
      <path id="Path_389" data-name="Path 389" d="M43.207,11.072,27.453,19.628c-1.406.764-1.79,2.105-2.28,3.834l-3.133,11.08,4.138,1.421,3.54-4.568,2.98-9.009,7.928-4.817a5.8,5.8,0,0,0,2.582-6.5Zm0,0" transform="translate(10.172 5.11)" fill="#83d9ff"/>
      <path id="Path_390" data-name="Path 390" d="M43.207,11.072l-1.818.987a5.8,5.8,0,0,1-2.681,3.846l-7.224,4.389a2.242,2.242,0,0,0-.964,1.211l-1.032,3.119a11.692,11.692,0,0,1-6.666,7.147l-.783,2.771L29.717,31.4l2.98-9.009,7.928-4.818a5.8,5.8,0,0,0,2.582-6.5Zm0,0" transform="translate(10.172 5.11)" fill="#5fc9ed"/>
      <path id="Path_391" data-name="Path 391" d="M29.717,24.977l4.537,5.362c.752,1,1.406,1.7,1.27,2.791l-1.061,8.577H31.694l-.724-7.374a1.231,1.231,0,0,0-.738-1.011l-8.193-5.2Zm0,0" transform="translate(10.172 11.528)" fill="#38627c"/>
      <path id="Path_392" data-name="Path 392" d="M23.892,28.124l-.442,8.13a3.579,3.579,0,0,1-.2,1.632L18.027,48.879h2.937l7.855-10.436a4.252,4.252,0,0,0,.667-1.929l2.083-11.537Zm0,0" transform="translate(8.32 11.528)" fill="#4f7693"/>
      <path id="Path_393" data-name="Path 393" d="M28.657,12.686,29.946,15.2A2.4,2.4,0,0,1,28.9,18.438l-1,.51A2.4,2.4,0,0,1,24.669,17.9l-1.288-2.515a2.4,2.4,0,0,1,1.044-3.237l1-.51A2.4,2.4,0,0,1,28.657,12.686Zm0,0" transform="translate(10.669 5.251)" fill="#fecbaa"/>
    </g>
  </g>
</svg>
