<svg xmlns="http://www.w3.org/2000/svg" xmlns:xlink="http://www.w3.org/1999/xlink" width="66" height="66" viewBox="0 0 66 66">
  <defs>
    <clipPath id="clip-path">
      <rect id="Rectangle_137" data-name="Rectangle 137" width="66" height="66" transform="translate(1131 2947)" fill="#fff" stroke="#707070" stroke-width="1"/>
    </clipPath>
  </defs>
  <g id="modern-serv" transform="translate(-1131 -2947)" clip-path="url(#clip-path)">
    <g id="planet" transform="translate(1131 2947)">
      <path id="Path_470" data-name="Path 470" d="M31.183,63.754A28.336,28.336,0,0,1,23.057,8.273a1.181,1.181,0,0,1,1.424.666A4.71,4.71,0,0,0,33.394,8.2a1.18,1.18,0,0,1,1.292-.893,28.332,28.332,0,0,1-3.5,56.447Z" fill="#a0ced2"/>
      <circle id="Ellipse_49" data-name="Ellipse 49" cx="15.349" cy="15.349" r="15.349" transform="translate(6.389 15.348)" fill="#8fbfc1"/>
      <g id="Group_1268" data-name="Group 1268">
        <path id="Path_471" data-name="Path 471" d="M15.107,35.419A1.178,1.178,0,0,1,14.2,35C5.178,24.23-2.763,11.024,2.013,6.249c3.757-3.76,13.5,1.495,17.518,3.927a1.181,1.181,0,0,1-1.224,2.02C10.176,7.269,5.1,6.5,3.682,7.919c-2.4,2.4,1.107,12.172,12.329,25.562a1.18,1.18,0,0,1-.9,1.939Z" fill="#e7eced"/>
        <path id="Path_472" data-name="Path 472" d="M56.42,66c-2.822,0-6.639-1.338-11.313-3.991-6.917-3.927-14.936-10.3-22.577-17.939l-.648-.642c-.471-.466-.989-.979-1.347-1.348a1.181,1.181,0,0,1,1.7-1.644c.348.36.852.858,1.312,1.312l.658.653c7.5,7.5,15.335,13.73,22.073,17.555,7.23,4.1,11.151,4.223,12.409,2.963,1.4-1.4.672-6.6-4.237-14.7a1.181,1.181,0,1,1,2.019-1.224c2.437,4.022,7.694,13.79,3.887,17.6A5.313,5.313,0,0,1,56.42,66Z" fill="#e7eced"/>
      </g>
      <path id="Path_473" data-name="Path 473" d="M18.2,43.684a5.9,5.9,0,1,1,5.9-5.9A5.91,5.91,0,0,1,18.2,43.684Z" fill="#e79717"/>
      <g id="Group_1269" data-name="Group 1269">
        <path id="Path_474" data-name="Path 474" d="M43.454,12.371a1.181,1.181,0,0,1-.633-2.178c8.6-5.449,14.663-6.811,17.531-3.943a5.726,5.726,0,0,1,1.525,4.439A1.2,1.2,0,0,1,60.636,11.8a1.179,1.179,0,0,1-1.116-1.242,3.372,3.372,0,0,0-.836-2.645c-1.909-1.907-7.366-.313-14.6,4.268A1.181,1.181,0,0,1,43.454,12.371Z" fill="#e7eced"/>
        <path id="Path_475" data-name="Path 475" d="M5.944,66a5.327,5.327,0,0,1-3.932-1.411C-1.77,60.806,3.485,51.051,5.921,47.032A1.181,1.181,0,1,1,7.94,48.256c-4.9,8.1-5.645,13.276-4.257,14.663,1.257,1.257,5.178,1.139,12.409-2.963C22.83,56.131,30.668,49.9,38.164,42.4,46.845,33.72,54.348,23.857,57.746,16.66a1.18,1.18,0,1,1,2.135,1.007c-3.507,7.427-11.188,17.544-20.048,26.4-7.64,7.641-15.658,14.012-22.576,17.939C12.583,64.662,8.765,66,5.944,66Z" fill="#e7eced"/>
      </g>
      <g id="Group_1270" data-name="Group 1270">
        <path id="Path_476" data-name="Path 476" d="M27.641,29.516a1.181,1.181,0,0,1-.835-2.015l1.181-1.181a1.18,1.18,0,0,1,1.669,1.669L28.476,29.17A1.177,1.177,0,0,1,27.641,29.516Z" fill="#8fb0b5"/>
        <path id="Path_477" data-name="Path 477" d="M35.905,34.239a1.181,1.181,0,0,1-.835-2.015l1.181-1.181a1.18,1.18,0,1,1,1.669,1.669L36.74,33.893A1.178,1.178,0,0,1,35.905,34.239Z" fill="#8fb0b5"/>
        <path id="Path_478" data-name="Path 478" d="M30,34.239a1.181,1.181,0,0,1-.835-2.015l1.181-1.181a1.18,1.18,0,1,1,1.669,1.669l-1.181,1.181A1.178,1.178,0,0,1,30,34.239Z" fill="#8fb0b5"/>
        <path id="Path_479" data-name="Path 479" d="M32.363,23.613a1.181,1.181,0,0,1-.835-2.015l1.181-1.181a1.18,1.18,0,0,1,1.669,1.669L33.2,23.267A1.178,1.178,0,0,1,32.363,23.613Z" fill="#8fb0b5"/>
        <path id="Path_480" data-name="Path 480" d="M40.628,28.335a1.181,1.181,0,0,1-.835-2.015l1.181-1.181a1.18,1.18,0,0,1,1.669,1.669l-1.181,1.181A1.177,1.177,0,0,1,40.628,28.335Z" fill="#8fb0b5"/>
        <path id="Path_481" data-name="Path 481" d="M34.725,28.335a1.181,1.181,0,0,1-.835-2.015l1.181-1.181a1.18,1.18,0,0,1,1.669,1.669L35.56,27.989A1.177,1.177,0,0,1,34.725,28.335Z" fill="#8fb0b5"/>
      </g>
      <path id="Path_482" data-name="Path 482" d="M28.822,14.168a7.084,7.084,0,1,1,7.084-7.084A7.092,7.092,0,0,1,28.822,14.168Z" fill="#94a9e8"/>
      <path id="Path_483" data-name="Path 483" d="M60.7,18.89a4.723,4.723,0,1,1,4.723-4.723A4.727,4.727,0,0,1,60.7,18.89Z" fill="#cb443a"/>
    </g>
  </g>
</svg>
