<svg xmlns="http://www.w3.org/2000/svg" xmlns:xlink="http://www.w3.org/1999/xlink" width="76" height="76" viewBox="0 0 76 76">
  <defs>
    <clipPath id="clip-path">
      <rect id="Rectangle_157" data-name="Rectangle 157" width="39" height="39" transform="translate(1078 3927)" fill="#fff" stroke="#707070" stroke-width="1"/>
    </clipPath>
  </defs>
  <g id="programming" transform="translate(-1059 -3908)">
    <circle id="Ellipse_51" data-name="Ellipse 51" cx="38" cy="38" r="38" transform="translate(1059 3908)" fill="#fff"/>
    <g id="Mask_Group_13" data-name="Mask Group 13" clip-path="url(#clip-path)">
      <g id="_001-coding" data-name="001-coding" transform="translate(1078 3927)">
        <path id="Path_492" data-name="Path 492" d="M18.357,29.783h2.285v6.855H18.357Z" fill="#d5e8fe"/>
        <path id="Path_493" data-name="Path 493" d="M19.5,29.783h1.143v6.855H19.5Z" fill="#b5dbff"/>
        <path id="Path_494" data-name="Path 494" d="M0,1.219V30.926H39V1.219Z" fill="#5f55af"/>
        <path id="Path_495" data-name="Path 495" d="M19.5,1.219H39V30.926H19.5Z" fill="#453d83"/>
        <path id="Path_496" data-name="Path 496" d="M9.217,35.5H29.783v2.285H9.217Z" fill="#edf5ff"/>
        <path id="Path_497" data-name="Path 497" d="M19.5,35.5H29.783v2.285H19.5Z" fill="#d5e8fe"/>
        <g id="Group_1280" data-name="Group 1280">
          <path id="Path_498" data-name="Path 498" d="M22.974,21.785,19.5,24.756l-1.531,1.325-1.508-1.737,2.994-2.559-2.994-2.559,1.508-1.737L19.5,18.814Z" fill="#64e1dc"/>
          <path id="Path_499" data-name="Path 499" d="M9.616,26.08,4.605,21.785,9.616,17.49,11.1,19.224,8.116,21.785,11.1,24.346Z" fill="#64e1dc"/>
          <path id="Path_500" data-name="Path 500" d="M9.074,20.638h9.419v2.283H9.074Z" transform="translate(-10.69 29.883) rotate(-75.992)" fill="#64e1dc"/>
        </g>
        <path id="Path_501" data-name="Path 501" d="M13.787,8.074h2.285v2.285H13.787Z" fill="#ffda2d"/>
        <path id="Path_502" data-name="Path 502" d="M18.357,8.074h2.285v2.285H18.357Z" fill="#ffda2d"/>
        <path id="Path_503" data-name="Path 503" d="M27.5,12.645h2.285V14.93H27.5Z" fill="#9cdd05"/>
        <path id="Path_504" data-name="Path 504" d="M32.068,12.645h2.285V14.93H32.068Z" fill="#9cdd05"/>
        <path id="Path_505" data-name="Path 505" d="M27.5,21.785h2.285V24.07H27.5Z" fill="#00c8c8"/>
        <path id="Path_506" data-name="Path 506" d="M32.068,21.785h2.285V24.07H32.068Z" fill="#00c8c8"/>
        <path id="Path_507" data-name="Path 507" d="M22.928,8.074H34.354v2.285H22.928Z" fill="#00c8c8"/>
        <path id="Path_508" data-name="Path 508" d="M25.213,17.215H27.5V19.5H25.213Z" fill="#fdbf00"/>
        <path id="Path_509" data-name="Path 509" d="M29.783,17.215h4.57V19.5h-4.57Z" fill="#fdbf00"/>
        <path id="Path_510" data-name="Path 510" d="M4.646,8.074H11.5v2.285H4.646Z" fill="#ffda2d"/>
        <path id="Path_511" data-name="Path 511" d="M13.787,12.645H25.213V14.93H13.787Z" fill="#ff80ac"/>
        <path id="Path_512" data-name="Path 512" d="M6.932,12.645H11.5V14.93H6.932Z" fill="#c3ea21"/>
        <path id="Path_513" data-name="Path 513" d="M19.5,8.074h1.143v2.285H19.5Z" fill="#fdbf00"/>
        <path id="Path_514" data-name="Path 514" d="M19.5,18.814l3.474,2.971L19.5,24.756Z" fill="#00c8c8"/>
        <path id="Path_515" data-name="Path 515" d="M19.5,12.645h5.713V14.93H19.5Z" fill="#ff3980"/>
      </g>
    </g>
  </g>
</svg>
