<svg xmlns="http://www.w3.org/2000/svg" xmlns:xlink="http://www.w3.org/1999/xlink" width="76" height="76" viewBox="0 0 76 76">
  <defs>
    <clipPath id="clip-path">
      <rect id="Rectangle_159" data-name="Rectangle 159" width="39" height="39" transform="translate(250 3927)" fill="#fff" stroke="#707070" stroke-width="1"/>
    </clipPath>
  </defs>
  <g id="secure" transform="translate(-1059 -3908)">
    <circle id="Ellipse_51" data-name="Ellipse 51" cx="38" cy="38" r="38" transform="translate(1059 3908)" fill="#fff"/>
    <g id="Mask_Group_16" data-name="Mask Group 16" transform="translate(828)" clip-path="url(#clip-path)">
      <g id="surface1" transform="translate(252.856 3927)">
        <path id="Path_567" data-name="Path 567" d="M31.5,26.044a19.676,19.676,0,0,1-4.713,7.341,24.667,24.667,0,0,1-9.21,5.457,2.818,2.818,0,0,1-.9.158h-.034a2.857,2.857,0,0,1-.549-.054,2.975,2.975,0,0,1-.378-.1A24.665,24.665,0,0,1,6.5,33.389a19.639,19.639,0,0,1-4.712-7.34C-.118,20.884-.01,15.194.077,10.621v-.07c.018-.378.029-.774.035-1.212A4.133,4.133,0,0,1,4.006,5.289,16.04,16.04,0,0,0,14.923.688l.026-.024a2.5,2.5,0,0,1,3.392,0l.025.024a16.042,16.042,0,0,0,10.917,4.6,4.133,4.133,0,0,1,3.892,4.049c.006.441.018.837.035,1.212v.03C33.3,15.162,33.406,20.863,31.5,26.044Zm0,0" fill="#00dd80"/>
        <path id="Path_568" data-name="Path 568" d="M31.5,26.044a19.676,19.676,0,0,1-4.713,7.341,24.667,24.667,0,0,1-9.21,5.457,2.818,2.818,0,0,1-.9.158V0A2.5,2.5,0,0,1,18.34.664l.025.024a16.042,16.042,0,0,0,10.917,4.6,4.133,4.133,0,0,1,3.892,4.049c.006.441.018.837.035,1.212v.03C33.3,15.162,33.406,20.863,31.5,26.044Zm0,0" fill="#00aa63"/>
        <path id="Path_569" data-name="Path 569" d="M26.363,19.5a9.732,9.732,0,0,1-9.685,9.72h-.034a9.72,9.72,0,1,1,0-19.44h.034A9.732,9.732,0,0,1,26.363,19.5Zm0,0" fill="#fff"/>
        <path id="Path_570" data-name="Path 570" d="M26.363,19.5a9.732,9.732,0,0,1-9.685,9.72V9.78A9.732,9.732,0,0,1,26.363,19.5Zm0,0" fill="#e1ebf0"/>
        <path id="Path_571" data-name="Path 571" d="M21.055,18.1l-4.378,4.378-.946.946a1.145,1.145,0,0,1-1.619,0L12.079,21.39A1.144,1.144,0,1,1,13.7,19.772L14.923,21l4.515-4.515A1.144,1.144,0,0,1,21.055,18.1Zm0,0" fill="#b4d2d7"/>
        <path id="Path_572" data-name="Path 572" d="M21.055,18.1l-4.378,4.378V19.241l2.759-2.759A1.144,1.144,0,0,1,21.055,18.1Zm0,0" fill="#6fa5aa"/>
      </g>
    </g>
  </g>
</svg>
