<svg xmlns="http://www.w3.org/2000/svg" xmlns:xlink="http://www.w3.org/1999/xlink" width="108" height="108" viewBox="0 0 108 108">
  <defs>
    <clipPath id="clip-path">
      <rect id="Rectangle_109" data-name="Rectangle 109" width="57" height="64" transform="translate(1009.205 1821.06)" fill="#fff" stroke="#707070" stroke-width="1"/>
    </clipPath>
  </defs>
  <g id="Group_2698" data-name="Group 2698" transform="translate(-1043 -1802)">
    <g id="Ellipse_42" data-name="Ellipse 42" transform="translate(1043 1802)" fill="#fff" stroke="#48c2c9" stroke-width="1">
      <circle cx="54" cy="54" r="54" stroke="none"/>
      <circle cx="54" cy="54" r="53.5" fill="none"/>
    </g>
    <g id="Mask_Group_1" data-name="Mask Group 1" transform="translate(59.796 2.94)" clip-path="url(#clip-path)">
      <g id="_001-earth" data-name="001-earth" transform="translate(1009.855 1821)">
        <path id="Path_334" data-name="Path 334" d="M44.674,4.324,45.8,3.2A1.872,1.872,0,0,0,43.156.548l-4.01,4.01a1.871,1.871,0,0,0,0,2.647l4.01,4.01A1.872,1.872,0,0,0,45.8,8.568l-.282-.282A24.234,24.234,0,0,1,64.662,31.946a1.872,1.872,0,1,0,3.744,0A27.924,27.924,0,0,0,44.674,4.324Z" transform="translate(-12.533 0)" fill="#97db4f"/>
        <g id="Group_1215" data-name="Group 1215" transform="translate(10.025 14.035)">
          <path id="Path_335" data-name="Path 335" d="M25.052,50.3a17.91,17.91,0,0,1,6.395-31.576,1.873,1.873,0,0,1,2.339,1.813v5.681a8.694,8.694,0,0,1-2.73,6.342,2.141,2.141,0,0,0,.007,3.018,7.542,7.542,0,0,1,.169,10.838l-3.719,3.722A1.879,1.879,0,0,1,25.052,50.3Z" transform="translate(-18.012 -18.156)" fill="#d9ff7d"/>
          <path id="Path_336" data-name="Path 336" d="M37.711,53.835a17.723,17.723,0,0,1-10.873-3.682,1.873,1.873,0,0,1-.185-2.809l3.719-3.722a3.8,3.8,0,0,0-.164-5.538,5.894,5.894,0,0,1-.007-8.323,5.039,5.039,0,0,0,1.628-3.69V20.39a1.872,1.872,0,0,1,1.4-1.813A17.924,17.924,0,0,1,50.92,23.832a1.872,1.872,0,0,1-.056,2.589l-5.985,5.987a2.143,2.143,0,0,0,0,3.024L52.6,43.156a1.872,1.872,0,0,1,.259,2.322,17.82,17.82,0,0,1-15.147,8.358Z" transform="translate(-19.799 -18.012)" fill="#5bc1eb"/>
          <path id="Path_337" data-name="Path 337" d="M41,53.835V18.012a17.972,17.972,0,0,1,13.209,5.82,1.872,1.872,0,0,1-.056,2.589l-5.985,5.987a2.143,2.143,0,0,0,0,3.024l7.719,7.725a1.872,1.872,0,0,1,.259,2.322A17.82,17.82,0,0,1,41,53.835Z" transform="translate(-23.088 -18.012)" fill="#418bb3"/>
          <path id="Path_338" data-name="Path 338" d="M54.034,47.279l-7.719-7.725a5.892,5.892,0,0,1,0-8.316L52.3,25.251a1.872,1.872,0,0,1,2.7.059A17.893,17.893,0,0,1,56.938,46.96a1.873,1.873,0,0,1-2.9.319Z" transform="translate(-23.883 -19.49)" fill="#97db4f"/>
        </g>
        <path id="Path_339" data-name="Path 339" d="M28.878,68.092,27.749,69.22A1.872,1.872,0,1,0,30.4,71.868l4.01-4.01a1.871,1.871,0,0,0,0-2.647L30.4,61.2a1.872,1.872,0,1,0-2.647,2.647l.282.282A24.234,24.234,0,0,1,8.89,40.47a1.872,1.872,0,1,0-3.744,0A27.924,27.924,0,0,0,28.878,68.092Z" transform="translate(-5.146 -8.523)" fill="#66a182"/>
      </g>
    </g>
  </g>
</svg>
