<svg xmlns="http://www.w3.org/2000/svg" xmlns:xlink="http://www.w3.org/1999/xlink" width="1406" height="566" viewBox="0 0 1406 566">
  <defs>
    <clipPath id="clip-path">
      <rect width="321" height="234" fill="none"/>
    </clipPath>
  </defs>
  <g id="Slider" transform="translate(15.5 -202)">
    <path id="Cloud" d="M370.172,234.895q-4.005.323-8.1.326a98.756,98.756,0,0,1-62.913-22.505,99.184,99.184,0,0,1-175.577,4.815A99.2,99.2,0,0,1,0,121.552a97.016,97.016,0,0,1,22.142-61.99V0h1374.8V111.78a112.334,112.334,0,0,1-163.635,138.875,112.392,112.392,0,0,1-167.21.131A99.123,99.123,0,0,1,940.648,134.1H570.035a112.314,112.314,0,1,1-199.863,100.8Z" transform="translate(1390.5 768) rotate(180)" fill="#48c2c9"/>
    <g id="Repeat_Grid_2" data-name="Repeat Grid 2" transform="translate(231 256)" clip-path="url(#clip-path)">
      <g transform="translate(-1129 -140)">
        <circle id="Ellipse_7" data-name="Ellipse 7" cx="3.5" cy="3.5" r="3.5" transform="translate(1129 140)" fill="rgba(72,194,201,0.34)"/>
      </g>
      <g transform="translate(-1099 -140)">
        <circle id="Ellipse_7-2" data-name="Ellipse 7" cx="3.5" cy="3.5" r="3.5" transform="translate(1129 140)" fill="rgba(72,194,201,0.34)"/>
      </g>
      <g transform="translate(-1069 -140)">
        <circle id="Ellipse_7-3" data-name="Ellipse 7" cx="3.5" cy="3.5" r="3.5" transform="translate(1129 140)" fill="rgba(72,194,201,0.34)"/>
      </g>
      <g transform="translate(-1039 -140)">
        <circle id="Ellipse_7-4" data-name="Ellipse 7" cx="3.5" cy="3.5" r="3.5" transform="translate(1129 140)" fill="rgba(72,194,201,0.34)"/>
      </g>
      <g transform="translate(-1009 -140)">
        <circle id="Ellipse_7-5" data-name="Ellipse 7" cx="3.5" cy="3.5" r="3.5" transform="translate(1129 140)" fill="rgba(72,194,201,0.34)"/>
      </g>
      <g transform="translate(-979 -140)">
        <circle id="Ellipse_7-6" data-name="Ellipse 7" cx="3.5" cy="3.5" r="3.5" transform="translate(1129 140)" fill="rgba(72,194,201,0.34)"/>
      </g>
      <g transform="translate(-949 -140)">
        <circle id="Ellipse_7-7" data-name="Ellipse 7" cx="3.5" cy="3.5" r="3.5" transform="translate(1129 140)" fill="rgba(72,194,201,0.34)"/>
      </g>
      <g transform="translate(-919 -140)">
        <circle id="Ellipse_7-8" data-name="Ellipse 7" cx="3.5" cy="3.5" r="3.5" transform="translate(1129 140)" fill="rgba(72,194,201,0.34)"/>
      </g>
      <g transform="translate(-889 -140)">
        <circle id="Ellipse_7-9" data-name="Ellipse 7" cx="3.5" cy="3.5" r="3.5" transform="translate(1129 140)" fill="rgba(72,194,201,0.34)"/>
      </g>
      <g transform="translate(-859 -140)">
        <circle id="Ellipse_7-10" data-name="Ellipse 7" cx="3.5" cy="3.5" r="3.5" transform="translate(1129 140)" fill="rgba(72,194,201,0.34)"/>
      </g>
      <g transform="translate(-829 -140)">
        <circle id="Ellipse_7-11" data-name="Ellipse 7" cx="3.5" cy="3.5" r="3.5" transform="translate(1129 140)" fill="rgba(72,194,201,0.34)"/>
      </g>
      <g transform="translate(-1129 -110)">
        <circle id="Ellipse_7-12" data-name="Ellipse 7" cx="3.5" cy="3.5" r="3.5" transform="translate(1129 140)" fill="rgba(72,194,201,0.34)"/>
      </g>
      <g transform="translate(-1099 -110)">
        <circle id="Ellipse_7-13" data-name="Ellipse 7" cx="3.5" cy="3.5" r="3.5" transform="translate(1129 140)" fill="rgba(72,194,201,0.34)"/>
      </g>
      <g transform="translate(-1069 -110)">
        <circle id="Ellipse_7-14" data-name="Ellipse 7" cx="3.5" cy="3.5" r="3.5" transform="translate(1129 140)" fill="rgba(72,194,201,0.34)"/>
      </g>
      <g transform="translate(-1039 -110)">
        <circle id="Ellipse_7-15" data-name="Ellipse 7" cx="3.5" cy="3.5" r="3.5" transform="translate(1129 140)" fill="rgba(72,194,201,0.34)"/>
      </g>
      <g transform="translate(-1009 -110)">
        <circle id="Ellipse_7-16" data-name="Ellipse 7" cx="3.5" cy="3.5" r="3.5" transform="translate(1129 140)" fill="rgba(72,194,201,0.34)"/>
      </g>
      <g transform="translate(-979 -110)">
        <circle id="Ellipse_7-17" data-name="Ellipse 7" cx="3.5" cy="3.5" r="3.5" transform="translate(1129 140)" fill="rgba(72,194,201,0.34)"/>
      </g>
      <g transform="translate(-949 -110)">
        <circle id="Ellipse_7-18" data-name="Ellipse 7" cx="3.5" cy="3.5" r="3.5" transform="translate(1129 140)" fill="rgba(72,194,201,0.34)"/>
      </g>
      <g transform="translate(-919 -110)">
        <circle id="Ellipse_7-19" data-name="Ellipse 7" cx="3.5" cy="3.5" r="3.5" transform="translate(1129 140)" fill="rgba(72,194,201,0.34)"/>
      </g>
      <g transform="translate(-889 -110)">
        <circle id="Ellipse_7-20" data-name="Ellipse 7" cx="3.5" cy="3.5" r="3.5" transform="translate(1129 140)" fill="rgba(72,194,201,0.34)"/>
      </g>
      <g transform="translate(-859 -110)">
        <circle id="Ellipse_7-21" data-name="Ellipse 7" cx="3.5" cy="3.5" r="3.5" transform="translate(1129 140)" fill="rgba(72,194,201,0.34)"/>
      </g>
      <g transform="translate(-829 -110)">
        <circle id="Ellipse_7-22" data-name="Ellipse 7" cx="3.5" cy="3.5" r="3.5" transform="translate(1129 140)" fill="rgba(72,194,201,0.34)"/>
      </g>
      <g transform="translate(-1129 -80)">
        <circle id="Ellipse_7-23" data-name="Ellipse 7" cx="3.5" cy="3.5" r="3.5" transform="translate(1129 140)" fill="rgba(72,194,201,0.34)"/>
      </g>
      <g transform="translate(-1099 -80)">
        <circle id="Ellipse_7-24" data-name="Ellipse 7" cx="3.5" cy="3.5" r="3.5" transform="translate(1129 140)" fill="rgba(72,194,201,0.34)"/>
      </g>
      <g transform="translate(-1069 -80)">
        <circle id="Ellipse_7-25" data-name="Ellipse 7" cx="3.5" cy="3.5" r="3.5" transform="translate(1129 140)" fill="rgba(72,194,201,0.34)"/>
      </g>
      <g transform="translate(-1039 -80)">
        <circle id="Ellipse_7-26" data-name="Ellipse 7" cx="3.5" cy="3.5" r="3.5" transform="translate(1129 140)" fill="rgba(72,194,201,0.34)"/>
      </g>
      <g transform="translate(-1009 -80)">
        <circle id="Ellipse_7-27" data-name="Ellipse 7" cx="3.5" cy="3.5" r="3.5" transform="translate(1129 140)" fill="rgba(72,194,201,0.34)"/>
      </g>
      <g transform="translate(-979 -80)">
        <circle id="Ellipse_7-28" data-name="Ellipse 7" cx="3.5" cy="3.5" r="3.5" transform="translate(1129 140)" fill="rgba(72,194,201,0.34)"/>
      </g>
      <g transform="translate(-949 -80)">
        <circle id="Ellipse_7-29" data-name="Ellipse 7" cx="3.5" cy="3.5" r="3.5" transform="translate(1129 140)" fill="rgba(72,194,201,0.34)"/>
      </g>
      <g transform="translate(-919 -80)">
        <circle id="Ellipse_7-30" data-name="Ellipse 7" cx="3.5" cy="3.5" r="3.5" transform="translate(1129 140)" fill="rgba(72,194,201,0.34)"/>
      </g>
      <g transform="translate(-889 -80)">
        <circle id="Ellipse_7-31" data-name="Ellipse 7" cx="3.5" cy="3.5" r="3.5" transform="translate(1129 140)" fill="rgba(72,194,201,0.34)"/>
      </g>
      <g transform="translate(-859 -80)">
        <circle id="Ellipse_7-32" data-name="Ellipse 7" cx="3.5" cy="3.5" r="3.5" transform="translate(1129 140)" fill="rgba(72,194,201,0.34)"/>
      </g>
      <g transform="translate(-829 -80)">
        <circle id="Ellipse_7-33" data-name="Ellipse 7" cx="3.5" cy="3.5" r="3.5" transform="translate(1129 140)" fill="rgba(72,194,201,0.34)"/>
      </g>
      <g transform="translate(-1129 -50)">
        <circle id="Ellipse_7-34" data-name="Ellipse 7" cx="3.5" cy="3.5" r="3.5" transform="translate(1129 140)" fill="rgba(72,194,201,0.34)"/>
      </g>
      <g transform="translate(-1099 -50)">
        <circle id="Ellipse_7-35" data-name="Ellipse 7" cx="3.5" cy="3.5" r="3.5" transform="translate(1129 140)" fill="rgba(72,194,201,0.34)"/>
      </g>
      <g transform="translate(-1069 -50)">
        <circle id="Ellipse_7-36" data-name="Ellipse 7" cx="3.5" cy="3.5" r="3.5" transform="translate(1129 140)" fill="rgba(72,194,201,0.34)"/>
      </g>
      <g transform="translate(-1039 -50)">
        <circle id="Ellipse_7-37" data-name="Ellipse 7" cx="3.5" cy="3.5" r="3.5" transform="translate(1129 140)" fill="rgba(72,194,201,0.34)"/>
      </g>
      <g transform="translate(-1009 -50)">
        <circle id="Ellipse_7-38" data-name="Ellipse 7" cx="3.5" cy="3.5" r="3.5" transform="translate(1129 140)" fill="rgba(72,194,201,0.34)"/>
      </g>
      <g transform="translate(-979 -50)">
        <circle id="Ellipse_7-39" data-name="Ellipse 7" cx="3.5" cy="3.5" r="3.5" transform="translate(1129 140)" fill="rgba(72,194,201,0.34)"/>
      </g>
      <g transform="translate(-949 -50)">
        <circle id="Ellipse_7-40" data-name="Ellipse 7" cx="3.5" cy="3.5" r="3.5" transform="translate(1129 140)" fill="rgba(72,194,201,0.34)"/>
      </g>
      <g transform="translate(-919 -50)">
        <circle id="Ellipse_7-41" data-name="Ellipse 7" cx="3.5" cy="3.5" r="3.5" transform="translate(1129 140)" fill="rgba(72,194,201,0.34)"/>
      </g>
      <g transform="translate(-889 -50)">
        <circle id="Ellipse_7-42" data-name="Ellipse 7" cx="3.5" cy="3.5" r="3.5" transform="translate(1129 140)" fill="rgba(72,194,201,0.34)"/>
      </g>
      <g transform="translate(-859 -50)">
        <circle id="Ellipse_7-43" data-name="Ellipse 7" cx="3.5" cy="3.5" r="3.5" transform="translate(1129 140)" fill="rgba(72,194,201,0.34)"/>
      </g>
      <g transform="translate(-829 -50)">
        <circle id="Ellipse_7-44" data-name="Ellipse 7" cx="3.5" cy="3.5" r="3.5" transform="translate(1129 140)" fill="rgba(72,194,201,0.34)"/>
      </g>
      <g transform="translate(-1129 -20)">
        <circle id="Ellipse_7-45" data-name="Ellipse 7" cx="3.5" cy="3.5" r="3.5" transform="translate(1129 140)" fill="rgba(72,194,201,0.34)"/>
      </g>
      <g transform="translate(-1099 -20)">
        <circle id="Ellipse_7-46" data-name="Ellipse 7" cx="3.5" cy="3.5" r="3.5" transform="translate(1129 140)" fill="rgba(72,194,201,0.34)"/>
      </g>
      <g transform="translate(-1069 -20)">
        <circle id="Ellipse_7-47" data-name="Ellipse 7" cx="3.5" cy="3.5" r="3.5" transform="translate(1129 140)" fill="rgba(72,194,201,0.34)"/>
      </g>
      <g transform="translate(-1039 -20)">
        <circle id="Ellipse_7-48" data-name="Ellipse 7" cx="3.5" cy="3.5" r="3.5" transform="translate(1129 140)" fill="rgba(72,194,201,0.34)"/>
      </g>
      <g transform="translate(-1009 -20)">
        <circle id="Ellipse_7-49" data-name="Ellipse 7" cx="3.5" cy="3.5" r="3.5" transform="translate(1129 140)" fill="rgba(72,194,201,0.34)"/>
      </g>
      <g transform="translate(-979 -20)">
        <circle id="Ellipse_7-50" data-name="Ellipse 7" cx="3.5" cy="3.5" r="3.5" transform="translate(1129 140)" fill="rgba(72,194,201,0.34)"/>
      </g>
      <g transform="translate(-949 -20)">
        <circle id="Ellipse_7-51" data-name="Ellipse 7" cx="3.5" cy="3.5" r="3.5" transform="translate(1129 140)" fill="rgba(72,194,201,0.34)"/>
      </g>
      <g transform="translate(-919 -20)">
        <circle id="Ellipse_7-52" data-name="Ellipse 7" cx="3.5" cy="3.5" r="3.5" transform="translate(1129 140)" fill="rgba(72,194,201,0.34)"/>
      </g>
      <g transform="translate(-889 -20)">
        <circle id="Ellipse_7-53" data-name="Ellipse 7" cx="3.5" cy="3.5" r="3.5" transform="translate(1129 140)" fill="rgba(72,194,201,0.34)"/>
      </g>
      <g transform="translate(-859 -20)">
        <circle id="Ellipse_7-54" data-name="Ellipse 7" cx="3.5" cy="3.5" r="3.5" transform="translate(1129 140)" fill="rgba(72,194,201,0.34)"/>
      </g>
      <g transform="translate(-829 -20)">
        <circle id="Ellipse_7-55" data-name="Ellipse 7" cx="3.5" cy="3.5" r="3.5" transform="translate(1129 140)" fill="rgba(72,194,201,0.34)"/>
      </g>
      <g transform="translate(-1129 10)">
        <circle id="Ellipse_7-56" data-name="Ellipse 7" cx="3.5" cy="3.5" r="3.5" transform="translate(1129 140)" fill="rgba(72,194,201,0.34)"/>
      </g>
      <g transform="translate(-1099 10)">
        <circle id="Ellipse_7-57" data-name="Ellipse 7" cx="3.5" cy="3.5" r="3.5" transform="translate(1129 140)" fill="rgba(72,194,201,0.34)"/>
      </g>
      <g transform="translate(-1069 10)">
        <circle id="Ellipse_7-58" data-name="Ellipse 7" cx="3.5" cy="3.5" r="3.5" transform="translate(1129 140)" fill="rgba(72,194,201,0.34)"/>
      </g>
      <g transform="translate(-1039 10)">
        <circle id="Ellipse_7-59" data-name="Ellipse 7" cx="3.5" cy="3.5" r="3.5" transform="translate(1129 140)" fill="rgba(72,194,201,0.34)"/>
      </g>
      <g transform="translate(-1009 10)">
        <circle id="Ellipse_7-60" data-name="Ellipse 7" cx="3.5" cy="3.5" r="3.5" transform="translate(1129 140)" fill="rgba(72,194,201,0.34)"/>
      </g>
      <g transform="translate(-979 10)">
        <circle id="Ellipse_7-61" data-name="Ellipse 7" cx="3.5" cy="3.5" r="3.5" transform="translate(1129 140)" fill="rgba(72,194,201,0.34)"/>
      </g>
      <g transform="translate(-949 10)">
        <circle id="Ellipse_7-62" data-name="Ellipse 7" cx="3.5" cy="3.5" r="3.5" transform="translate(1129 140)" fill="rgba(72,194,201,0.34)"/>
      </g>
      <g transform="translate(-919 10)">
        <circle id="Ellipse_7-63" data-name="Ellipse 7" cx="3.5" cy="3.5" r="3.5" transform="translate(1129 140)" fill="rgba(72,194,201,0.34)"/>
      </g>
      <g transform="translate(-889 10)">
        <circle id="Ellipse_7-64" data-name="Ellipse 7" cx="3.5" cy="3.5" r="3.5" transform="translate(1129 140)" fill="rgba(72,194,201,0.34)"/>
      </g>
      <g transform="translate(-859 10)">
        <circle id="Ellipse_7-65" data-name="Ellipse 7" cx="3.5" cy="3.5" r="3.5" transform="translate(1129 140)" fill="rgba(72,194,201,0.34)"/>
      </g>
      <g transform="translate(-829 10)">
        <circle id="Ellipse_7-66" data-name="Ellipse 7" cx="3.5" cy="3.5" r="3.5" transform="translate(1129 140)" fill="rgba(72,194,201,0.34)"/>
      </g>
      <g transform="translate(-1129 40)">
        <circle id="Ellipse_7-67" data-name="Ellipse 7" cx="3.5" cy="3.5" r="3.5" transform="translate(1129 140)" fill="rgba(72,194,201,0.34)"/>
      </g>
      <g transform="translate(-1099 40)">
        <circle id="Ellipse_7-68" data-name="Ellipse 7" cx="3.5" cy="3.5" r="3.5" transform="translate(1129 140)" fill="rgba(72,194,201,0.34)"/>
      </g>
      <g transform="translate(-1069 40)">
        <circle id="Ellipse_7-69" data-name="Ellipse 7" cx="3.5" cy="3.5" r="3.5" transform="translate(1129 140)" fill="rgba(72,194,201,0.34)"/>
      </g>
      <g transform="translate(-1039 40)">
        <circle id="Ellipse_7-70" data-name="Ellipse 7" cx="3.5" cy="3.5" r="3.5" transform="translate(1129 140)" fill="rgba(72,194,201,0.34)"/>
      </g>
      <g transform="translate(-1009 40)">
        <circle id="Ellipse_7-71" data-name="Ellipse 7" cx="3.5" cy="3.5" r="3.5" transform="translate(1129 140)" fill="rgba(72,194,201,0.34)"/>
      </g>
      <g transform="translate(-979 40)">
        <circle id="Ellipse_7-72" data-name="Ellipse 7" cx="3.5" cy="3.5" r="3.5" transform="translate(1129 140)" fill="rgba(72,194,201,0.34)"/>
      </g>
      <g transform="translate(-949 40)">
        <circle id="Ellipse_7-73" data-name="Ellipse 7" cx="3.5" cy="3.5" r="3.5" transform="translate(1129 140)" fill="rgba(72,194,201,0.34)"/>
      </g>
      <g transform="translate(-919 40)">
        <circle id="Ellipse_7-74" data-name="Ellipse 7" cx="3.5" cy="3.5" r="3.5" transform="translate(1129 140)" fill="rgba(72,194,201,0.34)"/>
      </g>
      <g transform="translate(-889 40)">
        <circle id="Ellipse_7-75" data-name="Ellipse 7" cx="3.5" cy="3.5" r="3.5" transform="translate(1129 140)" fill="rgba(72,194,201,0.34)"/>
      </g>
      <g transform="translate(-859 40)">
        <circle id="Ellipse_7-76" data-name="Ellipse 7" cx="3.5" cy="3.5" r="3.5" transform="translate(1129 140)" fill="rgba(72,194,201,0.34)"/>
      </g>
      <g transform="translate(-829 40)">
        <circle id="Ellipse_7-77" data-name="Ellipse 7" cx="3.5" cy="3.5" r="3.5" transform="translate(1129 140)" fill="rgba(72,194,201,0.34)"/>
      </g>
      <g transform="translate(-1129 70)">
        <circle id="Ellipse_7-78" data-name="Ellipse 7" cx="3.5" cy="3.5" r="3.5" transform="translate(1129 140)" fill="rgba(72,194,201,0.34)"/>
      </g>
      <g transform="translate(-1099 70)">
        <circle id="Ellipse_7-79" data-name="Ellipse 7" cx="3.5" cy="3.5" r="3.5" transform="translate(1129 140)" fill="rgba(72,194,201,0.34)"/>
      </g>
      <g transform="translate(-1069 70)">
        <circle id="Ellipse_7-80" data-name="Ellipse 7" cx="3.5" cy="3.5" r="3.5" transform="translate(1129 140)" fill="rgba(72,194,201,0.34)"/>
      </g>
      <g transform="translate(-1039 70)">
        <circle id="Ellipse_7-81" data-name="Ellipse 7" cx="3.5" cy="3.5" r="3.5" transform="translate(1129 140)" fill="rgba(72,194,201,0.34)"/>
      </g>
      <g transform="translate(-1009 70)">
        <circle id="Ellipse_7-82" data-name="Ellipse 7" cx="3.5" cy="3.5" r="3.5" transform="translate(1129 140)" fill="rgba(72,194,201,0.34)"/>
      </g>
      <g transform="translate(-979 70)">
        <circle id="Ellipse_7-83" data-name="Ellipse 7" cx="3.5" cy="3.5" r="3.5" transform="translate(1129 140)" fill="rgba(72,194,201,0.34)"/>
      </g>
      <g transform="translate(-949 70)">
        <circle id="Ellipse_7-84" data-name="Ellipse 7" cx="3.5" cy="3.5" r="3.5" transform="translate(1129 140)" fill="rgba(72,194,201,0.34)"/>
      </g>
      <g transform="translate(-919 70)">
        <circle id="Ellipse_7-85" data-name="Ellipse 7" cx="3.5" cy="3.5" r="3.5" transform="translate(1129 140)" fill="rgba(72,194,201,0.34)"/>
      </g>
      <g transform="translate(-889 70)">
        <circle id="Ellipse_7-86" data-name="Ellipse 7" cx="3.5" cy="3.5" r="3.5" transform="translate(1129 140)" fill="rgba(72,194,201,0.34)"/>
      </g>
      <g transform="translate(-859 70)">
        <circle id="Ellipse_7-87" data-name="Ellipse 7" cx="3.5" cy="3.5" r="3.5" transform="translate(1129 140)" fill="rgba(72,194,201,0.34)"/>
      </g>
      <g transform="translate(-829 70)">
        <circle id="Ellipse_7-88" data-name="Ellipse 7" cx="3.5" cy="3.5" r="3.5" transform="translate(1129 140)" fill="rgba(72,194,201,0.34)"/>
      </g>
    </g>
    <path id="Icon_awesome-cloud" data-name="Icon awesome-cloud" d="M37.8,15.933A6.758,6.758,0,0,0,31.5,6.75a6.716,6.716,0,0,0-3.748,1.139,11.251,11.251,0,0,0-21,5.611c0,.19.007.38.014.57a10.128,10.128,0,0,0,3.361,19.68H36a9,9,0,0,0,1.8-17.817Z" transform="translate(121 354.75)" fill="#48c2c9" opacity="0.2"/>
    <path id="Icon_awesome-cloud-2" data-name="Icon awesome-cloud" d="M37.8,15.933A6.758,6.758,0,0,0,31.5,6.75a6.716,6.716,0,0,0-3.748,1.139,11.251,11.251,0,0,0-21,5.611c0,.19.007.38.014.57a10.128,10.128,0,0,0,3.361,19.68H36a9,9,0,0,0,1.8-17.817Z" transform="translate(1211 199.75)" fill="#48c2c9" opacity="0.2"/>
    <path id="Icon_awesome-cloud-3" data-name="Icon awesome-cloud" d="M21.574,10.059a3.857,3.857,0,0,0-3.6-5.241,3.833,3.833,0,0,0-2.139.65,6.421,6.421,0,0,0-11.987,3.2c0,.108,0,.217.008.325A5.78,5.78,0,0,0,5.779,20.228H20.547a5.136,5.136,0,0,0,1.027-10.169Z" transform="translate(996 316.272)" fill="#48c2c9" opacity="0.04"/>
  </g>
</svg>
