<svg xmlns="http://www.w3.org/2000/svg" xmlns:xlink="http://www.w3.org/1999/xlink" width="66" height="66" viewBox="0 0 66 66">
  <defs>
    <clipPath id="clip-path">
      <rect id="Rectangle_136" data-name="Rectangle 136" width="66" height="66" transform="translate(579 2947)" fill="#fff" stroke="#707070" stroke-width="1"/>
    </clipPath>
  </defs>
  <g id="system" transform="translate(-579 -2947)" clip-path="url(#clip-path)">
    <g id="computer-settings" transform="translate(577.377 2945.918)">
      <path id="Path_438" data-name="Path 438" d="M6.492,58.426V21.639a2.163,2.163,0,0,1,2.164-2.164H60.59a2.163,2.163,0,0,1,2.164,2.164V58.426" fill="#a8b0bc"/>
      <path id="Path_439" data-name="Path 439" d="M52.209,39.766a33.658,33.658,0,0,0-6.766-20.29H8.656a2.163,2.163,0,0,0-2.164,2.164V58.426h40.1a33.649,33.649,0,0,0,5.619-18.661Z" fill="#c1c8d1"/>
      <path id="Path_440" data-name="Path 440" d="M58.426,55.18H10.82A1.082,1.082,0,0,1,9.738,54.1V23.8a1.082,1.082,0,0,1,1.082-1.082H58.426A1.082,1.082,0,0,1,59.508,23.8V54.1A1.082,1.082,0,0,1,58.426,55.18Z" fill="#c7e2fc"/>
      <path id="Path_441" data-name="Path 441" d="M9.738,23.8V54.1A1.082,1.082,0,0,0,10.82,55.18H48.487a33.779,33.779,0,0,0-.894-32.459H10.82A1.082,1.082,0,0,0,9.738,23.8Z" fill="#ebf7fe"/>
      <path id="Path_442" data-name="Path 442" d="M9.738,47.607l5.41-5.41,4.328,4.328,5.41-5.41,11.9,8.656,15.148-10.82,7.574,6.492V54.1a1.082,1.082,0,0,1-1.082,1.082H10.82A1.082,1.082,0,0,1,9.738,54.1Z" fill="#f2c351"/>
      <path id="Path_443" data-name="Path 443" d="M52.189,39.168l-.254-.217L36.787,49.77l-11.9-8.656-5.41,5.41L15.148,42.2l-5.41,5.41V54.1A1.082,1.082,0,0,0,10.82,55.18H48.487a33.647,33.647,0,0,0,3.722-15.415c0-.2-.017-.4-.021-.6Z" fill="#f7d881"/>
      <path id="Path_444" data-name="Path 444" d="M28.131,59.508a1.082,1.082,0,0,0,1.082,1.082h10.82a1.082,1.082,0,0,0,1.082-1.082A1.082,1.082,0,0,1,42.2,58.426H66a1.082,1.082,0,0,1,1.082,1.082v3.246a4.328,4.328,0,0,1-4.328,4.328H6.492a4.328,4.328,0,0,1-4.328-4.328V59.508a1.082,1.082,0,0,1,1.082-1.082h23.8A1.082,1.082,0,0,1,28.131,59.508Z" fill="#758190"/>
      <path id="Path_445" data-name="Path 445" d="M42.2,58.426a1.082,1.082,0,0,0-1.082,1.082,1.082,1.082,0,0,1-1.082,1.082H29.213a1.082,1.082,0,0,1-1.082-1.082,1.082,1.082,0,0,0-1.082-1.082H3.246a1.082,1.082,0,0,0-1.082,1.082v3.246a4.328,4.328,0,0,0,4.328,4.328H38.312a33.967,33.967,0,0,0,8.277-8.656Z" fill="#8892a0"/>
      <g id="Group_1248" data-name="Group 1248">
        <path id="Path_446" data-name="Path 446" d="M5.41,61.672H11.9v2.164H5.41Z" fill="#a8b0bc"/>
      </g>
      <g id="Group_1249" data-name="Group 1249">
        <path id="Path_447" data-name="Path 447" d="M57.344,61.672h6.492v2.164H57.344Z" fill="#a8b0bc"/>
      </g>
      <path id="Path_448" data-name="Path 448" d="M46.525,16.23V11.9H43a8.621,8.621,0,0,0-.922-2.227l2.5-2.5-3.06-3.06-2.5,2.5a8.621,8.621,0,0,0-2.227-.922V2.164H32.459V5.693a8.621,8.621,0,0,0-2.227.922l-2.5-2.5-3.06,3.06,2.5,2.5a8.605,8.605,0,0,0-.922,2.227H22.721V16.23h3.529a8.621,8.621,0,0,0,.922,2.227l-2.5,2.5,3.06,3.06,2.5-2.5a8.605,8.605,0,0,0,2.227.922v3.529h4.328V22.438a8.621,8.621,0,0,0,2.227-.922l2.5,2.5,3.06-3.06-2.5-2.5A8.59,8.59,0,0,0,43,16.23Z" fill="#999"/>
      <circle id="Ellipse_46" data-name="Ellipse 46" cx="4.328" cy="4.328" r="4.328" transform="translate(30.295 9.738)" fill="#e6e6e6"/>
      <g id="Group_1250" data-name="Group 1250">
        <path id="Path_449" data-name="Path 449" d="M11.923,12.556,10.5,11.136,8.972,12.667l3.246,3.246a1.085,1.085,0,0,0,1.531,0l3.246-3.246-1.531-1.531L14.089,12.51A9.741,9.741,0,0,1,23.8,3.246V1.082A11.906,11.906,0,0,0,11.923,12.556Z" fill="#e47c6e"/>
        <path id="Path_450" data-name="Path 450" d="M58.742,11.136l-1.421,1.421A11.906,11.906,0,0,0,45.443,1.082V3.246a9.741,9.741,0,0,1,9.713,9.265l-1.374-1.374L52.25,12.668,55.5,15.914a1.085,1.085,0,0,0,1.531,0l3.246-3.246Z" fill="#e47c6e"/>
      </g>
      <path id="Path_451" data-name="Path 451" d="M34.623,30.3,30.3,35.7h2.164v7.574h4.328V35.7h2.164Z" fill="#e47c6e"/>
      <g id="Group_1251" data-name="Group 1251">
        <path id="Path_452" data-name="Path 452" d="M14.066,46.525H16.23V55.18H14.066Z" fill="#e39854"/>
      </g>
      <g id="Group_1252" data-name="Group 1252">
        <path id="Path_453" data-name="Path 453" d="M22.721,46.524h2.164v8.656H22.721Z" fill="#e39854"/>
      </g>
      <g id="Group_1253" data-name="Group 1253">
        <path id="Path_454" data-name="Path 454" d="M35.7,51.934h2.164V55.18H35.7Z" fill="#e39854"/>
      </g>
      <g id="Group_1254" data-name="Group 1254">
        <path id="Path_455" data-name="Path 455" d="M40.033,50.852H42.2V55.18H40.033Z" fill="#e39854"/>
      </g>
      <g id="Group_1255" data-name="Group 1255">
        <path id="Path_456" data-name="Path 456" d="M44.361,47.607h2.164V55.18H44.361Z" fill="#e39854"/>
      </g>
      <g id="Group_1256" data-name="Group 1256">
        <path id="Path_457" data-name="Path 457" d="M31.377,51.934h2.164V55.18H31.377Z" fill="#e39854"/>
      </g>
      <g id="Group_1257" data-name="Group 1257">
        <path id="Path_458" data-name="Path 458" d="M53.016,44.361H55.18V55.18H53.016Z" fill="#c16b3f"/>
      </g>
      <g id="Group_1258" data-name="Group 1258">
        <path id="Path_459" data-name="Path 459" d="M48.689,44.36h2.164v10.82H48.689Z" fill="#e39854"/>
      </g>
      <g id="Group_1259" data-name="Group 1259">
        <path id="Path_460" data-name="Path 460" d="M18.393,49.77h2.164v5.41H18.393Z" fill="#e39854"/>
      </g>
      <g id="Group_1260" data-name="Group 1260">
        <path id="Path_461" data-name="Path 461" d="M27.049,47.605h2.164v7.574H27.049Z" fill="#e39854"/>
      </g>
    </g>
  </g>
</svg>
