<svg xmlns="http://www.w3.org/2000/svg" xmlns:xlink="http://www.w3.org/1999/xlink" width="108" height="108" viewBox="0 0 108 108">
  <defs>
    <clipPath id="clip-path">
      <rect id="Rectangle_111" data-name="Rectangle 111" width="64" height="64" transform="translate(237 1824)" fill="#fff" stroke="#707070" stroke-width="1"/>
    </clipPath>
  </defs>
  <g id="Group_2700" data-name="Group 2700" transform="translate(-215 -1802)">
    <g id="Ellipse_45" data-name="Ellipse 45" transform="translate(215 1802)" fill="#fff" stroke="#48c2c9" stroke-width="1">
      <circle cx="54" cy="54" r="54" stroke="none"/>
      <circle cx="54" cy="54" r="53.5" fill="none"/>
    </g>
    <g id="Mask_Group_33" data-name="Mask Group 33" clip-path="url(#clip-path)">
      <g id="trust" transform="translate(237 1824)">
        <path id="Path_1726" data-name="Path 1726" d="M48.148,35.623v.9l.271,3.948-3.3,3.223S29.457,25.934,29.7,25.894s6.459-1.857,6.459-1.857Z" fill="#ffdfcf"/>
        <g id="Group_1890" data-name="Group 1890">
          <path id="Path_1727" data-name="Path 1727" d="M46.442,40.6l-12.02-12.02L26.19,20.1a5.653,5.653,0,0,0-1.984-1.285l-2.8-1.067L19.563,15.9l-2.885-3.755L3.821,25.038l3.966,4.2,3.944,3.944v2.549a3.479,3.479,0,0,0,1.019,2.46l4.592,4.329L29.2,51.631l3.1,3.1A2.5,2.5,0,0,0,35.839,51.2a2.5,2.5,0,1,0,3.535-3.534,2.5,2.5,0,1,0,3.534-3.535A2.5,2.5,0,1,0,46.442,40.6Z" fill="#ffeee6"/>
          <g id="XMLID_442_">
            <g id="Group_1886" data-name="Group 1886">
              <path id="Path_1728" data-name="Path 1728" d="M29.3,48.053a2.457,2.457,0,0,1,0,3.476l-2.625,2.625a2.46,2.46,0,0,1-3.476,0l-.059-.059a2.46,2.46,0,0,1,0-3.476l2.331-2.331.3-.294a2.456,2.456,0,0,1,3.475,0Z" fill="#ffdfcf"/>
              <path id="Path_1729" data-name="Path 1729" d="M25.474,44.814a2.456,2.456,0,0,1,0,3.475l-2.331,2.331a2.457,2.457,0,0,1-3.475-3.475L22,44.814a2.455,2.455,0,0,1,3.475,0Z" fill="#ffdfcf"/>
              <path id="Path_1730" data-name="Path 1730" d="M23.094,40.244a2.458,2.458,0,0,1,0,3.475L22,44.814l-2.331,2.331a2.458,2.458,0,0,1-3.476-3.476L18.3,41.556l1.313-1.312a2.457,2.457,0,0,1,3.476,0Z" fill="#ffdfcf"/>
              <path id="Path_1731" data-name="Path 1731" d="M18.3,38.082a2.456,2.456,0,0,1,0,3.475l-2.112,2.112a2.457,2.457,0,0,1-3.475-3.475l2.112-2.112a2.455,2.455,0,0,1,3.475,0Z" fill="#ffdfcf"/>
            </g>
          </g>
          <g id="XMLID_438_">
            <g id="Group_1887" data-name="Group 1887">
              <path id="Path_1732" data-name="Path 1732" d="M24.8,52.273l2.331-2.331.3-.294a2.457,2.457,0,0,1,2.485-.6,2.457,2.457,0,0,0-.605-.994l-.059-.059a2.456,2.456,0,0,0-3.475,0l-.3.294-2.331,2.331a2.46,2.46,0,0,0,0,3.476l.059.059a2.453,2.453,0,0,0,.994.6,2.461,2.461,0,0,1,.6-2.485Z" fill="#ffcebf"/>
              <path id="Path_1733" data-name="Path 1733" d="M21.322,48.8l2.331-2.331a2.458,2.458,0,0,1,2.439-.619A2.457,2.457,0,0,0,22,44.814l-2.331,2.331A2.459,2.459,0,0,0,20.7,51.238a2.455,2.455,0,0,1,.618-2.44Z" fill="#ffcebf"/>
              <path id="Path_1734" data-name="Path 1734" d="M17.846,45.322l2.112-2.112L21.271,41.9a2.458,2.458,0,0,1,2.44-.618,2.457,2.457,0,0,0-4.093-1.035L18.3,41.556l-2.112,2.112a2.458,2.458,0,0,0,1.036,4.093,2.459,2.459,0,0,1,.617-2.44Z" fill="#ffcebf"/>
              <path id="Path_1735" data-name="Path 1735" d="M14.371,41.847l2.112-2.112a2.457,2.457,0,0,1,2.439-.618,2.457,2.457,0,0,0-4.093-1.035l-2.112,2.112a2.458,2.458,0,0,0,1.035,4.093,2.457,2.457,0,0,1,.618-2.439Z" fill="#ffcebf"/>
            </g>
          </g>
          <g id="XMLID_440_">
            <g id="Group_1888" data-name="Group 1888">
              <path id="Path_1736" data-name="Path 1736" d="M48.632,16.839l11.575,11.7L58.589,30.3,48.419,40.471,34.044,27.116H29.276L26.194,29.65a2.928,2.928,0,0,1-3.93-4.332L25.98,21.6a1.713,1.713,0,0,1,1.212-.5H37a1.934,1.934,0,0,1,.943.246l3.661,2.042a.44.44,0,0,0,.521-.069l3.646-3.56Z" fill="#ffdfcf"/>
            </g>
          </g>
          <g id="Group_1889" data-name="Group 1889">
            <path id="Path_1737" data-name="Path 1737" d="M24.385,28.434a2.919,2.919,0,0,1,.859-2.07l2.591-2.591a5.556,5.556,0,0,1,3.929-1.627h7.617l-1.433-.8A1.934,1.934,0,0,0,37,21.1H27.192a1.711,1.711,0,0,0-1.21.5l-3.718,3.718a2.928,2.928,0,0,0,2.747,4.919,2.922,2.922,0,0,1-.627-1.8Z" fill="#ffcebf"/>
          </g>
          <path id="Path_1738" data-name="Path 1738" d="M63.656,27.756l-3.022,3.022a1.11,1.11,0,0,1-1.551.018L46.137,18.429a1.11,1.11,0,0,1-.018-1.587l6.6-6.6a1.173,1.173,0,0,1,1.842.237L63.84,26.334a1.173,1.173,0,0,1-.183,1.421Z" fill="#fd8087"/>
          <path id="Path_1739" data-name="Path 1739" d="M.231,22.456a.767.767,0,0,0-.006,1.09l4.48,4.48a1.737,1.737,0,0,0,2.457,0L19.647,15.542a1.737,1.737,0,0,0,0-2.457L15.32,8.759a.767.767,0,0,0-1.078-.006Z" fill="#99e6fc"/>
        </g>
      </g>
    </g>
  </g>
</svg>
